<?xml version="1.0" encoding="UTF-8"?>
<svg id="objects" xmlns="http://www.w3.org/2000/svg" viewBox="0 0 237 145">
  <defs>
    <style>
      .cls-1 {
        fill: #c0b3b0;
      }

      .cls-1, .cls-2, .cls-3, .cls-4, .cls-5, .cls-6, .cls-7, .cls-8, .cls-9, .cls-10, .cls-11, .cls-12, .cls-13, .cls-14, .cls-15, .cls-16, .cls-17, .cls-18, .cls-19, .cls-20, .cls-21, .cls-22, .cls-23, .cls-24, .cls-25, .cls-26, .cls-27, .cls-28, .cls-29, .cls-30, .cls-31, .cls-32, .cls-33, .cls-34, .cls-35, .cls-36, .cls-37, .cls-38, .cls-39, .cls-40, .cls-41, .cls-42, .cls-43, .cls-44, .cls-45, .cls-46, .cls-47, .cls-48, .cls-49, .cls-50, .cls-51, .cls-52, .cls-53, .cls-54, .cls-55, .cls-56, .cls-57, .cls-58, .cls-59, .cls-60, .cls-61, .cls-62, .cls-63, .cls-64, .cls-65, .cls-66, .cls-67, .cls-68, .cls-69, .cls-70, .cls-71, .cls-72, .cls-73, .cls-74, .cls-75, .cls-76, .cls-77, .cls-78, .cls-79, .cls-80, .cls-81, .cls-82, .cls-83, .cls-84, .cls-85, .cls-86, .cls-87, .cls-88, .cls-89, .cls-90, .cls-91, .cls-92, .cls-93, .cls-94, .cls-95, .cls-96, .cls-97, .cls-98, .cls-99, .cls-100, .cls-101, .cls-102, .cls-103, .cls-104, .cls-105, .cls-106, .cls-107, .cls-108, .cls-109, .cls-110, .cls-111, .cls-112, .cls-113, .cls-114, .cls-115, .cls-116, .cls-117, .cls-118, .cls-119, .cls-120, .cls-121, .cls-122, .cls-123, .cls-124, .cls-125, .cls-126, .cls-127, .cls-128, .cls-129, .cls-130, .cls-131, .cls-132, .cls-133, .cls-134, .cls-135, .cls-136, .cls-137, .cls-138, .cls-139, .cls-140, .cls-141, .cls-142, .cls-143 {
        stroke-width: 0px;
      }

      .cls-2 {
        fill: #806b67;
      }

      .cls-3 {
        fill: #ae9b92;
      }

      .cls-4 {
        fill: #a6918b;
      }

      .cls-5 {
        fill: #c1b2ad;
      }

      .cls-6 {
        fill: #8e7a78;
      }

      .cls-7 {
        fill: #846f6a;
      }

      .cls-8 {
        fill: #9e8c8a;
      }

      .cls-9 {
        fill: #a28d89;
      }

      .cls-10 {
        fill: #937f7c;
      }

      .cls-11 {
        fill: #ad9a95;
      }

      .cls-12 {
        fill: #7e6966;
      }

      .cls-13 {
        fill: #a0918f;
      }

      .cls-14 {
        fill: #bbaeaa;
      }

      .cls-15 {
        fill: #beb8b5;
      }

      .cls-16 {
        fill: #baaeab;
      }

      .cls-17 {
        fill: #937771;
      }

      .cls-18 {
        fill: #ad9d99;
      }

      .cls-19 {
        fill: #b4a3a0;
      }

      .cls-20 {
        fill: #ae918a;
      }

      .cls-21 {
        fill: #b09e99;
      }

      .cls-22 {
        fill: #e2dfdb;
      }

      .cls-23 {
        fill: #7a5859;
      }

      .cls-24 {
        fill: #987d77;
      }

      .cls-25 {
        fill: #a0857c;
      }

      .cls-26 {
        fill: #b1a29d;
      }

      .cls-27 {
        fill: #86716e;
      }

      .cls-28 {
        fill: #bfb1ae;
      }

      .cls-29 {
        fill: #8e726a;
      }

      .cls-30 {
        fill: #c7bcba;
      }

      .cls-31 {
        fill: #78625d;
      }

      .cls-32 {
        fill: #977970;
      }

      .cls-33 {
        fill: #b4a097;
      }

      .cls-34 {
        fill: #937e7a;
      }

      .cls-35 {
        fill: #b09f9b;
      }

      .cls-36 {
        fill: #ebe7e4;
      }

      .cls-37 {
        fill: #937c79;
      }

      .cls-38 {
        fill: #988784;
      }

      .cls-39 {
        fill: #917b74;
      }

      .cls-40 {
        fill: #836b69;
      }

      .cls-41 {
        fill: #8a7572;
      }

      .cls-42 {
        fill: #8f7973;
      }

      .cls-43 {
        fill: #857370;
      }

      .cls-44 {
        fill: #8c7773;
      }

      .cls-45 {
        fill: #957f7b;
      }

      .cls-46 {
        fill: #a49491;
      }

      .cls-47 {
        fill: #ac9c97;
      }

      .cls-48 {
        fill: #a4908a;
      }

      .cls-49 {
        fill: #a7938e;
      }

      .cls-50 {
        fill: #86706e;
      }

      .cls-51 {
        fill: #b6a8a5;
      }

      .cls-52 {
        fill: #b1a09c;
      }

      .cls-53 {
        fill: #c9beba;
      }

      .cls-54 {
        fill: #a08a85;
      }

      .cls-55 {
        fill: #ecebe8;
      }

      .cls-56 {
        fill: #a69490;
      }

      .cls-57 {
        fill: #aa9994;
      }

      .cls-58 {
        fill: #b0a09c;
      }

      .cls-59 {
        fill: #a6958f;
      }

      .cls-60 {
        fill: #7c5b4d;
      }

      .cls-61 {
        fill: #95837d;
      }

      .cls-62 {
        fill: #bfb3b1;
      }

      .cls-63 {
        fill: #96817c;
      }

      .cls-64 {
        fill: #cfcbc9;
      }

      .cls-65 {
        fill: #b3a5a1;
      }

      .cls-66 {
        fill: #8d756f;
      }

      .cls-67 {
        fill: #a69d9b;
      }

      .cls-68 {
        fill: #a1908d;
      }

      .cls-69 {
        fill: #917f7b;
      }

      .cls-70 {
        fill: #ae9f98;
      }

      .cls-71 {
        fill: #9b8782;
      }

      .cls-72 {
        fill: #a38f8b;
      }

      .cls-73 {
        fill: #aa9894;
      }

      .cls-74 {
        fill: #a08c8b;
      }

      .cls-75 {
        fill: #a0918e;
      }

      .cls-76 {
        fill: #a3938e;
      }

      .cls-77 {
        fill: #b7a9a5;
      }

      .cls-78 {
        fill: #a6918d;
      }

      .cls-79 {
        fill: #9a827a;
      }

      .cls-80 {
        fill: #c0b1ac;
      }

      .cls-81 {
        fill: #7c6664;
      }

      .cls-82 {
        fill: #ac9a97;
      }

      .cls-83 {
        fill: #998580;
      }

      .cls-84 {
        fill: #907e76;
      }

      .cls-85 {
        fill: #988381;
      }

      .cls-86 {
        fill: #b3a39f;
      }

      .cls-87 {
        fill: #836457;
      }

      .cls-88 {
        fill: #927871;
      }

      .cls-89 {
        fill: #b6a7a2;
      }

      .cls-90 {
        fill: #938280;
      }

      .cls-91 {
        fill: #9f8784;
      }

      .cls-92 {
        fill: #9f857e;
      }

      .cls-93 {
        fill: #89736e;
      }

      .cls-94 {
        fill: #967f79;
      }

      .cls-95 {
        fill: #a89994;
      }

      .cls-96 {
        fill: #a38d89;
      }

      .cls-97 {
        fill: #ab9a98;
      }

      .cls-98 {
        fill: #d0cbc9;
      }

      .cls-99 {
        fill: #eeecea;
      }

      .cls-100 {
        fill: #e4dcd9;
      }

      .cls-101 {
        fill: #baaba6;
      }

      .cls-102 {
        fill: #9c8c88;
      }

      .cls-103 {
        fill: #a2928c;
      }

      .cls-104 {
        fill: #9d8984;
      }

      .cls-105 {
        fill: #8b7772;
      }

      .cls-106 {
        fill: #bfb0ab;
      }

      .cls-107 {
        fill: #a2908b;
      }

      .cls-108 {
        fill: #9a847f;
      }

      .cls-109 {
        fill: #d6d1cf;
      }

      .cls-110 {
        fill: #95817b;
      }

      .cls-111 {
        fill: #836f64;
      }

      .cls-112 {
        fill: #98837d;
      }

      .cls-113 {
        fill: #a4918d;
      }

      .cls-114 {
        fill: #afa09b;
      }

      .cls-115 {
        fill: #a08e88;
      }

      .cls-116 {
        fill: #9a837e;
      }

      .cls-117 {
        fill: #baa9a6;
      }

      .cls-118 {
        fill: #a79993;
      }

      .cls-119 {
        fill: #b2a19c;
      }

      .cls-120 {
        fill: #897472;
      }

      .cls-121 {
        fill: #a48f89;
      }

      .cls-122 {
        fill: #aca09d;
      }

      .cls-123 {
        fill: #a58f8a;
      }

      .cls-124 {
        fill: #ceb4a3;
      }

      .cls-125 {
        fill: #927e7b;
      }

      .cls-126 {
        fill: #ae9b93;
      }

      .cls-127 {
        fill: #85706c;
      }

      .cls-128 {
        fill: #a6938f;
      }

      .cls-129 {
        fill: #99837e;
      }

      .cls-130 {
        fill: #a5938f;
      }

      .cls-131 {
        fill: #7d6663;
      }

      .cls-132 {
        fill: #ab9b99;
      }

      .cls-133 {
        fill: #9c8a87;
      }

      .cls-134 {
        fill: #907974;
      }

      .cls-135 {
        fill: #a39591;
      }

      .cls-136 {
        fill: #a0857d;
      }

      .cls-137 {
        fill: #a2918b;
      }

      .cls-138 {
        fill: #9e8883;
      }

      .cls-139 {
        fill: #a08e8c;
      }

      .cls-140 {
        fill: #a28d88;
      }

      .cls-141 {
        fill: #b69b90;
      }

      .cls-142 {
        fill: #b5a5a2;
      }

      .cls-143 {
        fill: #89726c;
      }
    </style>
  </defs>
  <path class="cls-49" d="m130.26,117.62c.12-3.2-.42-6.28-1.69-9.23-.38.15-.51.48-.61.84,0,.57-.93,1.07-.16,1.71.12.09.26.14.41.11-.12.13-.2.13-.26-.06-.16-.05-.31-.1-.47-.16-1.26-.24-1.18.65-1.13,1.4.06.84.56,1.53,1.13,2.23-1.94.62-3.05-1.11-4.6-1.26-.54-.13-.86,1.09-1.67.12-.44-.53-1.18.22-1.58.79-.29.55-.56,1.11-1.06,1.51-.22.17-.43.35-.57.6-.47.79,0,.95.66,1-.52-.02-.88.2-1.06.7-.19.54-.11,1.09-.05,1.64.04.17.11.34.2.48.16.99-.98,1.93-.15,2.96.38.51.86.85,1.52.87.19-.04.37-.12.53-.24.13-1.05.57-1.96,1.32-2.71.22-.33.45-.66.67-1,.68-.61.53-1.52.7-2.26.32-1.37.78-.61,1.28-.24.81.17,1.46.59,1.95,1.26.55.34,1.35.69,1.71.2.84-1.14,1.03-.01,1.47.27,1.29.26.54-1.47,1.5-1.53Z"/>
  <path class="cls-72" d="m106.72,93.64c-1.33,1.57-2.66,3.14-3.98,4.71-.27.65-1.45,1.09-.47,2.02.07.17.29,0,.37.17-.19.07-.26-.18-.44-.16-.72-.19-1.47-.4-1.97.38-.28.43.03.73.4.95.18.11.32-.11.5-.05-.07.15-.27.05-.35.19-.98.27-2.47-.06-2.09,1.79.36.43.69.89,1.15,1.23,1.5.04,2.59-.98,3.53-1.81,1.33-1.2,3.08-2.06,3.83-3.85,0-.19-.1-.34-.2-.5.13.02.1.19.21.23,1.53.45,1.4-.98,1.91-1.69.06-.86.84-1.22,1.26-1.84.19-.5-.04-.93-.22-1.37-.13-.26-.29-.49-.5-.69-.14-.13-.29-.23-.46-.31-.97-.41-1.54.8-2.47.6Z"/>
  <path class="cls-121" d="m108.22,123.02c.45-.52.54-1.15.6-1.8.15.23-.23-.39-.18-.12,0,0-.12.04-.18.06.5-.8.06-1.17-.64-1.43-.34-.1-.44-.37-.45-.7-.07-.16-.18-.29-.33-.39-1.06-.23-1.39-1.76-2.72-1.51-.46,1.31-.62,2.69-.92,4.04-.44,2.03-.95,4.05-1.79,5.97-.35.81-.75,1.65-.61,2.6.25.64.77.74,1.37.67.17-.04.34-.11.49-.21.13-.11.24-.23.34-.38.03-.07.06-.15.1-.22.03-.15.02-.3,0-.44.19-.4.67-.06.91-.35.16-.11.27-.25.36-.41.34-.75.05-1.31-.41-1.69.57,1.5,2.09-.38,2.91.62.55-1.39,1.13-2.78,1.15-4.32q-1.93-.71-2.82,1.91c-.08-1.06.17-1.78-.04-2.47-.11-.36-.04-.78.36-.84.92-.15-.11.47.24.68.71.44,1.64.09,2.27.72Z"/>
  <path class="cls-58" d="m130.17,64.08c1.18-2.19,1.62-4.65,2.42-6.98.78-2.27,1.42-4.58,2.14-6.87.15-.46.27-.92.19-1.41.2-.79-.18-1.19-.92-1.29-.6-.08-.79.4-1.03.84-.59,1.1-.74,2.37-1.41,3.43-.21.7-.28,1.46-.8,2.04-1.32,4.04-2.86,8-3.64,12.2.05.19.14.36.27.52,1.07.43,1.65-.11,1.95-1.05.17-.55.02-1.24.82-1.41Z"/>
  <path class="cls-92" d="m128.39,129.93c.05-.11.07-.23.04-.35.09-.16.16-.33.22-.5,0-.14.02-.28.03-.41-.19-.3-.84.02-.79-.61-.36-.47-.9-.64-1.39-.89-.63-.09-1.26-.02-1.88.1-.17.08-.31.2-.42.35-.32.6-.71,1.12-1.4,1.32-.82,2.64-1.65,5.27-2.44,7.91-.29.98-.67,1.98-.29,3.04.35.3.72.27,1.1.08.67-.64.33-1.63.82-2.32.09-.14.17-.29.27-.43.24-.33.69-.41.93-.75.14-.08.04-.25.14-.35.03-.03.08.02.09.07.05.27.03-.12-.13.11-.08.37.08.59.42.71.17,0,.32-.06.46-.16.12-.12.22-.25.3-.4.07-.16.11-.32.14-.49.06-.33.13-.67.24-.99.07-.17.13-.34.18-.51.3-.62.66-1.21.86-1.87.4-1.3,1.13-2.28,2.51-2.66Z"/>
  <path class="cls-105" d="m117.71,62.77c-.86,2.9-1.71,5.81-2.57,8.71-.07.18-.15.35-.24.52-.01.14-.03.29-.04.43.16.4-.07.96.47,1.21.16.07.34.09.51.06.3-.36.39-.15.43.18.19.2.43.26.7.24.57-.38,1.16-.75,1.59-1.3.13-.88,1.01-1.73.1-2.66.73-.39,3.33.7,1.43-1.87-.2-.27-.21-1.37-.32-2.08.55-.39,1.27-.19,1.75-.64.14.06.25-.12.4-.06-.12.16-.37,0-.47.19-.08.88-.41,1.88.96,2.09.55-1.34,2.44-2.21,1.43-4.1-.11-.17-.24-.31-.4-.43-.34-.1-.56.07-.73.33-.49.91-1.05.84-1.67.12-.12-.15-.27-.25-.46-.3-1.05.19-1.77-1.1-2.88-.66Z"/>
  <path class="cls-104" d="m104.33,117.13c.65.27,1,.87,1.44,1.36.43.48.9.5,1.44.42,1.6-.61,1.69-2.03,1.85-3.41-.23-.41-.82-.76-.65-1.22.5-1.37-.53-2.26-.91-3.34,0-.51-.37-.8-.7-1.11-.13-.12-.28-.21-.43-.3-.31-.15-.63-.26-.97-.33-.32-.05-.64-.02-.95.08-.2.06-.4.14-.61.16-.14-.02-.26-.06-.38-.14-.23-.19-.41-.44-.73-.49-.17.01-.33.06-.48.15-.36.29-.73.58-.4,1.12,1.05.79,1.01,2.28,1.99,3.11.51,1.27.42,2.62.49,3.95Z"/>
  <path class="cls-127" d="m124.14,37.54c-.4.97-.9,1.91-.96,2.99h0c-.75,1.38-.97,2.87-1.06,4.39.96,1.42,1.28,1.47,2.69.67.18-.1.51-1.41.97-.13.18.26.42.38.73.36.2-.06.36-.17.5-.32.72-2.01,1.45-4.01,1.31-6.2-.07-.19-.16-.38-.21-.58-.19-.83.97-2.04-.56-2.46-1.37-.38-2.68-.22-3.4,1.28Z"/>
  <path class="cls-108" d="m117.85,122.95c-.35-1.16.02-2.08,1-2.76-.31-.37-.65-.19-.96-.19-.9-.21-1.23.43-1.58,1.06-.36.32.1.73-.1,1.08-.42-.4-.21-.73.09-1.06.15-.86.8-1.2,1.52-1.48.63-.45-.2-1.03.13-1.52.15-.22.22-.46.56-.5.35-.05.32,1.02.67.31.24-.48.07-1.29-.92-1.02-.03,0-.09-.1-.21-.25.89-.58,1.85-1.15,1.98-2.36-1.75-.81-2.73-.34-4.1,1.94.06,2.27-1.56,3.81-2.45,5.67-.48,1.42-.91,2.86-1.1,4.35.42.46.38,1.43,1.32,1.31.71-.09.86-.78,1.19-1.29.44-.69.4-1.82,1.59-1.88.45.08.88.26,1.35.2.19-.03.36-.11.51-.21.14-.14.19-.31.18-.5-.19-.32-.42-.61-.67-.89Z"/>
  <path class="cls-6" d="m133.05,9.43c-.08.09-.11.19-.09.31-.04.22-.17.39-.31.56-1.64,4.04-3.17,8.11-4.21,12.35.49.52,1.05.96,1.5,1.52.2.05.38,0,.55-.09,1.35-2.33,1.56-5.06,2.52-7.53.27-.69.5-1.4.79-2.09.06-.17.11-.35.15-.53.06-.26.11-.52.17-.77.11-.41.23-.81.37-1.22.09-.24.17-.49.24-.74.05-.17.09-.35.13-.53.09-.56.23-1.12-.07-1.66-.77-.7-1.23,0-1.75.4Z"/>
  <path class="cls-126" d="m139.89,29.93c.48-2,.96-4,1.45-6,.63-2.54,1.02-5.12,1.01-7.74-.27-.22-.57-.21-.87-.08-.52.5-.95,1.08-1.36,1.68-.75,3.91-1.37,7.85-2.44,11.7-.42,1.51-1.32,2.89-1.3,4.53.22.59.39,1.24,1.17,1.34,1.23-1.07.78-2.87,1.75-4.05.1-.16.21-.31.31-.47.22-.26.08-.64.28-.9Z"/>
  <path class="cls-66" d="m126.44,45.65c-.16-.12-.32-.24-.48-.37-1.19-.11-1.93,1.25-3.4.81-.67-.2-.55,1.64-1.22,2.33-.71,2.28-1.27,4.59-1.71,6.93.1.11.23.16.38.13.05-.06.1-.29.16,0,0,0-.14.12-.11.26.13.5.28.99.78,1.27.3,0,.67-.17.66-.39-.09-1.53,1.17-1.46,2.07-1.81.36-.78.2-1.46-.47-2.2,1.06.13,1.6-.38,1.83-1.28.05-.5,0-1-.51-1.23-.32-.14-.56.25-.87.27.54-.16.31-.95.69-1.04,2.04-.48,1.88-2.22,2.2-3.69Z"/>
  <path class="cls-139" d="m133.53,13.55c.01.14.03.29.04.43.31.94.81.98,1.5.35.21-.2.39-.06.38.19,0,.11.22.43-.13.35-1.06-.22-1.87.1-1.9,1.23-.03,1.12.76,1.94,1.69,2.41.95.48,1.72-.03,2.22-.92.78-1.27,1.37-2.64,2.05-3.96.11-.15.2-.31.28-.48.47-.88,1.42-1.07,2.19-1.5.26-.12.45-.33.66-.52.28-.47.25-.9-.18-1.28-.05-.1-.44-.17-.03-.32.24-.51.17-.97-.2-1.39-1.07.3-2.22.29-3.25.78.88,1.32-.73,1.41-1.06,2.12-.08.16-.1.33-.08.51-.08.38.85.04.45.65-.13.32-.38.48-.71.54-1.09.07-1.82-.82-2.79-1.05-.19-.04-.37,0-.54.1-.09.43-.17.86-.26,1.29.07.28-.22.31-.33.46Z"/>
  <path class="cls-115" d="m126.42,127.28c.04.91,1.04.56,1.39,1.05.33.21.64.17.95-.06,1.18-3.46,1.61-7.02,1.5-10.66-.15-.13-.29-.3-.47-.39-.17-.09-.39-.11-.71-.19-.21.64.97,1.64-.4,1.94-.3.07-.52.27-.7.51-.06.76-1.96,1.47-.08,2.3-.6.15-1,.56-1.33,1.05-.49.8-.17,1.86-.8,2.62-.09.15-.14.32-.14.5.1.53.51.88.78,1.31Z"/>
  <path class="cls-143" d="m116.7,123.92c-.68-.56-1.14-.23-1.47.39-.35.66-.62,1.36-.93,2.04-.37.81-.4.8-1.15.13-.19-.17-.5-.2-.76-.29-.53,1.24-1,2.5-1.22,3.84-.11.31-.02.67-.19.97,0,.14,0,.28-.01.42.07,1.46,1.08,2.32,2.06,3.19.76,0,.84-.63,1.08-1.13.1-.25.18-.52.25-.78.07-.26.12-.52.16-.79.09-.53.29-1.02.48-1.52.4-1.04.63-2.13.92-3.2.24-1.1.95-2.09.78-3.29Z"/>
  <path class="cls-137" d="m118.42,124.13c-.15.03-.3.05-.45.08-1.53.5-1.6,2.05-2.28,3.17-.44,1.19-.54,2.48-1.14,3.62-.27.83.46,1.48.3,2.48-.17,1.04,1.13.79,1.87.13,1.12-2.71,1.8-5.57,2.66-8.36-.15-.52-.45-.9-.96-1.12Z"/>
  <path class="cls-125" d="m124.14,37.54c.43-.07.73-.32,1.02-.64.3-.33.7-1.25.87.11.04.3.47.02.63-.17.33-.39.7-.43,1.08-.17.46.33.1.73.02,1.1-.07.33-.25.65-.27.99-.02.36.31.36.59.36.36-.22.54-.57.72-.93.68-2.11,1.38-4.22-.21-6.25-1.18.12-1.83-.67-2.51-1.43-.89,2.28-1.47,4.64-1.95,7.03Z"/>
  <path class="cls-33" d="m103.84,113.18c-.21-.71-.46-1.4-.62-2.12-.17-.8-.62-1.17-1.42-1.11-.09,0-.19.02-.28.02-.18.04-.36.1-.53.17-1.74.25-1.79,1.83-2.36,3-.22.16-.42.34-.58.57-.14.36-.02.72,0,1.07-1.35,1.42-2.4,2.95-1.84,5.06.13.16.31.24.51.25.2-.04.37-.12.52-.27,1.15-1.77,1.88-3.78,3.16-5.48,1.24-1.64,1.4-1.69,3.43-1.17Z"/>
  <path class="cls-120" d="m126.09,30.52c.12.39.17.81.36,1.16.61,1.13.74,1.14,1.93.24.1-.16.14-.33.12-.52-.25-.73,0-1.22.71-1.5.88-1.32.8-2.83.84-4.31-.03-.41-.24-.79-.23-1.22.02-.07.04-.15.05-.23q.05-1.31-1.43-1.49c-.96,2.57-1.74,5.19-2.36,7.85Z"/>
  <path class="cls-3" d="m108.82,115.33c-.33,1.28-.8,2.51-1.61,3.58.02.14.03.27.05.41-.21.31-.17.58.11.83q.74.18.59.83-.06.24.86.25c.49-.96,1.05-1.89,1.46-2.89.61-1.48,1.68-2.05,3.22-1.89.06-.07.12-.13.19-.2,0-1.13-1.4-1.42-1.49-2.49-.97-1.73-1.13-1.78-2.05-.26-.4.65-1.03,1.12-1.32,1.84Z"/>
  <path class="cls-80" d="m137.68,35.31c-.56-.19-.43-1-1.04-1.14-.07-.04-.14-.08-.2-.13-.16.05-.27.15-.35.3-.11.29-.15.6-.23.9-.05.15-.09.3-.14.45-.08.23-.16.45-.25.68-.07.16-.13.32-.18.48-.18.6-.29,1.22-.57,1.78-1.4,4.19-2.42,8.48-3.47,12.77,0,.2.03.39.11.58.08.06.16.12.24.18.49-.15.94-.43.97-.97.07-1.22.86-2.16,1.11-3.28.74-.07,1.08.3,1.25.91.33-.44.45-.94.49-1.48-.78-.69-1.06-1.4-.51-2.45.56-1.07.67-2.34,1.31-3.4.1-.15.17-.32.23-.49.03-.27-.05-.51-.16-.75-.05-.15-.1-.31-.13-.47.16-.76,1.06-1.2.91-2.09-.04-.32-.06-.64.21-.9.37-.36.84-.67.59-1.31-.06-.06-.13-.12-.19-.18Z"/>
  <path class="cls-110" d="m104.28,128.55c-.52.08-1.04.16-1.55.25-.02,0-.04.25-.01.26.11.05.25.05.38.07.11.08.16.16.14.26-.02.1-.05.15-.08.15h0c-.13.15-.22.33-.36.47-.1.12-.12.22-.06.3.06.08.1.12.14.12.27.22.65,0,1.04.25-.49-.2-.96-.06-1.28-.39-.8.06-1.5.53-1.26,1.25.22.68,1.07,1.2,1.78,1.43.52.16,1.17.34,1.78.17h0c.08-.18.18-.34.28-.5.2-.46.39-.91.59-1.37-.1-.08-.2-.13-.31-.17.08-.19.35-.04.43-.23.67-1.09.86-2.34,1.15-3.55-.05-.4-.11-.8-.17-1.3-.83-.02-1.02,1.22-1.68.91-.58-.27-1-.9-1.49-1.38-.53.47-.48,1.06,0,1.39.66.44.54,1.01.56,1.6h0Z"/>
  <path class="cls-44" d="m112.18,80.76c-.62,1.4-.76,2.93-1.24,4.36-.55,1.64-1.16,3.25-1.75,4.88.07.06.14.12.21.18,1.36.38,1.54-.45,1.52-1.48.18-1.79,2.26-1.03,2.93-2.17.15-.13.29-.26.43-.4.98-.88,2.12-1.7,1.32-3.29-.81-.48-1.65-.89-2.63-.77-.14.06-.28.14-.4.23-.28.03.01.37-.23.42.02-.23.18-.38.33-.53.19-.19.24-.42.18-.67-.08-.26-.22-.47-.42-.66-.08-.04-.16-.08-.24-.12Z"/>
  <path class="cls-54" d="m102.85,130.42c-.02-.14-.04-.28-.05-.41-.63.15-1.22.02-1.78-.27,0,0,.03.03.03.03-.07.18-.16.35-.26.5-.59,1.3-.51,2.71-.6,4.08-.05.69.12,1.46.8,1.8.68.33,1.36-.03,1.93-.44.9-.67,1.59-1.52,2.03-2.57-.42-.15-.63-.7-1.24-.51-.61.2-.91.06-.92-.77,0-.72-.82.08-1.19-.3.2-.64.6-1.04,1.27-1.15h0Z"/>
  <path class="cls-34" d="m115.87,73.57c-.32-.15-.8-.18-.56-.74.3-.67-.26-.32-.46-.4-1.34,2.63-1.66,5.59-2.68,8.33l.09.1c.29.18.58.35.93.35.27-.02.5-.14.72-.28.15-.09.29-.19.43-.29.53-.21.67-1,1.39-.91.18.03.35.03.53.02,1.32-.42,1.05-1.24.38-1.97-.48-.52-.94-.94-.63-1.71-.01-.18-.05-.36-.11-.53-.48-.64.69-1.33-.05-1.96Z"/>
  <path class="cls-89" d="m92.27,129.41c1.32-1.53,2.64-3.05,3.06-5.12-.33-.62-.79-.57-.93-.52.38-.2,1.45-.5.66-1.74-.13-.13-.27-.24-.43-.33-.68-.18-.75-1.28-1.67-1.1-1.2.71-.46,2.49-1.74,3.15.15,1.15.38,2.28.26,3.47-.08.79-.05,1.68.8,2.19Z"/>
  <path class="cls-24" d="m113.14,134.65c-.4-1.29-1.54-2.09-2.18-3.22-.72,1.82-1.04,3.74-1.4,5.65.22.16.73.02.7.25-.14,1.44.89,1.5,1.85,1.67.2-.04.37-.13.48-.31.24-1.34,1.45-2.55.54-4.05Z"/>
  <path class="cls-136" d="m125.68,118.55c-.08-1.21-.89-1.45-1.89-1.44-.26,1.13.69,1.78,1.05,2.64.2.17-.1-.07.12.1-.04.02-.06-.03-.11-.05-.64-.04-1.29-.26-1.8.32.4,1.8.19,3.63.18,5.45.07.07.14.13.22.2,2.17.33,2.37.17,2.99-2.42-.01-.19-.1-.35-.25-.48-1.56-.96.47-1,.41-1.58.05-.71-.21-1.36-.37-2.03-.1-.3-.31-.52-.53-.73Z"/>
  <path class="cls-83" d="m92.27,129.41c-.24-1.13-.6-2.27-.11-3.42.44-1.03-.69-1.57-.73-2.45-.62-1.56-1.38-1.04-2.17-.15-.29.38-.31.82-.25,1.27-.2.69.67.67.74,1.01.16.81,1.9,1.92-.32,2.46-.17.04-.06.52-.24.75.04.87.31,1.66,1.25,1.81.93.16,1.44-.53,1.82-1.28Z"/>
  <path class="cls-86" d="m125.04,78.76c.87-2.76,2.56-5.2,3.11-8.08-.15-.11-.31-.14-.49-.12-.08.02-.17.05-.25.07-.61.36-1.15-.27-1.74-.15-1.32,2.14-1.69,4.59-2.21,6.98.4.59.9,1.06,1.58,1.3Z"/>
  <path class="cls-47" d="m128.39,129.93c-1.77-.2-1.79-.21-2.5,1.39-.5,1.12-.93,2.26-1.4,3.39.87.73-.69,1.91.48,2.59.3.07.56,0,.76-.23,1.37-2.2,2.09-4.64,2.66-7.14Z"/>
  <path class="cls-57" d="m135.81,40.18c.17.26.35.52.52.77h0c-.7.08-.79.67-1.01,1.18-.43,1.01-.61,2.1-1.07,3.11-.7,1.53-.59,1.62,1.16,2.1.51-1.71,1.03-3.43,1.54-5.14.07-.17.14-.35.22-.52.01-.26.03-.52.04-.77.07-.16.07-.32.02-.48-.12-.39-.24-.77.1-1.12.17-.18.22-.43.33-.64.04-.11.05-.23.04-.35.07-.18.07-.36-.02-.53-.26-.31-.55-.5-.96-.25.07.72-.35,1.13-.87,1.52-.4.31-.72.72-.06,1.13h0Z"/>
  <path class="cls-78" d="m123.14,97.01c-.87-1.68-.84-3.55-1.15-5.34-.14-.09-.28-.07-.41.03-.12.19-.16.4-.16.61-.05.37-.29-.03-.41.09-.25.02-.45.12-.61.32-.1.24-.09.49.01.72.09.14.22.24.37.3.14.01.34-.02.37.15.05.27.09-.08-.16.06-.06.16-.08.32-.06.49.21.78-.5,1.35-.46,2.09.47,1.03-.06,1.88-.53,2.74-.07.67.23,1.16.73,1.55,1.01.31,1.98-.09,2.96-.21.28-.13.48-.33.56-.63.03-.55-.28-1.01-.72-1.17-1.2-.43-.57-1.14-.36-1.8Z"/>
  <path class="cls-94" d="m138.81,9.05c1.15-.09,2.48.42,3.29-.91-.1-.75-.55-1.19-1.24-1.47-1.61-.66-3.22-1.12-4.95-.52-.11.51-.26,1.04.31,1.4.49.17.99.18,1.5.15.14.04.44-.2.38.21.05.5.1,1,.71,1.14Z"/>
  <path class="cls-26" d="m116.73,133.61c-.53.07-1.06.14-2.11.28,1.14-.7,1.87-1.25.66-1.98-.37-.22-.52-.6-.58-1.02.1-.09.13-.16.08-.24-.04-.07-.08-.11-.12-.1-.44.35-.53.86-.61,1.37.28.28.2.54-.04.79-.08.16-.15.33-.23.49.23,1.53-.66,2.84-.82,4.29.94.5,1.69-.45,2.57-.35.62-1.11,1-2.29,1.19-3.54Z"/>
  <path class="cls-39" d="m120.79,56.92c-.02-.61-.28-1.12-.64-1.6h0c-.17.01-.35.03-.52.04-.74,1.99-1.4,3.99-1.7,6.1.13.12.27.17.45.15.17-.04.33-.1.49-.15.89-.11,1.86.04,2.5-.82-.22-.89-.37-1.79-.11-2.7,0-.41-.1-.78-.47-1.03Z"/>
  <path class="cls-7" d="m112.02,138.9c-.09-.35-.22-.63-.69-.5-.59.16-.79-.24-.64-.68.15-.44.59-.88.03-1.22-.56-.34-.69.54-1.16.58-.7,1.39-.57,2.81-.18,4.24,1.1,1.2,1.99.45,2.87-.31.22-.45.07-.93.1-1.4-.02-.28-.12-.53-.34-.72Z"/>
  <path class="cls-95" d="m125.96,70.5c.69,1.16,1.03,1.2,1.73.22h0c.15-.01.31-.03.46-.04.77-1.5,1.08-3.14,1.46-4.75.14-.31.01-.68.26-.96h0c.2-.26.06-.63.29-.88h0c-.1-.32-.25-.78-.64-.51-.34.24-.84.62-.65,1.16.44,1.29-.51,1.48-1.32,1.81-.19.66.04,1.5-.82,1.87-.14.12-.24.27-.31.44.7.78-.13.88-.52,1.16-.09.18-.07.34.06.49Z"/>
  <path class="cls-73" d="m125.04,78.76c-.2-.74-.57-1.26-1.44-1.16-.09.03-.18.06-.28.08-.85.62-.88,1.64-1.24,2.5-.05.54.07,1.08.08,1.62.63.78-.44,1.46-.14,2.22.51.87.85.37,1.19-.15.19-.3.42-.58.65-.85.47-1.4,1.09-2.75,1.16-4.26Z"/>
  <path class="cls-71" d="m127.24,104.76c-.09-.43-.16-.87-.59-1.12-.38-.05-.48-.4-.69-.63-.13-.12-.28-.2-.46-.24-.39-.03-.7.13-.98.37-.13.12-.25.25-.36.39-.19.27-.36.55-.44.87-.05.18-.1.18-.16,0-1.25-.58-.98.41-1.08,1.03.16.36.47.56.77.78.56.35.81,1.04,1.44,1.3.2.03.4.02.6-.03.87-.74,2.5-.94,1.94-2.71Z"/>
  <path class="cls-4" d="m89.26,123.39c.74-.2,1.51-.8,2.17.15.37-.17.73-.36,1.11-.5.7-.27.86-.52.21-1.12-.52-.48.03-.83.39-1.14.13-.14.19-.31.17-.5-.05-.18-.15-.32-.3-.44-.71-.24-1.34.22-2.02.24-.56-.12-.55-.82-1.04-1.01-.37,1.42-.71,2.84-.7,4.32Z"/>
  <path class="cls-40" d="m121.69,92.5l-.04-.79c.14-.12.25-.27.32-.45,0-.14-.01-.27-.02-.41-.65-.57.25-.85.24-1.3.01-.14.02-.28.04-.41-.21-.27.15-.31.19-.48.02-.13.05-.27.07-.4-.02-.33.11-.61.3-.88h.01c.16-.27.05-.62.23-.89.03-.14.06-.28.09-.42-1.4-.46-1.5,1.1-2.34,1.51-.14.13-.26.28-.37.44-.11.16-.21.32-.29.5-.08.17-.15.35-.21.54-.23.93-.48,1.87-.91,2.72-.55,1.07-.27,1.82.67,2.44.57.36,1.11.53,1.43-.31h0c.08-.1.1-.19.05-.27-.05-.07-.09-.11-.12-.1-.13,0-.25.01-.38,0-.3-.23-.33-.5-.11-.81.27-.03.55-.07.82-.1.17.11.28.07.33-.12Z"/>
  <path class="cls-107" d="m127.24,104.76c-.11,1.41-1.61,1.58-2.25,2.52-1.12,1.48.73,1.57,1.16,2.27.56.9,1.42.48,2.07-.18.11-.32.23-.65.34-.97-.19-1.3-.57-2.54-1.33-3.63Z"/>
  <path class="cls-2" d="m118.45,61.44c-.17,0-.35.02-.52.03-.32.39-.25.85-.23,1.3.4.23.87.38,1.17.69.64.67,1.29.45,1.97.18.2-.03.4-.07.57-.19.65-.44,1.71-.63,1.7-1.54-.01-1-1.16-.92-1.83-1.28-.84.09-1.62.58-2.53.21-.27-.11-.31.33-.3.59.1.06.19.13.27.21l.15.09s-.13-.11-.13-.11c-.11-.04-.21-.1-.29-.19Z"/>
  <path class="cls-118" d="m112.18,140.54c-.8.75-1.63,1.37-2.8.78-.04.8.11,1.6.97,1.83.73.2,1.35-.35,1.76-.87.97-1.23,2.1-2.35,2.79-3.79-.48-.5-1.14-.55-1.75-.72-.87-.14-.29.91-.84,1.03-.1.03-.19.06-.29.09.02.26.03.53.05.79-.21.32.13.56.11.85Z"/>
  <path class="cls-32" d="m125,119.89c.06-.38.42-.83-.04-1.13-.64-.4-.71-1.15-1.18-1.65-.65-.23-.64-.97-1.12-1.55-.64,1.46-1.16,2.82-1.02,4.35.14,0,.27-.04.4-.1.13-.14.27-.15.43-.03.19.12.38.23.57.35.64-.18,1.37.29,1.96-.25h0Z"/>
  <path class="cls-141" d="m101.11,101.63c-.33-.1-.68-.23-.67-.63.01-.32.32-.43.6-.36.55.13,1.07,0,1.61-.06h0c-.94-.78.02-1.48.09-2.22-2.17,1.52-4.16,3.24-6.07,5.06.67.67,1.33,1.58,2.18.19-.13-.94.43-1.18,1.21-1.21.53-.02,1.17.13,1.05-.77h0Z"/>
  <path class="cls-29" d="m121.35,139.73c-.43.05-.86.11-1.29.16-.39,1.19.22,2.27.42,3.39.15.88.81.9,1.36.41.7-.62,1.52-1.16,1.95-2.05.05-.36.15-.74-.25-.99-.18-.06-.36-.07-.55-.03-.3.05-.62.25-.86-.12-.04-.15-.11-.3-.17-.44-.1-.13-.22-.23-.36-.3-.08-.01-.16-.02-.24-.03Z"/>
  <path class="cls-25" d="m98.84,103.6c-.81.93-1.44-.3-2.18-.19h0c-.02.68-.7.7-1.04,1.06-.41.33-.56.82-.78,1.26-.02.22-.14.39-.29.54h0c-.13.44.13.72.42.99,1.39.67,1.39-.44,1.63-1.34.59.11.8.88,1.44.88,1-.34,1.47-1.15,1.79-2.07-.06-.61-.15-1.2-.99-1.13Z"/>
  <path class="cls-124" d="m95.13,107.07c-.19-.26-.38-.53-.57-.79-1.38,2.19-2.28,4.58-2.85,7.09.17.12.35.17.55.15,1.23-.81,1.59-2.21,2.28-3.39.17-1.02,1.29-1.87.58-3.06Z"/>
  <path class="cls-63" d="m106.72,93.64c.52.49,1.03.95,1.51-.05.24-.5.66-.29,1.03-.21h0c.18.26.36.51.53.77,1.26-1.3,1.09-2.87-.46-4.11l-.15-.05c-.82,1.21-1.64,2.43-2.47,3.64Z"/>
  <path class="cls-20" d="m113.49,121.85c1.59-1.3,2.5-3.01,2.99-4.97.03-.11-.22-.29-.35-.44-.56.12-1,.46-1.46.77-.13.02-.17.35-.23.21-.09-.23-.08-.51-.27-.71-.17-.1-.33-.08-.47.06.61,1.72-.11,3.39-.22,5.08Z"/>
  <path class="cls-9" d="m89.2,128.88c.52-1.12,1.2-.27,2.01-.06-.31-1.73-.28-3.43-2.2-4.16-.66,1.44-.02,2.82.19,4.22Z"/>
  <path class="cls-116" d="m121.35,48.43c.46-.32.9-.73.97-1.28.12-.87.39-.93,1.21-.66,1.05.34,1.7-.63,2.43-1.2.03-.46.06-.93.12-1.66-1.28.99-2.1,3.14-3.97,1.3-.39,1.14-.72,2.29-.76,3.5Z"/>
  <path class="cls-4" d="m92.17,113.38c-.15,0-.31,0-.46,0h0c-.06.2-.22.33-.29.51-.04.1-.06.2-.06.31-.03.22-.15.4-.29.57-.46,1.28-.97,2.55-1.07,3.93.29.2.61.21.94.13,1.32-.35,1.99-1.12,1.6-2.53-.26-.95.52-2.04-.37-2.91Z"/>
  <path class="cls-113" d="m120.72,88.04c1.11-.28,1.28-1.7,2.39-1.98.42-.65.35-1.41.5-2.12.09-.45-.11-.56-.51-.41-.39-.01-.17.88-.79.53-1.48.66-1.52,2.38-2.47,3.45-.19.22.43.55.87.53Z"/>
  <path class="cls-102" d="m123.19,140.73c.39.18.46.56.59.91.53-.87,1.1-1.72,1.28-2.75.15-.3,0-.68.29-.94v.02c.08-.16.17-.33.25-.49.04-.14.08-.27.12-.41-.33.02-.65.04-.98.05,0,0-.14.09-.14.09-.1-.09-.13-.19-.09-.31-.05-.12-.15-.2-.28-.23-.14,0-.24.07-.31.19h-.03c-.89.74-1.44,1.57-.5,2.61.52.57-.92.72-.2,1.26Z"/>
  <path class="cls-91" d="m136.05,7.32c.18-.42.18-.82-.14-1.18-1.54.58-2.21,1.92-2.85,3.28.56.13,1-.66,1.6-.19,1,.34.79-.54,1.01-.99.13-.31.32-.59.38-.92Z"/>
  <path class="cls-70" d="m94.56,121.86c.8.97.32,1.56-.88,1.96.74.21,1.19.35,1.65.48.59-.95,1.11-1.93,1.3-3.06.09-.2.06-.39-.08-.56-.94-.07-1.55.42-1.99,1.18Z"/>
  <path class="cls-71" d="m123.14,97.01c-.89.23-.84,1.14-1.58,1.94,1.25-.24,1.96.12,2.45.88.15.25.37.41.67.43.08-.05.16-.1.24-.15-.59-1.03-1.19-2.06-1.78-3.09Z"/>
  <path class="cls-56" d="m139.3,31.31c-1.47.95-1.37,2.55-1.62,4h0c.3.2.56.17.79-.11.55-1.24.83-2.53.83-3.89Z"/>
  <path class="cls-76" d="m113.11,137.9c.42.72,1.09.72,1.79.6.42-.35.54-.84.64-1.35-.11-.3-.17-.67-.64-.47-.6.26-1.19.53-1.78.8-.13.09-.17.18-.13.27.04.1.08.15.12.14Z"/>
  <path class="cls-136" d="m123.23,125.58c-.4.83-.32,1.72-.39,2.6.78.44,1.2.05,1.51-.63h0c.21-.35.95-.24.79-.91-.37-.74-1.11-.82-1.79-1l-.12-.06Z"/>
  <path class="cls-48" d="m141.47,16.28c.29-.03.58-.06.88-.09.35-.52.22-1.1.16-1.66.25-.43-.1-.93.17-1.35,0-.14-.01-.28-.02-.42-.69-.4-1.16,0-1.63.43-.17.25-.22.53-.17.83.19.59.39,1.18.35,1.81.03.18.12.33.26.44Z"/>
  <path class="cls-137" d="m120.98,120.92c-.16-.09-.33-.17-.49-.26-.34.95-1.46,1.67-.88,2.9-.12.22-.07.4.15.52.49-1.02.95-2.06,1.22-3.17Z"/>
  <path class="cls-138" d="m90.75,118.58c-.25.04-.49.07-.74.11-.07.12-.09.25-.05.38.08.47.12.96.24,1.42.15.54.45.65.83.16q.74-1.62-.28-2.07Z"/>
  <path class="cls-126" d="m141.09,13.4c.52-.21,1.04-.43,1.57-.64-.05-.54-.1-1.09-.15-1.63-.3.03-.61.07-.91.1-.48.65-1.11,1.27-.5,2.17Z"/>
  <path class="cls-89" d="m94.56,121.86c.78-.14,1.3-.73,1.95-1.1.15.14.27.11.37-.06.05-.11.07-.22.05-.34.09-.19.05-.35-.11-.49-.14.02-.28.03-.41.05-.91.36-2.76-.17-1.85,1.93h0Z"/>
  <path class="cls-17" d="m124.35,127.55c-.46.32-.93.61-1.51.63-.02.25-.03.5-.05.76,1.06.31,1.71-.27,1.56-1.39Z"/>
  <path class="cls-103" d="m136.74,37.53c.29.1.57.21.86.31.15.13.27.11.35-.07,0-.24.02-.48.03-.72-.08-.74-.46-.74-.98-.4-.74.1-.55.48-.26.89Z"/>
  <path class="cls-126" d="m137.01,36.64c.39-.03.74.04.98.4.33-.57.55-1.17.48-1.85-.26.04-.53.08-.79.11.14.63-.47.88-.67,1.34Z"/>
  <path class="cls-84" d="m119.76,124.08c-.05-.17-.1-.35-.15-.52-.14.02-.27.04-.41.06-.2.27-.64.16-.78.52h0c.07.59.39.96.96,1.11v-.02c.25-.23.11-.6.3-.85.06-.09.08-.2.07-.31Z"/>
  <path class="cls-85" d="m122.18,89.55c-.46.36-.83.84-1.44,1,.38.54.81.3,1.2.3.22-.41.39-.82.24-1.3Z"/>
  <path class="cls-71" d="m126.5,103.27c-.16-.75-.5-1.41-1.02-1.98-.07.08-.13.17-.2.25-.19.57-.06,1.04.4,1.42h0c.24.18.4.58.81.3Z"/>
  <path class="cls-111" d="m105.91,130.88c-.27-.14-.54-.4-.8-.38-.19.01-.33.46-.2.67.21.33.58.12.89.11.04-.13.08-.27.12-.4Z"/>
  <path class="cls-47" d="m128.76,128.28c-.32.02-.63.04-.95.06-.17.1-.49.2-.49.29.01.35.28.41.58.31.26-.09.52-.19.78-.28.06-.12.09-.25.08-.39Z"/>
  <path class="cls-72" d="m137.33,39.15c-1.07.25-.42.81-.22,1.28.15.14.26.11.34-.08.02-.25.04-.49.05-.74.08-.21.02-.37-.17-.47Z"/>
  <path class="cls-141" d="m95.63,104.48c.6-.09,1.21-.18,1.04-1.05-.44.26-.86.53-1.04,1.05Z"/>
  <path class="cls-79" d="m126.5,103.27c-.27-.1-.54-.2-.81-.3.2.4.09,1.24.96.67,0-.14-.05-.26-.15-.37Z"/>
  <path class="cls-85" d="m122.41,88.65c-.07,0-.14,0-.2.01-.24.05-.67-.18-.71.1-.06.5.42.34.72.37.19-.11.24-.28.19-.48Z"/>
  <path class="cls-126" d="m142.68,13.18c-.41.4-.26.88-.17,1.35.31-.42.28-.88.17-1.35Z"/>
  <path class="cls-94" d="m142.3,9.53c-.17-.17-.45-.52-.58-.21-.16.38.32.44.62.53.04-.11.03-.22-.03-.32Z"/>
  <path class="cls-71" d="m125.49,101.29c-.08-.45-.12-.92-.57-1.19l-.06.06c-.25.61-.27,1.11.58,1.18l.05-.05Z"/>
  <path class="cls-85" d="m122.78,87.38c-.28.23-.86.36-.3.88.28-.23.36-.53.3-.88Z"/>
  <path class="cls-117" d="m123.11,83.53c.17.14.34.28.51.41.25-.26.29-.58.26-.92-.33.05-.65.14-.77.51Z"/>
  <path class="cls-24" d="m110.98,131.01c.31-.27.29-.62.19-.97-.29.28-.3.61-.19.97Z"/>
  <path class="cls-137" d="m119.68,124.39c-.28.22-.33.52-.29.85.28-.22.37-.5.29-.85Z"/>
  <path class="cls-80" d="m137.33,39.15c.06.16.12.31.17.47.25-.28.27-.61.17-.95-.12.16-.23.32-.35.48Z"/>
  <path class="cls-36" d="m139.89,29.93c-.26.25-.35.55-.28.9.31-.23.36-.55.28-.9Z"/>
  <path class="cls-47" d="m125.35,137.95c-.38.23-.38.57-.29.94.29-.25.34-.58.29-.94Z"/>
  <path class="cls-113" d="m123.02,86.49c-.29.25-.33.55-.23.9.27-.25.34-.55.23-.9Z"/>
  <path class="cls-58" d="m129.88,64.96c-.36.25-.35.59-.26.96.26-.27.3-.61.26-.96Z"/>
  <path class="cls-58" d="m130.17,64.08c-.31.22-.35.54-.3.89.28-.24.33-.55.3-.89Z"/>
  <path class="cls-34" d="m114.9,72c.08-.17.16-.35.24-.52-.2.12-.28.29-.24.52Z"/>
  <path class="cls-85" d="m121.96,91.26c-.11.15-.21.3-.32.45.11-.01.22-.03.34-.04,0-.14-.01-.27-.02-.41Z"/>
  <path class="cls-124" d="m94.56,106.28c.21-.12.31-.3.29-.54-.2.12-.31.3-.29.54Z"/>
  <path class="cls-124" d="m91.43,113.88c.19-.12.3-.28.29-.51-.22.1-.31.27-.29.51Z"/>
  <path class="cls-124" d="m91.08,114.76c.2-.13.32-.31.29-.57-.1.19-.19.38-.29.57Z"/>
  <path class="cls-96" d="m113.71,116.77c.12-.02.24-.03.35-.05.04-.35-.1-.48-.44-.36,0,0-.13.08-.13.08.06.12.13.23.22.33Z"/>
  <path class="cls-5" d="m96.82,119.87c.04.16.07.32.11.49.11-.18.21-.36.32-.54-.14.02-.28.03-.43.05Z"/>
  <path class="cls-5" d="m96.87,120.7c-.12.02-.25.04-.37.06.04.16.08.32.12.48.08-.18.16-.36.25-.54Z"/>
  <path class="cls-49" d="m122.47,119.79c-.16-.21-.3-.2-.43.03.14,0,.28-.02.43-.03Z"/>
  <path class="cls-121" d="m100.78,130.27c.09-.17.17-.34.26-.5-.22.1-.3.27-.26.5Z"/>
  <path class="cls-47" d="m128.65,129.08c-.07.17-.15.34-.22.5.17-.12.26-.28.22-.5Z"/>
  <path class="cls-54" d="m105.21,132.64c-.09.16-.19.33-.28.49.2-.1.31-.26.28-.49Z"/>
  <path class="cls-47" d="m125.61,137.48c-.09.16-.18.32-.27.49.2-.1.29-.26.27-.49Z"/>
  <path class="cls-91" d="m132.65,10.31c.21-.13.32-.31.31-.56-.1.19-.21.37-.31.56Z"/>
  <path class="cls-80" d="m137.95,37.77c-.12.03-.23.05-.35.07.04.16.08.32.11.47.19-.14.27-.31.24-.55Z"/>
  <path class="cls-80" d="m137.45,40.35c-.11.02-.23.05-.34.08.04.16.08.31.12.47.18-.14.26-.32.23-.55Z"/>
  <path class="cls-80" d="m137.18,41.68c-.17.13-.25.3-.22.52.07-.17.14-.35.22-.52Z"/>
  <path class="cls-21" d="m128.22,109.36c-1.67.77-2.2-1.03-3.32-1.5-.04-.02.05-.38.09-.58-.13.02-.27.03-.4.04-.47-.43-.86-.91-1.06-1.53-.29-.11-.58-.22-.87-.32-.19.07-.5.29-.53.24-1.56-1.9-2.79-.18-4.13.35.66,1.24.99,2.67,2,3.71.42.43.61.94.57,1.46-.09,1.08.3,1.49,1.3,1.06,1.62-.69.66.78,1.01,1.16.81.39,1.61.85,2.34,1.34.73.49,1.4.32,2.11.41.48.06.55-.08.6-.52.04-.31.38-.57-.17-.76-.72-.25-.72-.96-.89-1.54-.34-1.13-.25-1.21,1.16-1.3h0c-.21-.34-.41-.66.08-.97.25-.16.58-.42.11-.74Z"/>
  <path class="cls-96" d="m122.88,113.44c.03-.06.05-.13.1-.18.36-.47,1.09-.95.56-1.57-.53-.63-1.26-.35-1.82.16-.21.19-.38.41-.7.23-.04-.05-.12-.14-.11-.14.99-.95.2-1.7-.37-2.34-.23-.26-.79-.31-.78-.8.05-1.28-1.09-1.82-1.64-2.71-.39-.21-.84-.23-1.25-.38-.36-.06-.69.07-1.02.19-.25.09-.48.19-.72.31-.46.26-.99.37-1.43.68-.14.14-.2.3-.18.5.08.18.19.31.36.41.99-.23,1.88,1.46,2.92.16.09-.12-.02-.34.13-.4.11-.05.15.08.05.22.08.32.31.54.51.77.12.72.71,1.05,1.26,1.53-.55-.19-.8-.84-1.43-.64-.59.71-1.3,1.29-1.91,1.97.39,1.06-.94.48-1.04,1.09.36,1.01.03,1.92-.22,2.9-.16.64,0,1.46.46,2.09.71-.06,1.33-.26,1.54-1.05.48-.64,1.09-1.16,1.67-1.7.74-.71,1.45-.54,2.23-.49.57-.63,1.12-1.45,1.56.13.11.4.6.74,1.17.58.39-.53-.24-.7-.35-1.04-.13-.4.22-.4.46-.48Z"/>
  <path class="cls-52" d="m125.68,118.55c.03.27.07.54.1.81.81,1.03,1.68.33,2.53.08.12-.15.24-.31.37-.46-.17-.35-.33-.7-.58-1.21-.61.94-1.49.95-2.42.78Z"/>
  <path class="cls-41" d="m117.82,119.59c-.13-.03-.26-.1-.39-.1q-1.55.04-1.11,1.56h0c.52-.36,1.05-.71,1.57-1.06-.03-.13-.05-.27-.07-.4Z"/>
  <path class="cls-137" d="m118.42,124.14c.34-.06.64-.17.78-.52-.45-.22-.9-.44-1.35-.67.02.48.34.81.57,1.19Z"/>
  <path class="cls-21" d="m128.09,111.48c.23,0,.6.26.64-.05.05-.44-.4-.35-.7-.36h0c.02.14.03.28.05.41h0Z"/>
  <path class="cls-21" d="m128.09,111.48c-.05.04-.16.1-.15.12.05.13.11.09.15-.11h0Z"/>
  <path class="cls-77" d="m99.83,104.73c-.93.34-1.11,1.4-1.84,1.93-1.5.44-1.59,1.89-2.17,3-.22.64-.66,1.26-.27,1.99.12.16.36.27.41.43.43,1.59,1.59,1.79,2.97,1.61.29-.19.67-.47.59-.76-.48-1.73.98-1.91,1.92-2.52.1-.14.11-.29.05-.44-.03-.72.6-.72,1.02-.95.14-.02.27-.03.41-.05.69-.12.21.6.53.74h0c.3.21.58.17.82-.09.41-.06.82-.11,1.23-.17.1.07.21.12.32.15.12-.01.23-.05.33-.1.04.11.12.2.22.25h0c.26.25.5.53.9.52.18,0,.33-.07.47-.18.14-.12-.05-.24,0-.36.22.1.1.32.18.47.33.48.82.64,1.37.68.18-.02.35-.08.51-.17.12-.14.18-.29.17-.48-.08-.26-.25-.46-.44-.64-.1-.1-.21-.19-.3-.26.07-.12.17-.19.32-.18.16-.05.29-.12.41-.23.05-1.44-1.13-1.6-2.04-2.17-.74-.46-2.1-.49-1.94-1.97.88,1.81,2.35,2.33,4.2,2.07.13-.15.21-.32.25-.51.05-.51-.37-.92-.41-1.34-.07-.73.15-1.73,1.2-1.18,1.35.71,1.34-.22,1.56-1.01.01-.17,0-.34-.06-.5-.17-.3-.46-.36-.78-.35-.17-.28.3-.12.23-.34-.26-1.63-1.69-.64-2.52-1.11,1.06.03,1.95-.54,2.94-.62.35-.03.45-.41.36-.82-.42-1.84-2.35-2.75-4.06-1.88-.44.25-.63.67-.77,1.12-.2.63-.65.55-1.12.4h0c.12,1.23-1.64.92-1.67,2.03-1.34.53-1.88,2.11-3.32,2.51-.88.25-1.26,1.3-2.21,1.45Z"/>
  <path class="cls-35" d="m108.92,97.21c2.19-.84,2.78,1.04,3.78,2.23-.34.35-.78.39-1.13.13-.61-.46-.95-.47-1.1.38-.05.27-.31.55-.52.08-.21-.47-.63-.46-.76-.15-.15.39-.19,1.01.49,1.11.61.09,1.24.04,1.83.16.46.09.45.43.13.75h0c.22.31.54.34.88.3.8-.68,2.17-.12,2.77-1.25,1.31-.32.97-1.31.89-2.2-.02-.17-.05-.35-.07-.52-.08-.65.62-1.08.5-1.75-.19-.61-.62-.98-1.21-1.17-1.59.8-3.21.84-4.85.17-.07-.06-.14-.11-.21-.16-.73.43-2.13.35-1.44,1.88Z"/>
  <path class="cls-27" d="m109.33,90.05c.77,1.3,1.24,2.63.46,4.11.01.48.35.8.57,1.17h0c2.19.51,2.17.49,1.85-1.59-.17-1.06.39-1.98,1.03-2.96.79.37.72,1.45,1.52,1.62,1.4,0,2.02-.92,2.12-2.08.1-1.12-1.03-1.33-1.81-1.7-1.58-.75-3.17-1.49-4.75,0-.02.06-.06.14-.04.19.4.96-.1,1.24-.94,1.26Z"/>
  <path class="cls-77" d="m107.03,98.73c-.04-.05-.09-.16-.11-.15-.13.05-.09.11.12.14h0Z"/>
  <path class="cls-141" d="m102.65,100.58c.04.05.1.16.11.15.13-.05.09-.11-.11-.15h0Z"/>
  <path class="cls-141" d="m101.1,101.62c.05-.04.16-.1.15-.11-.05-.13-.11-.09-.15.12h0Z"/>
  <path class="cls-61" d="m108.22,123.02c-.4-.83-1.25-.67-1.89-.72-.23-.74.69-.44.62-.96-.38-.38-.92-.32-1.36-.37-.63-.07-1.26.72-1.04.96,1.08,1.19-.14,2.49.29,3.68,1.54-.77,1.55-.79,1.59-2.67.61-.41,1.19.2,1.79.07h0Z"/>
  <path class="cls-104" d="m107.37,120.14c-.04-.28-.08-.55-.11-.83-.29.1-.7.15-.56.59.09.26.42.24.67.23Z"/>
  <path class="cls-54" d="m103.16,129.54c.26-.18.24-.32-.06-.41.02.14.04.28.06.41Z"/>
  <path class="cls-54" d="m102.8,130.01c.12-.16.24-.31.36-.47-.12.16-.24.31-.36.47Z"/>
  <path class="cls-55" d="m125.96,70.5c-.02-.12,0-.24.03-.36.44-.35.39-.92.6-1.37h0c.79-.74.74-1.75.85-2.71,1.27-4.08,2.54-8.17,3.81-12.25.33-.36.19-.76.1-1.15-.47-.54-1.01-1-1.7-1.24-1.16.51-.98,1.7-1.29,2.63-.49,1.49-.73,3.06-1.15,4.57-.15.45-.21.92-.33,1.37-.06.17-.11.35-.15.53-.24.88-.36,1.78-.7,2.63-.07.18-.12.36-.17.54-.85,2.57-1.62,5.15-2.33,7.76-.59,1.43-.98,2.92-1.39,4.41-.1.39-.18.79-.18,1.19.02.21.08.41.18.59.47.45.92.42,1.34-.07l.11.03c.86-1.78,1.24-3.71,1.78-5.6.15-.52.23-1.06.58-1.5Z"/>
  <path class="cls-106" d="m127.44,66.06c-.49.84-.83,1.72-.85,2.71,1.7-.53,1.75-.64.96-2.23-.04-.16-.08-.31-.12-.47Z"/>
  <path class="cls-80" d="m131.17,52.59c.03.41.06.81.08,1.22.62-.45.7-1,.34-1.65,0,0-.08-.04-.08-.04-.16-.13-.32-.12-.48,0-.08.19-.04.34.14.46Z"/>
  <path class="cls-29" d="m123.19,140.73c.18-.65,1.11-1.11.2-2.01-.54-.53.69-1.11.5-1.84-.34-.14-.45-.44-.51-.78h0c-.3.14-.56.33-.93.29-.59-.08-.63.33-.61.77h0c-.61.78-1.1,1.58-.5,2.59h0c.15.11.3.22.44.33l.03.03c.41.3.61,1.01,1.34.67l.04-.03Z"/>
  <path class="cls-17" d="m125.06,126.61c-.24.31-.48.63-.72.94.7-.03,1.45.39,2.07-.27.31-.65-.18-.9-.58-1.19-.26.01-.48.12-.66.3-.04.07-.07.15-.11.22Z"/>
  <path class="cls-109" d="m124.28,136.83c.06.09.11.2.14.3.12.17.23.16.35,0h-.01c.18-.73.45-1.45.51-2.18.06-.76-.42-.43-.77-.23-.02.13-.04.26-.07.39-.09.3,0,.63-.18.91.01.13,0,.25-.03.38-.09.16-.08.31.06.44Z"/>
  <path class="cls-47" d="m124.25,136.01c.26-.26.27-.58.18-.91-.26.26-.26.58-.18.91Z"/>
  <path class="cls-29" d="m123.38,136.09c.05-.04.16-.1.15-.11-.05-.13-.11-.09-.15.12h0Z"/>
  <path class="cls-47" d="m124.28,136.83c-.02-.15-.04-.29-.06-.44-.1.15-.19.31-.29.46.12,0,.23-.01.35-.02Z"/>
  <path class="cls-51" d="m127.49,59.01c.87-1.14.66-2.58,1.09-3.85.41-1.21.44-2.54,1.16-3.65.62-.59.84-1.31.71-2.14-.5-.69-1.08-.71-1.69-.16-.4.36-.79.72-1.37.75-.18,0-.36.03-.54.07-.44.2-.72.5-.66,1.02.14.22.35.3.59.3.15.12.17-.39.35-.07-.11.09-.23.16-.36.22-.31.12-.58.27-.78.55-.2.56-.09,1.11.2,1.58.98,1.59.21,2.39-1.26,2.91-.37.14-.56.42-.64.8-.06.33-.07.67-.13,1-.04.16-.07.32-.1.48-.05.33-.11.66-.2.98-.05.17-.09.35-.13.52-.02,1.03-.79,1.94-.45,3.02.04.13.08.27.12.41.94.17,3.36-1.29,3.03-1.88-.86-1.54.38-2.02,1.04-2.84Z"/>
  <path class="cls-28" d="m127.49,59.01c-.37.17-.75.34-1.12.51-1.41.65-1.45,1.15-.17,2.23-.22.47-.57.07-.84.14-1.05.25-1.11.54-.27,1.61-.59.08-1.13.15-1.67.22.03.67.9,1.41-.36,1.97-.67.3-.29,1.4-.8,1.98-.37.35-.46.8-.52,1.28-.12.57.61,1.22-.19,1.72-.4.45-.62.98-.73,1.56-.06.51,0,.99.33,1.41.57.4,1.14.23,1.28-.34.23-.92,1.02-1.15,1.59-1.66.63-2.39,1.24-4.78,2.18-7.07.17-.4.13-.81.08-1.22h0c.68-.91.75-1.98.87-3.05-.1-.09-.22-.13-.35-.12,0,0-.14.1-.14.1,0,0-.04-.17-.03-.17.18.08.38.07.53.2.46-.34.25-.84.33-1.28Z"/>
  <path class="cls-2" d="m121.17,72.03c.21-.45.42-.9.64-1.35.56-.5-.28-1.18.21-1.69.36-.39.28-.86.24-1.32-.6-.62-.64-1.32-.3-2.08h0c-.99-.41-1.96-.03-2.93-.06-.19.8.37,1.12.58,1.59.08.18.23.37.22.55-.06,1.28-.06,1.3.62,1.66-.49,1.09-1.44-.29-2.15.43-.49.5-.4.32.08.63.41.26.61.97.04,1.4-.46.35-.39.65-.13,1.04.16.12.34.22.54.27.41.07.82.02,1.22-.08.56-.11.84-.55,1.11-.99Z"/>
  <path class="cls-34" d="m118.7,72.78c-.14.02-.28.04-.41.06-.31.03-.98.58-1.17.91-.05.09-.25.09-.38.13-.46.53-1.34.82-1.02,1.8v.02c.95,1.39,2.12,2.17,3.85,1.42.21-.16.34-.39.45-.62.15-.3.39-.49.71-.58.33-.1.65-.22.91-.47.41-.68.07-1.23-.29-1.77-.06-.55-.12-1.09-.17-1.64-.41.19-.81.38-1.22.57-.14.11-.17.24-.09.4.03.12.46.03.16.32-.09.12-.13.25-.12.39-.25-.07.04-.27-.09-.37-.18-.57-.78-.31-1.11-.57Z"/>
  <path class="cls-43" d="m123.3,63.32c.4-1.13,1.05-2.2.83-3.48-.59-.85-1.81-1.44-1.1-2.83.15-.29,0-.7-.4-.84-.38-.14-.63.08-.89.34-.45.47-.6,1.06-.79,1.64-.48.91-.89,1.8.33,2.48-.02.3-.27.71.27.78.45.06.97-.16,1.28.41-.34.95-1.8.69-1.99,1.81h0c.68.44,1.37.79,2.12.14.11-.15.22-.31.32-.46Z"/>
  <path class="cls-2" d="m122.97,63.78c-.71.04-1.4-.36-2.12-.14.05.35-.7.92.29,1.01.34.03.67.13,1,.22,1.14.29.84-.5.82-1.08Z"/>
  <path class="cls-140" d="m115.72,75.67c.34-.6.68-1.2,1.02-1.8-.16-.12-.31-.24-.47-.36-.15-.13-.29-.12-.4.05h0c0,.34-.04.64-.38.84-1.03.61-.5.96.23,1.26Z"/>
  <path class="cls-34" d="m115.87,73.57l.2-.03.2-.02c.03-.1.07-.2.1-.3-.32-.1-.42.12-.5.35Z"/>
  <path class="cls-2" d="m121.96,65.6c.04.05.1.16.11.15.13-.05.09-.11-.12-.15h0Z"/>
  <path class="cls-114" d="m110.21,106.72c-.8.09-1.32-.71-2.31-.52-.62.12-1.16-1.28-1.53-2.14-.05-.11-.13-.21-.2-.32-1.03.39-.29,1.71-1.26,2.16,1.81.49,3.35,1.26,4.67,2.41.44.39.01.54-.33.63-.23.31-.16.58.11.83.16.12.31.23.47.35.32.1.26.25.06.42-.14.02-.27.04-.41.05-.53.59-1.19.29-1.81.28-.09,0-.18,0-.27-.01-.41.14-.87.32-.46.83.33.41.8.72,1.23,1.08-.67,1.42-.64,1.55.67,2.54,1.37-.25,1.69-1.43,2.14-2.59.78.17.39,1.22,1.08,1.32.96.45,1.36-.04,1.53-.91.08-.81-.56-1.77.47-2.4.14-.13.25-.27.35-.43.67-1.17.54-2.13-.73-2.8h0c-.4-.56-.96-.91-1.58-1.18-.18-.08-.37-.12-.57-.15-.52-.03-.99.08-1.31.53Z"/>
  <path class="cls-33" d="m102.52,109.02c-.8-.38-1.21.32-1.58.73-.24.26.27.2.47.25.15.12.28.1.39-.06.24-.31.48-.62.72-.93Z"/>
  <path class="cls-33" d="m103.46,109.71c.11-.23.21-.47.33-.7.15-.29.12-.48-.22-.59-.55-.19-.7.05-.65.55.05.34.17.63.53.74Z"/>
  <path class="cls-114" d="m107.69,110c-.43-.08-.86-.16-1.3-.25.02.64.68.73.98,1.12h.02c.7-.08.63-.44.3-.87Z"/>
  <path class="cls-33" d="m104.29,109.62c-.27.03-.55.06-.82.09.32.4.6.34.82-.09Z"/>
  <path class="cls-114" d="m106.34,109.34c-.28.04-.55.07-.83.11.22.3.54.34.88.3-.02-.14-.04-.28-.05-.42h0Z"/>
  <path class="cls-13" d="m128.39,38.22c-.31.23-.33.56-.31.9-.2,2.2-1.15,4.25-1.26,6.47.07.07.13.14.2.21,1.1.5,1.63-.09,1.58-1.06-.05-.9.23-1.42.99-1.78.17-.09.3-.22.41-.38.16-.61-.02-1.34.66-1.75.14-.13.26-.27.36-.44.1-1.84-.13-2.03-2.63-2.17Z"/>
  <path class="cls-69" d="m126.44,45.65c-.21.5-.26,1.09-.84,1.36-.34.15-.63.39-.49.79.43,1.21-.2,1.33-1.13,1.14-.76-.16-.9-.16-.34.57.49.63-.96.77-.56,1.65.46.12,1.42-1.84,1.59.21-.3.61,0,.99.5,1.28.22.05.41,0,.59-.13.09-.51.5-.94.36-1.5.77-1.73,1.9-3.41.77-5.41h-.08c-.13.02-.25.04-.38.06Z"/>
  <path class="cls-31" d="m126.03,39.39c-.2-.18-.41-.35-.6-.54-.25-.25-.56-.56-.87-.33-.51.37-.47.9-.21,1.47.2.44.33.77.83.3.16-.15.34-.16.53,0,.26.21.46.87.88.2.42-.64-.35-.75-.57-1.1h0Z"/>
  <path class="cls-60" d="m123.17,40.55c.15.36.2.79.65.92.05.01.22-.15.21-.21-.09-.46-.51-.56-.86-.73h0Z"/>
  <path class="cls-31" d="m126.02,39.39c.17-.07.35-.15.52-.22-.36-.35-.39.05-.52.22h0Z"/>
  <path class="cls-122" d="m115.97,127.43c.4-.3.57-.7.66-1.19.17-.84.65-1.51,1.35-2.02-.46.07-.86-.15-1.28-.29-.69.94-.83,2.09-1.24,3.14.15.15.23.39.51.37Z"/>
  <path class="cls-93" d="m116.33,121.05c-.13.04-.29.04-.4.11-.29.21-.81.2-.78.75.95-.16.38,1.13,1.12,1.17.3.02.53-.11.72-.34.19-.23.29-.51.05-.74-.3-.28-.66-.5-.72-.96h0Z"/>
  <path class="cls-97" d="m128.39,38.22c.24.36.52.69,1,.61,1.32-.2,1.5.57,1.41,1.59.94.91,1.68.53,2.37-.34.88-1.26.92-2.76,1.21-4.19.05-.26.09-.53.13-.8.04-.17.06-.34.09-.51.04-.25.08-.51.13-.76.04-.17.05-.35.05-.52-.02-.28-.11-.53-.26-.76-.3-.35-.57-.77-1.14-.53-.39.18-.32.79-.78.88-.11.02-.21-.16-.21-.32-.02-.61.51-.55.87-.7.56-.25,1.17-.51,1.22-1.21.08-1.11.84-1.78,1.46-2.56.07-.19.05-.37-.07-.54-.77,0-1.33-.79-2.15-.61-.55.55-.75,1.31-1.17,1.94-.08,1.56-.9.46-1.4.48-.3-.12-.03-.27.03-.22.51.48.97.27,1.36-.22.43-.59.01-1.67,1.09-1.89,1.02-.76,1.66.85,2.63.42,1.14-2.91,2-5.88,2.06-9.03-.32-.52-.41-1.31-1.32-1.16-.26.78-.87,1.23-1.58.91-.8-.36-1.25-1.21-1.57-2.02-.05-.12,0-.84.46-1.01.66-.25,1.14.06,1.56,1.17-.01-.97,0-1.38-.02-1.79-.02-.32.74-.63.02-.97-.51-.24-1-.23-1.21.34-.35.91-.69.11-1.04.05-1.26,2.44-1.9,5.1-2.63,7.72-.22.79-.4,1.6-.66,2.39,1.01.75,1.21.75,3.08-.13.24-.35.36-.75.35-1.16-.03-.88-.04-.87.45-1.17.24-.14.38-.39.45-.65.06-.17-.15-.35,0-.53.03.11.06.24.1.38.6,1.61-1.2,2.12-1.49,3.32q-1.25,1.65-3.1.6c-.3.15-.32.47-.47.71-.03,1.46-.21,2.9-.69,4.29-.73.4-.71,1.07-.62,1.76.02.14.04.27.05.41,1.05,2.1.65,4.2,0,6.31Z"/>
  <path class="cls-19" d="m135.32,8.26c-.35.23.07,1-.66.98-.08.56-.16,1.12-.24,1.68,1.15.31,1.57,1.53,2.55,2.05.18,0,.34-.05.5-.14.37-.28.26-.75.43-1.11-.02-.14-.04-.27-.06-.41,1.08-1.07.98-2.18-.05-3.17-.8-.77-1.69-.83-2.46.13Z"/>
  <path class="cls-68" d="m133.24,24.12c-.64-.41-1.28-.05-1.91.04-.37.05-.73.37-1.05-.08-.13.02-.27.04-.4.06h0c-.22.31-.15.58.12.83,1.36.23.09,1.23.69,1.84.66-1.04,3.08-.31,2.55-2.7h0Z"/>
  <path class="cls-82" d="m137.22,12.67c-.19-.04-.53-.09-.53-.13-.02-1.59-1.01-1.79-2.27-1.61,0,.13.02.26.04.39,0,0,.06.17.06.17,0,0,.17-.02.17-.02,0,0-.14.11-.14.11s-.01.18-.01.18c1.28,1.31,1.98,1.59,3.12,1.26-.11-.15-.25-.27-.43-.34Z"/>
  <path class="cls-82" d="m133.53,13.55q.6-.11.33-.46c-.11.15-.22.31-.33.46Z"/>
  <path class="cls-82" d="m134.12,11.79c.14-.02.27-.03.41-.05h0c.09-.16.07-.29-.05-.41l-.03-.02c-.11.16-.22.32-.33.48Z"/>
  <path class="cls-36" d="m134.41,32.8c.03.27.06.55.09.82.42.71,1.16.49,1.78.62l.18-.04.18-.02c1.22-3.09,1.95-6.32,2.78-9.52.59-2.3.71-4.63.97-6.95,1.14-1.48.55-3.02.1-4.51-.24-.77-.77-.62-1.17-.02l-.04.02c-.53,1.73-1.57,3.33-1.31,5.25-.48,3.1-1.2,6.15-2.14,9.14h0c.03.13.02.26-.01.39-1.05,1.44-1.49,3.06-1.41,4.83Z"/>
  <path class="cls-30" d="m139.32,13.17c.38-.13.81-.38.91.29.2,1.41.43,2.81.16,4.24.77-.16,1.12-.64,1.08-1.42-.04-.13-.07-.27-.08-.4.03-.56.27-1.15-.2-1.66-.03-.27-.06-.55-.09-.82.17-.72.34-1.45.5-2.17-.77.04-1.12.94-2.02.87-.43-.03-.25.67-.26,1.07Z"/>
  <path class="cls-131" d="m120.96,58.16c.52-.55.83-1.33,1.68-1.79-.67,2.54-.65,2.58,1.49,3.47h0c.13-.43-.09-.91.23-1.3h0c-.97-.68.31-.55.31-.88.01-.33.05-.65.33-.87.11-.17.15-.35.1-.54-.25-.65-.55-1.26-1.34-1.4-.1,0-.19.02-.29.03-.28.02-.52-.09-.78-.19-1.3-.46-1.52-.32-1.43,1.02.04.53.07.94-.47,1.2.06.41.11.83.17,1.24Z"/>
  <path class="cls-81" d="m125.27,52.53c-.23-.37-.55-.7-.59-1.17-.43.49-.73,1.19-1.62.83-.45-.18-.88.08-.92.53-.06.6.5.18.73.32.71.44.42,1.22.61,1.84h0c1-.48,1.59-1.27,1.8-2.35Z"/>
  <path class="cls-131" d="m120.16,55.32c.05-.04.16-.1.15-.12-.05-.14-.11-.09-.15.12h0Z"/>
  <path class="cls-82" d="m135.32,8.26c.77-.49,1.47-.46,2.19.17.97.85,1,1.38.02,2.42-.56.6.06.4.3.45.72-.65,1.59-.93,2.6-.83-.3-.93-1.2-.88-1.62-1.42-.21-.53-.42-1.07-.63-1.6h0c-.7-.28-1.41-.25-2.13-.13-.53.09-.78.4-.73.94Z"/>
  <path class="cls-16" d="m137.97,18.44c.61-1.71,1.11-3.44,1.31-5.25-.26.22-.74.43-.75.67-.07,1.37-1.29,2.19-1.57,3.45.56.18.43.97,1.01,1.14Z"/>
  <path class="cls-37" d="m137.22,12.67c.14.11.29.23.43.34.3.04.63.3.9-.04.28-.35-.06-.59-.2-.86-.48-.21-.6.18-.78.47-.12.03-.24.06-.36.09Z"/>
  <path class="cls-82" d="m137.57,12.57c.26-.16.52-.32.78-.47.32-.7-.27-.31-.46-.39-.71.07-.58.44-.31.86Z"/>
  <path class="cls-59" d="m128.31,119.44c-.31-.34-.71-.4-1.05-.15-.5.37-.98.26-1.48.07.04.74.21,1.43.68,2.02-.37.53-.82,1.06-.18,1.7h0c.16.18.3.17.41-.05.84-.15,1.02-1.32,1.99-1.34-.38-.09-.75-.17-1.21-.28.1-.76,1.08-1.13.85-1.97Z"/>
  <path class="cls-88" d="m126.69,123.03c-.14.01-.27.03-.41.05-.04.13-.1.26-.13.39-.28,1.57-1.12,2.41-2.8,2.18.57.32,1.14.65,1.71.97h0c.3-.26.55-.57.72-.93.36-.15,1.06.09.87-.71-.15-.66.29-1.29.04-1.94Z"/>
  <path class="cls-59" d="m128.82,120.98c.66-.25.87-.63.66-1.44-.39.45-.65.8-.66,1.44Z"/>
  <path class="cls-136" d="m125.78,125.68c-.38.2-.62.52-.72.93.34-.05.64-.16.77-.52-.02-.14-.04-.27-.05-.41Z"/>
  <path class="cls-64" d="m113.11,137.9c-.02-.14-.01-.27.01-.41.52-1.03.85-2.12,1.04-3.26.07-.42.09-.81-.38-1.02-.21.48-.43.96-.64,1.44.1,1.46-.89,2.71-.83,4.16.29.25.47.16.51-.2.03-.27.05-.53.29-.71Z"/>
  <path class="cls-15" d="m115.97,127.43c-.17-.12-.34-.24-.51-.37-.27,1.16-.75,2.28-.79,3.5.02.11.03.22.04.34.88-.99.75-2.35,1.26-3.47Z"/>
  <path class="cls-98" d="m114.01,132.72c.41-.24.55-.5.04-.79-.01.26-.03.53-.04.79Z"/>
  <path class="cls-5" d="m98.93,113.69c-.41-1.21-1.35.24-1.87-.37-.41-.48.25-1.45-.74-1.67-.2-.04-.41-.03-.61-.05-.12.15-.18.32-.2.5.13.66.01,1.2-.67,1.5-.91,1.1-1.05,2.52-1.59,3.77-.06.29-.06.59,0,.88.72.75.79,1.46-.14,2.11,0,.14.02.27.04.41.35.16.48.46.53.81.11.69.5.46.87.26-.03-.57-.3-1.26.76-1.18.48.04.87-.29,1.09-.75-.07-.91.68-1.66.28-2.73-.2-.55.85-1.21,1.51-1.46.74-.29.42-.73.43-1.15-.29-.18-.72-.25-.51-.76.27-.04.54-.08.81-.12Z"/>
  <path class="cls-77" d="m98.12,113.81c-.27.17-.64.4-.41.72.11.16.6.04.92.04-.17-.25-.34-.51-.51-.76Z"/>
  <path class="cls-104" d="m101.8,109.95c-.13.02-.26.04-.4.06,0,.14.02.27.04.41.12-.16.23-.31.35-.47Z"/>
  <path class="cls-90" d="m128.33,31.5c.5-.48.3-1.21.62-1.76-.37-.06-.8-.31-1.02.22-.24.59-.23,1.15.4,1.54Z"/>
  <path class="cls-6" d="m129.99,24.97c-.04-.28-.08-.55-.12-.83-.53-.12-1.01-.21-.52.58.13.22.19.48.28.73.12-.16.23-.32.35-.48Z"/>
  <path class="cls-112" d="m113.1,112.65c.21.9-.14,1.37-1.07,1.41-.12.4-.28.85.26,1.05.64.23.95.78,1.33,1.26.15.12.29.24.44.36.23.22-.27.94.53.77-.07-1.12-.26-2.18.6-3.23.61-.75-.27-1.32-.85-1.79-.08-.06-.16-.11-.23-.17-.41-.1-.75-.03-1,.34Z"/>
  <path class="cls-99" d="m136.28,34.23c-.11-.41-.25-.81-.8-.57-.35.15-.65.03-.98-.04h0c-.19.26-.07.61-.25.87-.04.13-.04.25-.01.38-.09.17-.18.33-.27.49-.39,1.46-.32,3.04-1.14,4.39-.87,2.06-1.48,4.21-2.03,6.37-.22,1.06-.8,2.06-.53,3.2-.15.73-.57,1.4-.53,2.18.15.79.62,1.15,1.42,1.08.01-.11,0-.22-.03-.32.08-.2.21-.38.34-.56.79-2.59,1.56-5.18,2.14-7.83.39-1.79,1.02-3.54,1.54-5.31.27-.7-.14-1.57.54-2.16h0c.22-.26.08-.64.34-.87h0c.29-.39-.12-.91.23-1.3h0Z"/>
  <path class="cls-36" d="m135.71,36.41c-1.69.35-.52,1.4-.54,2.16.48-.65.45-1.42.54-2.16Z"/>
  <path class="cls-36" d="m136.28,34.23c-.46.37-.3.85-.23,1.31.42-.37.27-.85.23-1.31Z"/>
  <path class="cls-36" d="m136.05,35.53c-.33.2-.37.52-.34.86.3-.21.37-.52.34-.86Z"/>
  <path class="cls-55" d="m131.48,51.71c-.22.12-.33.3-.34.55.12-.05.25-.1.37-.14-.01-.14-.03-.28-.04-.41Z"/>
  <path class="cls-54" d="m102.85,130.42c.16.1.31.24.48.28.18.05.39.01.43-.24,0-.02-.22-.1-.33-.1-.19,0-.38.04-.58.06h0Z"/>
  <path class="cls-121" d="m104.28,128.55c.04.05.1.16.11.15.13-.05.09-.11-.12-.15h0Z"/>
  <path class="cls-12" d="m110.32,88.6c.54-.07,1.1-.09,1.58-.39.24-.15.56-.27.77-.09.92.78,2.13.88,3.17,1.38.8.38.78.73.41,1.41-.39.72-.9,1.18-1.7,1.33,0,.09-.01.19-.02.28,1.67,1.19,2.23-.45,3.14-1.21,1.44-1.01.73-2.59,1.03-3.9.03-.17.03-.35,0-.52-.35-.5.37-.6.36-.98-.26-1.31-.21-2.74-1.44-3.66-.9-.37-1.67-.27-2.19.65.38,1.56-.8,2.28-1.68,3.17h0c-.66.12-.89,1.85-1.98.47-.23-.29-.64.21-.67.49-.05.65-.45,1.09-.78,1.58Z"/>
  <path class="cls-27" d="m115.43,82.88c.68-.16,1.3-.76,2.06-.28.94-1.18,1.68-2.47,2.28-3.86.3-.69.32-1.28-.12-1.89-1.56.45-2.75-.34-3.92-1.17.13.66-.47.87-.8,1.11.59.5,1.21.86,1.59,1.4.54.75.26,1.26-.71,1.26h0c-.45-.18-1.19-1.38-1.11.35.02.34-.73.3-.85.76.47.34.98.08,1.52.1-.39.2-.85.01-1.16.32-.13.12-.11.36-.32.41-.11.02-.07,0,.12-.06.04-.01.06-.11.09-.17.04-.25.02-.47-.24-.6-.26.18-.52.35-.77.53,0,0-.15.06-.15.06-.09.07-.15.15-.2.25,0,0-.01.16-.01.16-.1.29-.2.59-.31.88h0c1.08-.41,1.92.85,3,.44Z"/>
  <path class="cls-27" d="m113.09,81.09c-.21-.29-.49-.35-.82-.23,0,.33.13.58.46.7h0c.1-.17.22-.33.36-.47h0Z"/>
  <path class="cls-27" d="m112.48,82.85c-.02-.14-.03-.27-.05-.41h0c-.26.17-.24.31.06.41h0Z"/>
  <path class="cls-27" d="m112.48,82.85c.04.05.1.16.11.15.13-.05.09-.11-.11-.15h0Z"/>
  <path class="cls-88" d="m126.28,123.08c.06-.57.12-1.13.18-1.7-.14.02-.27.03-.41.05-.61.1-1.41.15-1.36.93.06.96.91.8,1.59.72Z"/>
  <path class="cls-32" d="m125.01,119.89c0,.13,0,.27.01.4.02.23-.21.62.16.64.35.01.32-.38.22-.62-.07-.16-.26-.28-.4-.41h0Z"/>
  <path class="cls-80" d="m135.81,40.18c.06-.04.16-.1.16-.12-.05-.14-.11-.1-.15.12h0Z"/>
  <path class="cls-80" d="m136.33,40.95c.04.05.09.15.11.15.13-.04.08-.1-.12-.14h0Z"/>
  <path class="cls-71" d="m123.66,100.31c-1.03-.43-1.92.23-2.88.38-.44.2-.89.11-1.35.03-1.1.3-1.24,1.09-1.11,2.06.13,1.02.88.81,1.53.85.36.02.58.33.85.53.15.12.3.23.46.34.37.19.77,1.15,1.03.55.5-1.14,1.7-.78,2.3-1.48h0c.05-.51-1.27-.72-.18-1.54.55-.42.25-1.39-.67-1.7Z"/>
  <path class="cls-79" d="m123.66,100.31c1.01,1.14.27,1.95-.58,2.71.41.47,1.11-.02,1.43.52.38-.22.71-.54,1.18-.57-.08-.54-.17-1.08-.25-1.63-.47-.26-.47-.74-.58-1.18-.28-.11-.56-.23-.84-.34-.12.16-.23.32-.35.48Z"/>
  <path class="cls-85" d="m120.13,99.08q1.62-1.2.5-2.58c-.1-.02-.19-.04-.29-.06-.76.38-1.17,1-1.3,1.83.13.41.43.64.8.79.1,0,.19.02.29.02Z"/>
  <path class="cls-85" d="m121.09,93.89c-.37.32-.78.37-1.22.18-.08.06-.16.12-.25.17-.49,1.1.24,1.68.98,2.24h.02c.14-.22.24-.51.43-.66.84-.65.48-1.28.04-1.93Z"/>
  <path class="cls-62" d="m119.5,100.86c.11.32.21.68.64.69.57,0,.59-.45.64-.86-.22-.54-.44-1.07-.66-1.61h0c-1.05.3-.9,1.02-.62,1.78Z"/>
  <path class="cls-85" d="m120.54,92.72c-.4.33-.36.6.11.81-.04-.27-.07-.54-.11-.81Z"/>
  <path class="cls-85" d="m121.69,92.5c-.11.05-.22.1-.33.12.22.25.33.21.33-.12Z"/>
  <path class="cls-85" d="m121.02,93.52c.03.12.06.24.07.37.28-.18.26-.3-.07-.37Z"/>
  <path class="cls-23" d="m138.18,7.46c.18-.07.35-.14.53-.21-.34-.34-.4,0-.53.21h0Z"/>
  <path class="cls-76" d="m112.18,140.54c.44-.35-.03-.57-.11-.85-.31.33-.33.62.11.85Z"/>
  <path class="cls-106" d="m126.59,68.77c-.45.35-.51.86-.61,1.37,1.16-.03.79-.74.61-1.37Z"/>
  <path class="cls-86" d="m127.69,70.72c-.12-.16-.42-.34-.45-.24-.13.49.29.15.45.24h0Z"/>
  <path class="cls-117" d="m120.72,88.04c-.18-.2-.36-.39-.53-.59,1.34-.73,1.29-2.34,2.13-3.39.01-.2-.06-.5.05-.59.78-.65.47-1.29.03-1.95-.13-.09-.27-.12-.42-.11-.5-.04-.48-.53-.72-.81-.13-.15-.28-.22-.48-.23-1.09,2.12-1.72,4.38-2.03,6.74-.24.8-.45,1.64.32,2.26.61.49.96-.12,1.34-.47,0-.12,0-.24.01-.37.1-.17.2-.33.33-.48l-.02-.02Z"/>
  <path class="cls-22" d="m123.49,77.57c-.44.08-.89.2-1.24-.24-.64-.09-.62.48-.82.83-.07.15-.14.31-.21.46-.09.14-.16.29-.24.44-.12.22-.21.45-.24.7,0,.17.07.32.19.44.3.22.28.58.4.88.17.24.38.31.65.18.27-.25.02-.68.31-.93.76-.76.65-1.9,1.18-2.76Z"/>
  <path class="cls-53" d="m122.31,80.32c-.37.17-.38.51-.36.85-.08.11-.1.2-.06.29.05.09.09.13.12.13.13-.02.27-.04.4-.06.57-.45.04-.81-.1-1.21Z"/>
  <path class="cls-128" d="m119.5,100.86c.35-.54.1-1.3.62-1.78-.21-.38-.53-.61-.94-.72-.39-1.07-1.03-1.87-2.25-2.03-.2.03-.36.13-.49.29-.26.28-.53.55-.78.84-.3.36-.3.69.16.94h0c0,.46-.06.93.04,1.37.13.57-.18.7-.59.81.22,1.84-.8,4.05,1.54,5.27.25,1.06.79.54,1.29.24.12-.07.26-.21.36-.18,1.05.28,1.84-.22,2.46-.94.72.5.23,1.09.35,1.63.72-.14,1.44-.15,1.39-1.13.18-.64.31-1.38,1.18-.57.22-.45.44-.9.66-1.35-.88.18-1.8.06-2.44,1.07-.29.46-.38-.66-.87-.63h0c-.16-.12-.4-.22-.47-.38-.43-1-.91-1.54-1.62-.06-.56-1.19-.69-2.06.39-2.69Z"/>
  <path class="cls-128" d="m123.53,105.79c-.37,1.01.39,1.24,1.06,1.53-.16-.64-.45-1.2-1.06-1.53Z"/>
  <path class="cls-128" d="m123.96,105.05c.12.03.28.13.35.08.16-.1.12-.22-.08-.25-.13-.01-.26,0-.39,0,.04.05.08.1.12.15Z"/>
  <path class="cls-129" d="m93.54,117.37c1.03-.97.75-2.54,1.61-3.59.71-.43.45-1.17.57-1.79-.02-.13-.02-.26-.02-.38-.15-.7.46-1.15.58-1.77-.2-.22-.23-.48-.18-.77.07-.4.24-.88-.38-.98-.5-.08-.75.31-.9.7-.18.45-.24.94-.56,1.33-.95.93-1.36,2.2-2.1,3.26.18,1.25-.82,2.5.02,3.78.19.28-.05.67-.42.81-.38.14-.82.18-1.02.61.54.28.57.7.34,1.21-.13.27-.51.55-.05.86.66-.23,1.32-.47,1.98-.7.07-.11.1-.23.08-.35-.02-.12-.04-.18-.06-.18-.88-.94.29-1.38.51-2.05Z"/>
  <path class="cls-65" d="m92.95,119.56c.02.13.04.26.06.38.03.14.06.29.1.43.69,0,1.18-.37,1.42-.97.33-.82-1.18-.38-.9-1.22-.93.11-.83.73-.68,1.38Z"/>
  <path class="cls-85" d="m120.41,88.9c-.38.04-.71.51-1.11.21-.33-.25-.43-.63-.34-1.08.06-.32,0-.66,0-1-.17-.13-.32-.11-.45.05-.42.48-.71,1-.43,1.65.43.99-.02,1.68-.73,2.29,0,.81.1,1.63.43,2.35.41.91,1.1,1.35,2.09.68h0c-.66-.74-.84-1.51-.3-2.45.48-.82.67-1.77.84-2.71Z"/>
  <path class="cls-85" d="m120.42,91.89c.23,0,.47.24.67-.01.03-.04-.04-.25-.11-.29-.3-.13-.45.06-.56.31h0Z"/>
  <path class="cls-85" d="m120.75,88.06c-.11.16-.22.32-.33.48.11-.16.22-.32.33-.48Z"/>
  <path class="cls-85" d="m120.43,91.89c-.05.04-.16.09-.15.11.05.13.11.09.14-.12h0Z"/>
  <path class="cls-39" d="m118.92,61.8c0,.24-.28.54.05.69.27.12.52-.14.53-.4,0-.39-.34-.27-.58-.29h0Z"/>
  <path class="cls-39" d="m118.45,61.44c.16.12.31.24.47.36h0c-.16-.12-.31-.24-.47-.36h0Z"/>
  <path class="cls-49" d="m122.81,118.34s-.05-.14-.07-.14c-.06,0-.11.05-.17.08.02.05.05.14.07.14.06,0,.11-.05.17-.08Z"/>
  <path class="cls-87" d="m123.16,140.76c-.45-.21-.71-.82-1.34-.67-.04.12-.07.25-.12.37-.12.31-.25.66,0,.92.3.31.59-.09.89-.14.27-.05.46-.23.57-.49Z"/>
  <path class="cls-92" d="m121.78,140.07c-.15-.11-.29-.22-.44-.33.15.11.29.22.44.33Z"/>
  <path class="cls-42" d="m94.27,110.12c1.04-.11.46-1.42,1.41-1.75.44.34-.82,1.62.6,1.47.39-1.15.93-2.23,1.71-3.17-.57-.47-.86-1.11-.88-2.06-.81.65-1.35.99-1.07,1.97.22.76-.45.61-.91.5-.05,1.08-1.05,1.9-.86,3.05Z"/>
  <path class="cls-72" d="m109.26,93.38c.05-.04.16-.1.15-.11-.05-.13-.11-.09-.15.11h0Z"/>
  <path class="cls-47" d="m124.76,137.13c-.12.01-.23.01-.35,0,.12.31.24.37.35,0Z"/>
  <path class="cls-126" d="m141.19,14.22c.25.53-.29,1.16.2,1.66.52-.62.45-1.18-.2-1.66Z"/>
  <path class="cls-123" d="m122.32,110.3q2.78-.02,3.11-.84c-.86.8-1.77-.4-2.63.22-.22.16-.46.31-.48.62Z"/>
  <path class="cls-96" d="m120.11,107.43c.03.17.12.23.26.15.06-.03.1-.09.13-.14.09-.17.03-.3-.15-.27-.09.02-.17.17-.25.26Z"/>
  <path class="cls-57" d="m116.82,105.84c-.36-.31-.12-1-.68-1.15-.67-.19-.36-.32,0-.51.11-.06.26-.28.25-.28-.97-.91-.3-2.36-1.1-3.32-1.33-.67-1.16.52-1.24,1.17-.82-.05-.3-1.01-1.04-1-.41.38-.47.91-.45,1.46.02.14.04.28.06.42.09,1.31-.63,2.52-.43,3.84.31.26.65.29,1.01.14.17-.08.22-.32.44-.34-.1.05-.2.11-.25.23-.06.26,0,.48.25.62.56-.13,1.24.04,1.59-.63.22-.42.52-.35.83-.12.26-.17.51-.34.77-.51Z"/>
  <path class="cls-128" d="m113.67,107.52c.03.2,0,.43.1.58.53.82.55.85.42,1.55-.05.26-.08.51-.12.77.46.36.56,1.19,1.39,1.07.91-.36,1.89-.65,1.85-1.92.19-.42-.09-.92.25-1.31-.18-.25-.35-.51-.53-.76h0c-.54-.07-1.14,1.53-1.63-.06-.57.26-1.16.03-1.73.09Z"/>
  <path class="cls-119" d="m117.56,108.25c-1.05.25-.56.8-.25,1.31.82.29,1.02,1.74,2.37,1.05-.31-.48-.64-1.16-1.32-1.23-.84-.09.3-1.38-.8-1.13Z"/>
  <path class="cls-45" d="m117.45,113.74c.45-.45,1.23-.14,1.69-.87-.59-.37-1.22-.75-1.97-1.22.11.83.2,1.46.28,2.09h0Z"/>
  <path class="cls-112" d="m115.46,111.49c-.34-.51-.46-1.32-1.39-1.07h0c-.23.73-.14,1.41.26,2.06h0c.37-.34,1.78.51,1.13-.99Z"/>
  <path class="cls-128" d="m113.51,106.28c-.41.05-.83.11-1.24.16-.16-.11-.29-.09-.41.06.4.71,1.17.75,1.82,1.02l-.05-.42c-.04-.27-.07-.55-.11-.82Z"/>
  <path class="cls-134" d="m117.45,113.75c-.43-.09-.84-.42-1.48-.06.58.32.98.8,1.48.06h0Z"/>
  <path class="cls-128" d="m116.05,106.35c-.08-.24-.07-.62-.45-.49-.2.07-.81.06-.38.61.28-.04.56-.08.83-.12Z"/>
  <path class="cls-128" d="m117.04,107.49c.05-.04.16-.1.15-.11-.05-.13-.11-.09-.15.11h0Z"/>
  <path class="cls-114" d="m111.85,106.5c.14-.02.27-.04.41-.06.57-1.24.83-2.5.33-3.83-.49.25-.14.96-.64,1.22-.42-.17-.29-.71-.69-.95-.66-.4-1.3-.15-1.19.42.21,1.15-.71.7-1.3.98.53.72,1.27,1.19,1.37,2.02.33.23.84.21.96,0,.56-1,.47.28.75.18h0Z"/>
  <path class="cls-18" d="m101.84,106.29c.81.39.98-.53,1.48-.79.43-.22.83-.62.46-1.17-.42-.62-.65.2-1,.18-.71-.04-1.25.48-1.84.63-1.05.27.07,1.01-.47,1.38-.14.1.38.14.58.05.25-.12.32-.7.8-.27Z"/>
  <path class="cls-101" d="m107.69,110c.03.34,0,.66-.3.89.31,1.25,1.42.18,1.99.69.24-.31.09-.64.08-.97-.47-.19-1.01-.24-1.36-.67-.16-.17-.3-.15-.41.06h0Z"/>
  <path class="cls-57" d="m111.85,106.5c-.05-.55-.21-1.04-.57-1.47-.18-.21-.38-.42-.65-.21-.26.19-.21.51-.02.71.85.87-.1.65-.46.79.02.14.04.27.06.41.55-.07,1.1-.15,1.65-.22Z"/>
  <path class="cls-101" d="m109.87,110.55c.62.4.64-.24.86-.51.04-.05-.04-.3-.1-.32-.39-.13-.65.05-.82.41.02.14.04.28.06.42Z"/>
  <path class="cls-101" d="m109.35,109.78c-.04-.28-.07-.55-.11-.83h0c-.31-.2-.58-.16-.83.11.21.37.52.61.94.71Z"/>
  <path class="cls-114" d="m107.69,110c.14-.02.27-.04.41-.06-.04-.2-.04-.42-.28-.51-.04.19-.09.38-.13.57Z"/>
  <path class="cls-114" d="m108.41,109.07c.28-.04.55-.08.83-.11-.33-.39-.61-.35-.83.11Z"/>
  <path class="cls-114" d="m107.77,107.99c0,.05-.04.14-.02.15.05.03.12.03.18.04,0-.05.04-.14.02-.15-.05-.03-.12-.03-.18-.03Z"/>
  <path class="cls-35" d="m111.66,101.9c-.11-.17-.42-.34-.45-.24-.13.5.29.15.45.24h0Z"/>
  <path class="cls-114" d="m106.34,109.34c.05-.04.16-.1.15-.11-.05-.13-.11-.09-.15.11h0Z"/>
  <path class="cls-130" d="m114.56,92.23c-.34-.68-.24-1.46-.42-2.33-.94.3-1.74.44-1.94,1.6-.1.58-.32,1.23-.61,1.73-.64,1.1-.08,1.45.81,1.83-.68.09-1.36.18-2.04.27-.03.31-.25.72.29.8,1.09.15,2.19.2,3.26.42.96.2.79-1.02,1.51-1.05.06-.5.26-.96.45-1.42.04-.85-.64-.99-1.21-1.23-.12-.05-.21-.15-.24-.29.06-.1.1-.22.13-.33h0Z"/>
  <path class="cls-10" d="m115.67,94.2c-.61.34-.62.79-.25,1.31.34.37.68.74,1.01,1.1.14-.01.27-.03.41-.05.5-.36,1.6.13,1.56-.94-.02-.69-.72-.96-1.32-1.18-.46-.17-.92-.33-1.42-.25Z"/>
  <path class="cls-53" d="m121.6,78.69c.48-.32.16-1.04.66-1.36,0-.14,0-.27,0-.41.17-.27.03-.63.26-.88.51-1.47,1.01-2.94,1.52-4.41-.34.05-.69.07-1.03.14-.64.15-1.51.09-.78,1.24.2.31-.46.57-.87.66-.32.59.38,1.07.18,1.65-.13.23-.39.35-.55.57-.09.16-.16.32-.22.5-.18.65-.21,1.29.13,1.9.18.25.41.39.72.4Z"/>
  <path class="cls-22" d="m122.51,76.04c-.31.23-.33.54-.26.88.28-.23.3-.55.26-.88Z"/>
  <path class="cls-92" d="m121.84,137.14c.04.05.09.16.11.15.13-.04.09-.1-.11-.15h0Z"/>
  <path class="cls-142" d="m130.27,49.33c.42-.97.79-1.95.92-3.01.07-1.13.47-2.47-1.47-2.26-.06.03-.1.05-.1.05-.09-.13-.06-.18.11-.17.44-.56.3-.94-.31-1.2-1.28.54-1.3.6-1.17,1.75.13,1.05-.53,1.2-1.35,1.11.13,1.94-.57,3.74-.98,5.59.16.11.29.09.41-.06.11-.41.35-.72.72-.93h0c.8.59,1.48.36,1.88-.43.35-.71.79-.63,1.35-.43Z"/>
  <path class="cls-75" d="m126.33,51.12c-.14.02-.27.04-.41.06-.09.43-.17.87-.26,1.3-.58,1.23-1.57,2.38-.75,3.88.03.14.05.28.08.42,1.14.56,1.3-.92,2.12-1.02-.12-.6.68-1.21-.16-1.84-.59-.44-.86-1.19-.52-1.98.19-.28.59-.25.78-.53h0c.07-.1.09-.19.04-.28-.04-.08-.08-.12-.11-.12-.27.03-.54.06-.81.09Z"/>
  <path class="cls-43" d="m124.66,57.66c-.29.1-.72-.05-.82.33-.03.13.33.36.51.54.32-.21.36-.52.31-.87Z"/>
  <path class="cls-43" d="m124.36,58.54c-.61.34-.63.78-.23,1.3.43-.37.27-.84.23-1.3Z"/>
  <path class="cls-142" d="m127.21,51.42c-.34.06-.64.17-.78.53.34-.05.65-.16.78-.53Z"/>
  <path class="cls-142" d="m127.14,51.03c.03.13.05.27.07.4.27-.18.25-.32-.07-.4Z"/>
  <path class="cls-135" d="m122.02,68.99c-.63.49-.2,1.12-.21,1.69.33.04.7.36.97.06.32-.36-.06-.62-.3-.85-.27-.25-.41-.55-.45-.9Z"/>
  <path class="cls-11" d="m126.72,60.33c.14-.01.29-.03.43-.04h0c-.27-.32-.59-.45-.97-.2-.02.01.08.2.12.3.16.12.3.09.42-.07Z"/>
  <path class="cls-51" d="m126.29,63.34c-.04-.05-.1-.16-.12-.15-.13.05-.09.11.12.15h0Z"/>
  <path class="cls-51" d="m126.72,60.33c-.14.02-.28.04-.42.07.18.21.31.19.42-.07Z"/>
  <path class="cls-105" d="m118.7,72.78c.31.23.63.47.94.7.16.15.3.14.41-.06h0c.13-.11.17-.21.11-.29-.06-.09-.11-.12-.16-.12-.02-.14-.03-.27-.05-.41-.42.06-.83.11-1.25.17Z"/>
  <path class="cls-133" d="m121.09,78.33c-.09-.72-.1-1.44.17-2.13-.11-.09-.15-.18-.12-.27.03-.09.07-.13.11-.14.09-.16.17-.32.26-.48-.4.06-.81.13-1.21.2-.17.28-.55.23-.74.49.03.29.06.57.08.86.37,1.25-1.55,2-.75,3.35-.13.05-.25.12-.38.14-.89.14-1.14.61-.84,1.46.08.22-.12.52-.19.79.88,1.03.98,2.34,1.3,3.58-.11.17-.32.27-.34.5.02.14.03.27.06.41.15-.02.3-.04.45-.05,1.12-.59-.3-1.68.49-2.38.66-.58,1.2-1.22,1.03-2.29-.1-.62.05-1.36.5-1.93.1-.09.14-.18.1-.28-.04-.1-.07-.14-.11-.14l-.03.02c-.43-.61.4-1.11.15-1.71Z"/>
  <path class="cls-2" d="m120.06,73.42c-.14.02-.28.04-.41.06-.03.34-.6.44-.44.83.13.3.41.23.69.1.55-.26.4-.61.16-.99Z"/>
  <path class="cls-67" d="m119.57,76c.32-.04.62-.13.74-.49-.33.04-.61.14-.74.49Z"/>
  <path class="cls-2" d="m120,73.01c.02.14.04.27.06.41.17-.09.34-.19.51-.28-.19-.04-.38-.09-.57-.13Z"/>
  <path class="cls-59" d="m114.34,112.48c.21-.72.14-1.41-.26-2.06q-1.34.58-.97,2.23c.41-.06.82-.12,1.23-.17Z"/>
  <path class="cls-1" d="m129.42,42.74c.41.53.36.96-.27,1.27h0c.1.09.19.25.3.25,1.32.07,1.78.85,1.74,2.06.72-2.15,1.47-4.28,1.64-6.57-.42,1.03-1.27.73-2.05.67-.13.03-.26.05-.39.07.29.85-.03,1.54-.58,2.16-.13.03-.27.05-.4.08Z"/>
  <path class="cls-132" d="m129.82,42.66c.46-.55,1.25-.22,1.79-.65-.1-.78-.98-.9-1.21-1.51-1.3.42-.69,1.36-.58,2.16Z"/>
  <path class="cls-66" d="m124.92,56.37c-.22-1.38.9-2.51.75-3.88-.13.01-.26.03-.4.05-.77.65-1.6,1.26-1.8,2.35.65.34.95,1.01,1.45,1.49Z"/>
  <path class="cls-14" d="m134.41,32.8c.62-1.57,1.07-3.18,1.41-4.83-.97.51-1.97.99-1.77,2.39.11.77-.58,1.01-1.05,1.37-.3-.03-.52.09-.33.38.21.32.53.22.79-.02.32.24.63.48.95.71Z"/>
  <path class="cls-8" d="m133.24,24.11c.33-.14.9.11.91-.52,0-.25-.14-.46.21-.63,1.34-.66,1.33-.68.79-1.9-.08-.18-.2-.35-.3-.53-.16-.12-.29-.1-.41.06-.14.23-.22.57-.42.66-.7.32-1.47.46-.64,1.5.2.25-.08.9-.14,1.36h0Z"/>
  <path class="cls-46" d="m132.61,28.83c-.34-.22-1.05.98-1.12-.29-.02-.46-.26-.63-.67-.47-.43.18-.62.45-.36.97.4.81,1.49,1.43,2.36,1.16.62-.19.48-.5.04-.83-.14-.1-.17-.36-.25-.55h0Z"/>
  <path class="cls-74" d="m133.46,32.08c-.18-.09-.72.29-.46-.36-1.15-.04-1.24-.02-1.25.52-.02,1.01.5,1.47,1.54,1.4.04-.52-.13-1.07.17-1.56Z"/>
  <path class="cls-46" d="m132.61,28.83c.62-.45,1.1-.98,1.02-1.82h0c-.38-.05-.52-.69-1.05-.39-.58.33-.24.58-.03.95.2.37-.43.85.06,1.26h0Z"/>
  <path class="cls-46" d="m133.63,27.01c.71.29,1.35.84,2.2.57h0c-.21-.16-.54-.28-.61-.49-.49-1.46-1.03-.75-1.59-.07h0Z"/>
  <path class="cls-38" d="m134.44,20.59c.14-.02.27-.04.41-.06-.14-.37.12-1.08-.65-.93-.3.06-.44.5-.27.83.06.11.34.11.52.17Z"/>
  <path class="cls-36" d="m134.25,34.49c.28-.23.3-.54.25-.87-.28.23-.33.53-.25.87Z"/>
  <path class="cls-36" d="m133.97,35.36c.09-.16.18-.33.27-.49-.09.16-.18.33-.27.49Z"/>
  <path class="cls-82" d="m136.68,8.93c.11.17.42.34.45.24.13-.5-.29-.15-.45-.24h0Z"/>
  <path class="cls-82" d="m136.68,8.93c-.12-.17-.43-.34-.45-.24-.13.5.29.16.45.24h0Z"/>
  <path class="cls-19" d="m134.48,11.33c.02.13.03.27.05.4.15-.08.2-.19.12-.31-.03-.05-.11-.06-.17-.09Z"/>
  <path class="cls-4" d="m92.95,119.56c.22-.46.27-1.01.68-1.38-.03-.27-.06-.54-.09-.81-.46.05-.63.49-.94.71-1.23.86-.34,1.13.35,1.48Z"/>
  <path class="cls-77" d="m95.73,111.99c-.46.51-.27,1.23-.57,1.79,1.16-.28,1.2-.41.57-1.79Z"/>
  <path class="cls-50" d="m115.67,94.2c.48,1.05,2.04.36,2.44,1.54-.28.49-1.08.2-1.27.83.96.35,1.59,1.15,2.33,1.79.65-.49.71-1.43,1.43-1.87-.03-.87-1.21-1.4-.73-2.42-1.05-.06-2.03-.22-1.78-1.64.13-.72-.52-.92-.74-1.39-.58,0-.43.6-.66.82-.59.56-1.28,1.09-2.14.38-.13.02-.26.04-.39.07h0c-.12.4-.18.75.38.92.49.15,1.07.29,1.12.98Z"/>
  <path class="cls-85" d="m118.45,86.68c.11-.17.23-.34.34-.5-.14.15-.78-.04-.34.5Z"/>
  <path class="cls-44" d="m113.75,86.05c.04.05.09.16.11.15.13-.05.09-.1-.11-.15h0Z"/>
  <path class="cls-34" d="m113.97,81.39c.61-.45,1.31-.39,2.18-.14-.67-1.36-1.57-.6-2.29-.69h0c.04.27.07.55.11.83h0Z"/>
  <path class="cls-34" d="m115.81,79.46c-.05.04-.16.1-.15.11.05.13.11.09.15-.12h0Z"/>
  <path class="cls-34" d="m113.09,81.09c-.12.16-.24.31-.36.47.12-.16.24-.31.36-.47Z"/>
  <path class="cls-34" d="m113.97,81.39c-.05.04-.16.1-.15.11.05.13.11.09.15-.12h0Z"/>
  <path class="cls-100" d="m122,81.59c-.02-.14-.04-.28-.06-.42-.16-.12-.32-.25-.49-.37-.18-.17-.29-.12-.36.1.02.26.02.52.05.78.03.26.08.56.39.59.49.04.4-.39.47-.68Z"/>
  <path class="cls-53" d="m121.09,80.9c.12-.04.24-.07.36-.1-.04-.33-.15-.63-.48-.78-.01.14-.01.28,0,.41.04.16.08.31.12.47Z"/>
  <path class="cls-117" d="m121.09,78.33c-.33.54-.93,1.06-.15,1.71.11-.29.22-.57.33-.86.1-.17.18-.35.33-.49h0c-.17-.12-.34-.24-.51-.35Z"/>
  <path class="cls-53" d="m121.6,78.69c-.11.16-.22.33-.33.49.11-.16.22-.33.33-.49Z"/>
  <path class="cls-35" d="m115.82,98.39c.05-.04.16-.1.15-.11-.05-.13-.11-.09-.15.12h0Z"/>
  <path class="cls-71" d="m121.2,103.99c-.05.04-.16.1-.15.11.05.13.11.09.15-.11h0Z"/>
  <polygon class="cls-128" points="113.51 106.28 113.67 106.16 113.58 106.09 113.51 106.28"/>
  <path class="cls-27" d="m114.16,92.31c-.04-.05-.1-.16-.11-.15-.13.05-.09.11.12.15h0Z"/>
  <path class="cls-34" d="m121.26,75.79c-.28.14-.32.28,0,.41.01-.14.01-.27,0-.41Z"/>
  <path class="cls-13" d="m129.15,44.01c-.04-.05-.09-.15-.11-.14-.13.05-.09.1.11.14h0Z"/>
  <path class="cls-51" d="m127.05,50.19c.05-.04.16-.1.15-.12-.05-.13-.11-.09-.15.11h0Z"/>
</svg>