<?xml version="1.0" encoding="UTF-8"?>
<svg id="_8" data-name="8" xmlns="http://www.w3.org/2000/svg" viewBox="0 0 400 293.33">
  <defs>
    <style>
      .cls-1, .cls-2, .cls-3 {
        stroke-width: 0px;
      }

      .cls-2 {
        fill: #f4797e;
        fill-rule: evenodd;
      }

      .cls-3 {
        fill: #fff;
      }
    </style>
  </defs>
  <g>
    <path class="cls-2" d="m343.65,155.79c-1.17.96-2.04,2.07-1.82,3.46-.77.87-1.47,1.56-2.06,2.34-1.13,1.48-2.34,2.87-3.86,3.96-1.52,1.09-3.02,2.21-4.51,3.32-.89.66-.93.95-.45,2.81-.1.06-.23.2-.29.18-1.56-.74-2.6-.11-3.76,1.03-1.27,1.25-2.8,2.3-4.35,3.21-4.1,2.39-8.24,4.69-12.84,6.05-.88.26-1.67.86-2.81,1.47-2.03-.74-4.1.62-6.25,1.3-2.06.66-4.01,1.66-6.04,2.46-2.48.98-4.96,1.96-7.48,2.85-1.29.45-2.65.67-3.97,1.04-3.54,1-7.06,2.07-10.62,3.01-5.74,1.51-11.53,2.77-17.44,3.48-4.21.51-8.42,1.2-12.59,1.96-4.19.77-8.4.78-12.64.8-4.25.02-8.49.35-12.73.34-3.81,0-7.62-.24-11.42-.42-4.37-.2-8.73-.37-13.09-.69-5.03-.37-10.07-.64-15.06-1.61-5.01-.98-10.12-1.61-15.22-1.94-5.23-.34-10.25-1.57-15.22-2.99-3.95-1.13-7.81-2.6-11.68-4-1.46-.53-2.78-1.41-4.23-1.98-2.19-.87-4.37-1.89-6.65-2.38-5.82-1.24-11.49-2.94-17.06-5.01-3.55-1.33-7.15-2.57-10.63-4.07-4.03-1.75-7.71-4.13-11-7.07-1.48-1.31-3.15-2.38-4.22-4.15-.44-.72-1.58-.97-2.14-1.65-.56-.69-.67-1.75-1.2-2.47-1.2-1.6-2.49-3.14-3.84-4.61-.65-.71-.87-1.45-.96-2.35-.15-1.48-.4-2.95-.58-4.43-.07-.6-.18-1.23-.1-1.82.19-1.42.42-2.84.77-4.23.16-.62.58-1.21.99-1.72,1.32-1.66,2.75-3.23,4.01-4.93.44-.6.58-1.46.73-2.23.2-.97.83-1.64,1.86-1.75,2.09-.24,2.53-.66,2.76-2.78,1.64.46,2.98-.08,4.27-1.14.75-.61,1.94-.7,2.63-1.34,1.33-1.24,2.71-2.15,4.56-2.38.76-.1,1.5-.61,2.18-1.05.86-.54,1.68-1.03,2.76-.98.39.02.82-.27,1.2-.47,3.54-1.88,7.19-3.35,11.26-3.76,2.34-.23,4.64-.92,6.96-1.39.63-.13,1.12-.26,1.42-.99.23-.58.81-1.1,1.35-1.48,5.12-3.68,10.25-7.35,15.42-10.96,2-1.39,4.1-2.62,6.16-3.92.31-.2.74-.33.92-.61,1.37-2.04,3.04-3.86,3.98-6.23,1.31-3.3,3.74-5.74,6.98-7.25.87-.4,1.92-.46,2.91-.57.78-.09,1.2-.31,1.42-1.16.47-1.86.92-2.17,2.33-2,2.03.24,2.82.95,2.97,2.63.01.12.08.23.17.44,1.91.14,3.81.51,5.82-.12,2.13-.67,4.37-1.04,6.59-1.37,1.26-.19,2.57-.28,3.37,1.29.45.88,2.02.7,2.73-.09,1.12-1.26,2.24-2.52,3.41-3.73.6-.62.96-1.27.94-2.15-.03-1,.22-1.9,1.31-2.23,1.14-.35,2.1-.22,3.08.69.98.91,2.24,1.54,3.44,2.18,1.15.61,2.12,1.32,2.46,2.89.54-.46.91-.85,1.34-1.14,1.5-1.01,3.08-1.36,4.75-.42.6.34,1.23.66,1.71,1.14,1,1,2.06,1.36,3.32.56,1.01.72,1.91,1.34,1.78,2.72-.06.68.4,1.29,1.06,1.34.45.03,1.08-.29,1.37-.65,1.2-1.54,2.56-1.49,4.12-.7,1.23.62,2.73.81,4.13.94,2.5.24,2.85.57,2.65,3.13-.06.74-.06,1.49.01,2.23.02.22.35.41.7.79.19-.53.38-.84.39-1.15.02-.81-.05-1.62-.07-2.43-.04-2.52,1.21-4.23,3.34-5.42.53-.29,1.12-.53,1.52,0,.24.32.33.96.18,1.33-.52,1.26-.05,2.14.81,3.02,1.02,1.03,2.07,1.96,3.43,2.55,1.2.52,2.29,1.28,3.45,1.9,2.65,1.43,3.96,3.7,4.24,6.63.03.37.04.75.03,1.12-.04,1.14-.21,2.31,1.17,2.73-.62,1.96-.77,2.04-2.38,1.51-.38-.13-.79-.19-1.53-.37.27.66.33,1.12.58,1.34.52.44,1.12.8,1.74,1.08,1.32.59,2.06.34,2.65-1.03.54-1.25,1.34-1.82,2.73-1.83.62,0,1.28-.37,1.84-.7,1.72-1.02,3-.82,4.27.75.28.34.53.69.77,1.06.48.74,1.1,1.06,2.03,1.05,1.93-.02,2.24.24,2.77,2.07.33,1.13.51,2.29.82,3.43.3,1.09.65,2.1,2.04,2.38.94.19,1.78.91,2.72,1.08,1.71.31,3.46.41,5.19.56,1.62.14,3.26.45,4.85.31,2-.18,3.87-.16,5.74.67.59.27,1.36.14,2.04.21.83.09,1.61.04,2.27-.58.67-.62,1.45-.62,1.93.15.59.96,1.52,1,2.42,1.18,2.26.45,4.53.84,6.79,1.31,2.5.52,4.99,1.08,7.48,1.65.41.1.77.38,1.15.58.33.18.66.54.97.52,1.53-.07,2.69.9,4.03,1.34.47.15.97.47,1.42.42,1.65-.19,2.77,1.02,4.17,1.46.93.3,1.79.84,2.68,1.26,1.38.66,2.94.79,4.19,1.91.7.62,1.98.64,3.02.81.72.12,1.22.42,1.73.96.49.51,1.18,1.03,1.85,1.12,2.31.33,3.79,1.84,5.21,3.41,1.89,2.08,3.66,4.27,5.53,6.36,2.03,2.26,3.05,4.97,3.58,7.89.1.58-.18,1.22-.27,1.83-.31,2.02-.83,4.05.22,6.08Z"/>
    <path class="cls-3" d="m227.07,117.67c.58.38,1.19.73,1.72,1.17.12.1.02.57-.11.79-.07.12-.53.18-.64.08-.51-.48-.96-1.02-1.43-1.53.15-.17.3-.34.46-.51Zm-.6-2.65c-.12.01-.21.24-.32.37.35.29.7.58,1.05.88.11-.13.23-.26.34-.39-.12-.56-.43-.92-1.07-.85Zm-6.17,22.4c-.65-.47-.92-.83-1.2-.85-2.36-.1-4.72-.18-7.08-.16-.41,0-.82.49-1.23.76.08.18.16.35.24.53.76-.06,1.53-.2,2.28-.15,1.6.1,3.2.36,4.8.43.6.03,1.21-.29,2.2-.55Zm-72.39-6.33c.56-.28.59-.68.16-1.16-.58.14-.88.44-.62,1.03.04.1.36.18.47.13Zm9.42,5.47c-.56.18-.87.18-.99.33-1.72,2.19-1.66,5.03-2.87,7.9-.24-3,1.54-5.28,1.2-7.97-.55.27-1.07.58-1.22,1.02-.35,1.04-.61,2.13-.73,3.22-.27,2.33-.43,4.68-.62,7.02,0,.04.19.1.43.21.23-.86.46-1.68.73-2.67,1.96.98.05,3.07,1.49,3.99,1.2-.28,1.06-1.28,1-2.1-.17-2.72.25-5.34,1.02-7.93.27-.91.35-1.87.55-3.04Zm-7.15,7.86c-2.91,1.98-5.22,4.57-7.42,7.27-.2.24-.1.72-.13,1.09.12.07.24.13.36.2.56-.44,1.34-.77,1.62-1.35.54-1.08,1.46-1.66,2.32-2.33.64-.5,1.32-.93,1.95-1.44,1.08-.88,1.81-1.95,1.78-3.42-.25-.01-.4-.07-.48-.01Zm9.6-11.93c.43-.65.9-.9,1.56-1.12.86-.29,1.65-.73,1.75-1.93-2.56.45-4.94.85-7.31,1.29-.89.16-1.27.69-.77,1.66q-2.37.53-2.24,1.88c-.6.1-1.52-.34-1.61,1.03,1.02-.12,2.13.07,2.79-.39,1.19-.83,2.48-1,3.78-1.33.75-.19,1.67-.51,2.05-1.08Zm-12.71,20.97c-.21.2-.38.82-.28.91.27.24.82.5,1.05.37.59-.32,1.07-.85,1.75-1.43-1.2-.75-1.92-.42-2.53.15Zm4.1-10.64c.2-.52.38-1.06.52-1.6.3-1.16,0-1.51-1.18-1.29-2.48.46-4.86,1.15-6.83,2.86-.71.61-1.45,1.22-2.28,1.64-1.7.86-2.43,2.61-3.7,3.86-.2.2-.11.67-.19,1.25,2.88-.14,3.99-2.97,6.36-3.61-.61.88-1.32,1.64-2,2.42-.64.73-1.76,1.2-1.39,2.81.96-.69,1.79-1.21,2.53-1.84,1.24-1.04,2.35-2.27,3.67-3.2,1.33-.94,2.14-2.67,4.07-2.74.15,0,.34-.35.42-.57Zm8.78-23.81c1.84-.48,2.83-1.19,3.46-2.54-1.32.74-2.67,1.13-3.46,2.54Zm-27.15,24.93c-1.22.68-2.15.45-2.97-.54-.79-.96-1.72-1.05-2.86-.74-1.57.42-3.19.64-4.74,1.09-.91.27-1.74.82-2.82,1.35.6.96,1.05,1.66,1.55,2.46,5.63-2.72,11.62-2.29,17.49-2.94-1.77-1.32-3.68-1.77-5.65-.67Zm31.7-15.9c.67-.77,2-1.33,1.65-2.78-2.79,1.27-5.5,2.51-8.57,3.9,2.24.62,5.88.06,6.92-1.13Zm-.66-5.14c-1.9-.04-2.67,1.23-2.1,3.44,1.75-.55,1.37-2.3,2.1-3.44Zm-46.36,23.98c.22.15.59.08,1.37.17-.84-.96-1.37-1.56-2.11-2.4-.15,1.14.1,1.79.74,2.23Zm29.27-27.93c1.71.28,4.24-.83,6.17-2.79-3.04.42-5.5,1.57-6.17,2.79Zm-2.49,3.73c-.25.22-.5.69-.42.96.28,1.04.45,2.19,1.57,2.84,2.24-2.22,4.44-4.39,6.63-6.58.11-.11.1-.33.19-.68-.45.1-.79.12-1.1.25-1.73.68-3.46,1.34-5.17,2.08-.62.27-1.19.69-1.69,1.13Zm-20.44,19.34c1.01-.3,2.08-.37,3.11-.59.5-.1,1.18-.04,1.24-.83-1.92-.95-8.06.56-10.38,2.58.55,1,1.27.62,2.03.31,1.32-.53,2.64-1.06,4-1.46Zm34.24-18.22c-3.64.76-6.21,2.99-8.24,5.96-.91,1.34-.55,2.63.08,4.35.48-1.23.98-1.99,2.08-2.02.19,0,.36-.47.54-.73v-1.84s.06,0,.08,0c-.03.61-.05,1.23-.08,1.84h0c1.42-.24,2.11-.99,2.14-2.52.02-.74.11-1.72,1.16-2.37v2.55c1.16-.12,1.73-.58,1.76-1.66.03-.95.12-1.91,1.33-2.56-.11,1.03-.19,1.83-.31,2.93.67-.33,1.17-.41,1.27-.65.54-1.28.98-2.6,1.6-4.32-.95.24-1.5.35-2.04.52-.46.15-.89.42-1.36.52Zm-22.15,24.25c-1.97-1.4-3.33-1.64-4.83-.88,1.62.24,2.93,1.36,4.83.88Zm20.01-26.53c-.8.61-1.57,1.26-2.59,2.08,2.85.12,3.85-1.84,5.43-3.5-1.59-.27-2.08.84-2.84,1.42Zm1.93-4.24c-2.96.78-5.41,2.48-7.09,4.83-1.31,1.82-3.27,3.39-3.78,6.21,4.33-3.36,7.56-7.22,10.87-11.04Zm6.65,7.37c1.81-.13,2.77-1.48,2.64-3.85-1.94.51-2.54,1.42-2.64,3.85Zm2.7-7.36c-2.48.57-4.26,2.1-6.24,4.17,1.8.03,3.06-.58,5.65-2.53.43-.32.96-.65.59-1.64Zm64.45,11.24c-.33.62.18.87.69,1.02.79.22,1.59.43,2.39.64.05-.15.1-.3.15-.45-.6-.52-1.17-1.06-1.81-1.54-.56-.42-1.12-.2-1.41.34Zm-44.15,8.28c.44-.74.95-1.44,1.38-2.19.2-.35.28-.77.43-1.22-1.91-1.06-3.6-.91-5.3.26-.98.68-1.11,1.66-1.44,2.67-.39,1.19.94,1.68.54,2.71,2.03.06,3.44-.62,4.39-2.23Zm2-11.13c-2.22.36-3.38,1.28-4.04,3.22,1.33-.95,2.72-1.84,4.04-3.22Zm1.95,4.68c-.52-.6-.98-1.15-1.52-1.78-1.18.95-2.01,1.61-2.89,2.32,1.89,1.35,3.2,1.22,4.41-.54Zm-8.28-2.73c2.11-1.06,3.34-2.36,3.7-3.77-2.21.42-2.91,2.14-3.7,3.77Zm21.96-3.88c1.38.23,2.18-.21,2.99-.67,1.67-.93,3.15-2.16,4.74-3.21,2.11-1.39,3.88-3.29,5.78-5,.18-.16.25-.47.52-1.03-.61.23-.92.28-1.13.45-1.68,1.38-3.44,2.69-4.96,4.23-1.21,1.22-2.44,2.22-4.06,2.86-1.28.5-2.64.99-3.88,2.37Zm-27.77,11.03c1.08.68,2.13.6,3.14-.21-1.18-.39-2.24-.75-3.3-1.1-.35.53-.41.95.15,1.3Zm5-5.9c-1.55,0-2.53.38-3.31,1.25-.45.5-.35,1.01.15,1.45.5.43,1,.51,1.42-.08.54-.77,1.04-1.57,1.73-2.62Zm1.53,1.37c-1.65.72-2.27,1.85-2.65,3.35,1.33-.46,2.21-1.55,2.65-3.35Zm16.49,12.48c1.12.16,1.85.65,2.06,1.81.05.31.14.61.25.9.53,1.4,1.53,1.74,2.78.93.57-.37,1.12-.76,1.71-1.11.74-.44,1.75-.76,1.51-1.85-.22-.97-1.24-.9-2.01-1.01-2.39-.35-2.62-.6-2.36-3-.19-.83-.24-1.73-.61-2.47-.59-1.23-2.34-1.2-3.03-.07-.48.78-.99,1.55-1.56,2.27-.61.78-1.54,1.5-1.17,2.57.36,1.05,1.54.9,2.44,1.02Zm15.75-30.63c-.46.33-.97.66-1.44,1.04-1.99,1.61-3.96,3.22-5.94,4.85-.33.27-.67.56-.9.91-.46.69-.86,1.42-1.39,2.33,3.92-1.8,6.58-4.99,9.87-7.31.61-.43.73-1.17-.2-1.81Zm8.99,5.97c-1.34.83-2.49,1.7-3.76,2.28-2.04.93-4.13,1.8-6.26,2.47-3,.94-5.92,2.02-8.55,3.84.93-.02,1.89,0,2.73-.3,1.57-.56,3.11-1.24,4.6-1.98.72-.35,1.26-.41,1.92.27-1.18.91-2.26,1.89-2.37,3.5,1.5.09,2.88-.4,3.91-1.36-.24-.47-.47-.94-.88-1.76,1.05.2,1.81.51,2.53.42.73-.09,1.41-.58,2.11-.89.05.11.11.23.16.34-.46.26-.95.48-1.37.79-.89.67-.77,1.35.29,2.01,0,0,0,0,0-.01l.04.05s-.04-.05-.04-.05c.04-.02.08-.04.13-.06.47-.6,1.05-.98,1.85-.92.02,0,.04-.02.06-.03.04-.03.09-.05.13-.08.44-.62.82-1.31,1.62-1.51.08.11.17.22.25.33-.62.39-1.25.79-1.87,1.18-.03.04-.06.08-.09.12,0,0-.05-.04-.04-.04,0,0,.04.04.04.03-.04,0-.07,0-.1,0-.61.31-1.23.62-1.85.92-.03.04-.06.07-.09.11-.02-.01-.03-.02-.05-.04-.99,1.23-2.48,1.57-3.85,2.12-.6.24-1.19.5-1.8.76.54,1.34,1.3,1.3,2.22.89,2.91-1.29,5.37-3.29,7.99-5.02.82-.54,1.38-1.42,1.51-2.49.07-.54.28-1.09.54-1.58.86-1.64.87-1.75-.33-3.04-.46-.49-.97-.94-1.34-1.28Zm-19.83,20.07c-.22.81-.68,1.65-.04,2.46.35.44,1.24.25,1.34-.32.2-1.12.28-2.26.42-3.44-1.19-.22-1.51.5-1.72,1.29Zm-27.09-9.58c-.63.67-1.03,1.1-1.43,1.53.13.11.26.22.39.33.7-.2,1.24-.51,1.03-1.86Zm37.11-6.98c2.66-.13,7.07-2.62,8-4.53-1.37-.39-2.39-.41-3.4.59-1.06,1.04-2.32,1.87-3.47,2.82-.36.29-.65.65-1.13,1.13Zm-4.46,8.06c.08-.04.09-.2.25-.59-1.45.37-2.74.69-4.01,1.02-2.85.74-5.71,1.32-8.67.73-.28-.06-.54-.21-1.14-.8.33-.14.64-.32.98-.42,1.6-.5,3.18-1.08,4.81-1.45,2.91-.67,5.96-.72,8.74-1.99.21-.09.46-.09.95-.18-.41,1-.74,1.81-1.16,2.85,1.01.24,1.87.44,3.21.76-3.08,1.31-5.89,2.15-9.03,3.26,1.95.36,3.27-.44,4.66-.79.54-.14,1.04-.42,1.56-.65.56-.25,1.11-.38,1.43.32.36.79-.29,1.02-.82,1.15-1.94.48-3.88.99-5.84,1.29-1.34.2-2.73.04-4.1.11-.99.06-1.98.26-2.97.36-1.36.13-2.22-.47-2.5-1.7-.19-.85.12-1.31,1-1.39.5-.05,1-.03,1.5,0,3.48.25,6.83-.48,10.14-1.43.35-.1.69-.27,1.02-.44Zm-6.26,3.52c-.02-.14-.03-.28-.05-.41-1.04.07-2.09.24-3.13.18-2.22-.14-2.22-.19-2.87.25,2.09.48,4.07.5,6.05,0Zm-6.81-6.31c2.13.22,5.55-1.02,6.66-2.34-.06-.13-.12-.26-.17-.39-1.05.44-2.16.79-3.14,1.36-1.01.6-2.42.24-3.35,1.36Zm13.03,14c1.01-.3,1.92-.15,2.91.04,1.15.22,2.26-.14,3.29-.76-2.07-.85-4.18-1.2-6.35-1.21-.96,0-1.54.66-2.17,1.83,1,.06,1.72.28,2.32.1Zm15.28,4.51c-.09-1.46-.43-2.83-2.02-3.66-1.45,1.7-.9,3.6-.94,5.72,2.92-1.53,3-1.53,2.96-2.06Zm-.85-15.43c-.37-.09-.78,0-1.16.01.17.41.25.92.54,1.21.83.83,1.82,1.51,2.63,2.36,2.57,2.69,5.09,5.44,7.65,8.15.32.34.8.53,1.37.89.61-1.36.39-2.33-.18-3.29-1.34-2.3-3.22-4.1-5.24-5.78-1.71-1.42-3.33-3.04-5.62-3.56Zm-47.64-2.39c-1.78-.07-2.8.95-2.44,2.47,1.1-.57,2.17-1.06,2.44-2.47Zm14.32,19.82c1.49-2.53,2.99-5.05,4.46-7.59.29-.5.46-1.08.68-1.63-.16-.09-.32-.19-.49-.29-.32.35-.72.65-.94,1.05-1.39,2.5-2.74,5.03-4.08,7.56-.1.2-.01.5-.01.76.12.05.25.09.38.14Zm-1.67-1.62c1.12-2.05,2.24-4.09,3.47-6.35-1.83.29-2.49,1.44-2.97,2.63-.45,1.12-1.63,2.1-1,3.5.17.08.33.15.5.23Zm-27.91-11.7c-.1.86-.19,1.6-.29,2.52,1.73-1.05,3.15-2.24,4.79-2.83,1.65-.6,3.51-.6,5.37-.87,0,.61,0,1.02,0,1.42,1.46.82,1.97,1.49,2.66,3.41.52,1.45,1.13,1.73,2.55,1.14.34-.14.7-.31.99-.54.69-.54,1.34-1.07,2.31-1.11.58-.02,1.02-.45.76-1.29-.26-.03-.56-.05-.85-.09-1.1-.14-2.39.02-3.28-.49-1.66-.95-3.16-2.22-4.58-3.52-.87-.79-.59-1.96.48-2.68.91-.61,1.57-1.37,2.07-2.56-.78-.43-1.64-.71-2.23-1.28-.83-.78-1.78-.82-2.77-.92-.83-.08-1.33.32-1.5,1.09-.12.52-.11,1.07-.17,1.76.82-.21,1.44-.45,2.09-.53.67-.08,1.34.21,1.34.96,0,.74-.71.83-1.26.75-.89-.12-1.68.06-2.19.76-.62.84-1.1,1.78-1.63,2.68-.17.29-.33.59-.52.93-.89-.37-.91-.97-.65-1.58.21-.51.59-.96.82-1.47.13-.28.1-.63.15-.97-.28-.01-.43-.07-.51-.01-.26.16-.57.31-.75.54-1.66,2.19-3.79,3.75-6.18,5.04-1.02.55-1.65,1.76-1.3,2.7.57,1.57.14,2.96-.12,4.4-.38,2.09-.13,4.17.04,6.25,0,.07.19.13.31.2.87-.14.78-.8.77-1.43-.05-3.83.44-7.59,1.46-11.29.28-1,.81-1.26,1.86-1.11Zm82.54-1.86c.07-.12.13-.23.2-.35-1.33-.94-2.29-2.28-3.91-2.91-1.15-.44-2.43-.87-3.28-1.69-1.02-.97-2.21-1.31-3.41-1.8-.76-.31-1.36-.24-1.66.6-.3.85.17,1.27.91,1.53,1.52.53,3.08.99,4.56,1.64,1.92.84,3.76,1.84,5.65,2.75.29.14.63.16.95.23Zm-11.81.68c-.06.18-.12.36-.19.54.42.42.84.85,1.26,1.27.6.62,1.24,1.22,1.8,1.87,1.34,1.52,2.68,1.33,3.77-.65-1.18-1.6-2.98-2.32-4.76-3-.56-.21-1.26-.03-1.9-.03Zm-38.7.82c-.43.39-.87.77-1.28,1.18-1.85,1.83-2.67,4.3-3.97,6.48-.26.43-.53,1.03.15,1.4,1.83-2.72,3.63-5.38,5.41-8.06.11-.17.05-.46.07-.69-.13-.11-.26-.21-.38-.32Zm-26.13,20.29c.03.15.07.3.11.44,2.58-.43,5.16-.87,8.01-1.34-.79-.86-1.4-1.58-2.31-1.49-2.17.21-4.21.82-5.81,2.39Zm157.72-16.65c2.09-.94,4.11-2.02,6.16-3.06.2-.1.31-.36.6-.69-1.29-1.23-2.53-1.61-3.99-.73-1.84,1.12-3.68,2.22-5.52,3.33.71,1.23,1.59,1.67,2.76,1.14Zm-149.05-4.52c-.77-.61-1.27-1-1.77-1.39-.11.15-.21.3-.32.44.32.69.77,1.17,2.09.94Zm142.97,2.6c.58.06,1.07.25,1.47.14.83-.24,1.65-.57,2.41-1,1.44-.82,2.83-1.73,4.29-2.63-.27-1.19-.67-1.48-1.74-.86-2.05,1.17-4.05,2.43-6.07,3.67-.12.08-.16.3-.36.69Zm-126.47-7.7c.98.46,1.61.27,2.42-.67-1.13-.21-1.83-.22-2.42.67Zm12.06-5.75c-1.51-.68-2.58-.54-3.63-.17-2.94,1.04-5.87,2.09-8.79,3.19-.57.21-1.41.18-1.61,1.21,1.21.34,2.34.26,3.47-.1,1.55-.49,3.12-.93,4.62-1.52,1.89-.75,3.72-1.63,5.94-2.62Zm-24.58,25.41c.46-.11,1.04-.33,1.27-.68.86-1.33,1.5-2.77,2.1-4.63-.98,0-1.65-.08-2.29.01-3.45.53-6.62,1.96-9.78,3.34-1.45.63-2.7,1.74-4.14,2.69,1.72,3.15,1.89,3.24,5.01,2.69.18-.03.4-.01.55-.1.4-.23.98-.43,1.14-.79.8-1.85,2.29-2.3,4.11-2.28.68,0,1.38-.08,2.03-.24Zm-31.1-10.42c-.41.53-.2.99.35,1.47.78-.44.64-.94.27-1.41-.1-.12-.54-.16-.62-.06Zm-43.94,17.4c.09-1.04.17-1.99.26-3.08-1.06-.28-1.96-.52-3-.81.39,1.33,1.81,3.33,2.74,3.89Zm6.71-25.95c.05,1.72.16,3.5.64,5.14.19.65.46,1.27.58,1.99.16.95.29,2.06,1.54,2.68,0-.54.05-.9,0-1.24-.32-1.96-.67-3.91-1-5.86-.1-.6-.43-1.31.77-1.85.01,2.28-.09,4.46,1.65,6.38.11-.56.23-.84.2-1.1-.15-1.35-.47-2.7-.48-4.05,0-1.71-1.23-2.35-2.38-3-.82-.46-1.55-.04-1.52.93Zm-5.55,19.78c.97-.65,1.91-1.27,2.99-1.99-.26-.68-.54-1.39-.9-2.34-.55.6-.87.96-1.2,1.31-.08-.53,0-.95.15-1.35.21-.52.49-1.01.69-1.54.22-.57.6-1.23-.13-1.67-.74-.46-1.12.13-1.48.67-.16.25-.35.47-.53.7-.11-.06-.23-.12-.34-.18.26-.58.56-1.15.79-1.75.27-.68-.08-1.41-.78-1.64-.7-.23-1.06.17-1.23.78-.25.9-.54,1.79-.69,2.7-.06.39.05.95.31,1.2.26.25.81.21,1.23.3-.45,3.17-.34,3.63,1.1,4.78Zm46.1-44.61c.17.27.84.22,1.35.33-.52-1.29-.87-2.4-1.4-3.42-.69-1.32.95-2.07.72-3.31-1.18-.37-2.27-.33-3.63.42.65.48,1.05.77,1.52,1.11-.55.15-.94.26-1.41.39.45.53,1.14.99,1.09,1.37-.17,1.51,1.12,2.12,1.75,3.11Zm-35.98,19.93c-1.46-.95-2.23-.62-3.06,1.52,1.3-.38,2.38-.49,3.06-1.52Zm-13.07,11.69c-.61,1.34-.76,2.52-.17,3.79,1.8-1.25,1.89-2.38.17-3.79Zm1.36,14.07c-.66-1.39-.74-1.42-2.04-.61.7.63,1.21,1.11,2.04.61Zm-.96-2.28c-.93-1.01-2.08-1.28-3.45-1.29,1,2.04,2.21,2.49,3.45,1.29Zm113.56-43.83c4.38,1.75,8.42,4.14,11.84,7.38,1.73,1.64,2.97,3.81,4.43,5.75.07.1.12.22.15.34.32.95-.09,2.63-.77,2.89-1.07.42-1.29-.72-1.89-1.13-2.28.08-2.38.04-2.74-2.21-.22-1.36-1.22-1.91-2.27-2.21-1.52-.44-2.58-1.43-3.71-2.42-1.54-1.35-3.12-2.71-4.85-3.79-1.35-.83-2.97-1.23-4.47-1.83-.4-.16-.77-.38-1.47-.73.49-.46.75-.81,1.1-1,.75-.42,1.5-.91,2.31-1.1.74-.17,1.64-.2,2.32.07Zm3.08,3.61c-1.21-.65-2.42-1.3-3.63-1.93-.48-.25-.96-.39-1.17.49.22.14.46.32.72.45,1.79.87,3.59,1.72,5.36,2.62.55.28,1.08.64,1.51,1.08,1.76,1.75,3.47,3.55,5.21,5.33.48.49.98.96,1.49,1.41.42.36.87.49,1.33-.22-.8-.82-1.64-1.62-2.41-2.49-2.43-2.71-5.2-4.99-8.41-6.72Zm7.21-5.84c-.04-.12-.31-.16-.68-.35-.33.56-.65,1.1-1.04,1.74.54.39.92.68,1.32.95.97.66,2.02,1.23,2.92,1.98,1.62,1.35,3.18,2.78,4.73,4.22,2,1.87,4.03,3.72,5.92,5.7,1.07,1.12,1.87,2.49,2.83,3.72.72.92.85.9,2-.16-2.38-2.96-4.57-5.92-6.99-8.67-2.05-2.34-4.24-4.6-7.23-5.81-1.65-.67-3.16-1.48-3.78-3.32Zm-81.41,7.81c-.67.33-1.25.79-1.14,1.66.2.08.31.18.42.16,1.73-.25,1.92-.08,1.93,1.65,0,.53.09,1.05.15,1.68,2.74-.27,5.27-.52,7.79-.77-.81.46-1.67.59-2.51.78-1.52.34-3.04.69-4.54,1.11-.26.07-.41.5-.61.76.3.16.6.43.9.45.42.02.85-.16,1.28-.25.97-.21,1.94-.46,2.92-.6,2.9-.42,5.81-.81,8.71-1.2,1.29-.17,2.59-.28,3.88-.48.27-.04.5-.34.74-.53-.04-.11-.08-.23-.11-.34-1.44.08-2.88.17-4.32.25-.01-.16-.03-.32-.04-.48.77-.07,1.54-.19,2.32-.21.87-.03,1.75.06,2.62.03.67-.03,1.39-.09,1.54-1.07-.98-.63-2.05-.55-3.09-.45-2.18.21-4.35.48-6.52.72-1.18.13-2.33.33-3.46-.36-.36-.22-.97-.12-1.44-.03-1.35.25-2.69.56-4.03.86-.62.14-1.14.14-1.16-.81,1.25-.85,2.76-.42,4.13-.73,1.4-.31,2.83-.51,4.26-.68,1.43-.17,2.86-.25,4.3-.38,1.34-.12,2.72-.04,4.44-.42-3.04-1.22-3.73-1.31-6.04-1.25-3.34.08-6.59.61-9.75,1.68-.31.11-.71-.04-1.07-.06-.02-.16-.05-.33-.07-.49.54-.19,1.07-.47,1.62-.55,4.27-.58,8.53-1.38,12.86-1.15,1.75.09,3.6-.07,5.24.91.45.27.98.19,1.19-.59-.28-.17-.57-.39-.89-.51-1.22-.46-2.5-.79-3.69-1.34-1.54-.71-3.12-.83-4.75-.64-.5.06-.99.16-1.49.17-3.1.04-6.03.93-8.93,1.87-1.24.4-2.4,1.05-3.58,1.63Zm107.26,29.81c-.47-.17-.78-.29-1.09-.4-.08.35-.17.71-.35,1.44.67-.49,1.01-.74,1.43-1.05Zm-20.37-37.69c1.55-.52,2.92-.11,4.25.73.54.34,1.2.48,1.8.71-1.38-2.7-4.67-3.4-7.73-2.02.33.87.98.81,1.67.58Zm-9.21,2.69c.14-.62.02-1.18-.72-1.23-.96-.06-1.92-.01-2.88-.01-.05.15-.1.31-.15.46.84.48,1.65,1.01,2.52,1.44.63.31,1.08.03,1.23-.65Zm-28.97-4.95c-2.08,1.7-4.22,3.31-6.32,4.98-.5.4-.93.89-1.5,1.44,2.45.55,3.48.27,4.61-1.39.84-1.23,1.95-2.06,3.19-2.81.9-.55,1.7-.66,2.58.02.45.35,1.01.57,1.74.98,0-1.01-.02-1.67,0-2.33.03-.79.47-1.49,1.25-1.3,2.07.53,2.44-.71,2.67-2.25.06-.41.26-.8.34-1.02-.76-.97-1.41-1.79-2.05-2.61-.62-.81-1.24-1.64-1.95-2.59-.39.45-.78.72-.74.88.29,1.13-.45,1.64-1.11,2.33-.52.55-1.19,1.52-1.03,2.07.54,1.83-.58,2.7-1.68,3.6Zm-93.34,43.41c.88-.17.7-.88.66-1.5-.01-.19-.04-.37-.05-.46-.04-.66,0-1.24-.13-1.78-.08-.29-.43-.61-.73-.71-.19-.07-.66.17-.75.38-.32.8-.66,1.63-.76,2.47-.1.79,1.02,1.73,1.76,1.58Zm150.8-3.85s0-.03,0-.04c0,.01-.02.02-.03.03,0,0,.01,0,.02,0Zm61.77,13.38c-.64-.89-1.08-1.5-1.71-2.38-.59.95-1.04,1.72-1.53,2.47-.75,1.14-.93,1.15-2.13.26.26-.87.51-1.73.76-2.55-1.08-.75-2.12-1.4-3.08-2.16-.92-.73-1.81-1.53-2.61-2.39-1.31-1.41-2.94-1.77-4.83-1.61-.46.71-.95,1.48-1.43,2.23-1.41-.7-1.46-1.78-.33-3.61-1.14-1.54-2.26-3.06-3.39-4.58-.05-.06-.23-.02-.64-.04.25.73.46,1.36.67,2-1.22.12-1.49-.02-1.62-1.02-.13-.99-.19-1.99-.18-2.98,0-.84.05-1.59-.85-2.08-.71-.39-.66-1.03-.09-1.55,1.01-.93,2.03-1.85,3.11-2.69.47-.37,1.08-.7,1.58.13.13.22.61.26.94.3.41.05.82.01,1.3.01.06,1.23-.49,2.13-1.26,2.48-.72.33-1.71.07-2.55.07.5.7.91,1.33,1.38,1.93.61.77,1.25,1.52,1.89,2.27,3.18,3.79,6.79,7.15,10.71,10.13,1.56,1.18,3.46,1.94,5.24,2.81,1.06.52,1.22.8.67,2.55Zm-19.3-15.83c-.31-.5-.62-1.01-.94-1.52-.15.07-.31.15-.46.22-.16.87.45,1.2,1.4,1.29Zm17.68,15.96c-.05-.16-.25-.33-.42-.38-.1-.03-.26.17-.4.27.12.16.25.32.54.7.15-.28.32-.47.28-.58Zm-7.7-3.78c-.88-1.22-2.25-2.12-3.52-3-.87-.6-1.79-.32-2.51.49-1.08,1.21-2.17,2.41-3.23,3.63-.18.21-.25.52-.38.83.79.62,1.5.69,1.95-.16.39-.74.79-1.31,1.59-1.71.73-.36,1.29-1.06,1.98-1.66.83.6,1.62,1.1,2.32,1.7.8.69,1.01,1.81.36,2.49-.93.95-1.15,2.18-1.45,3.34-.26,1.02-.73,1.86-1.47,2.54-.96.88-2.01,1.67-3,2.53-.72.62-1.39,1.3-2.08,1.95.09.11.18.21.27.32,1.69-.5,3.08-1.48,4.22-2.81.45-.52.86-1.07,1.27-1.62,1.12-1.48,2.31-2.92,3.31-4.48.87-1.35,1.37-3.03.38-4.4Zm8.99-13.7c.51.64,1.02.45,1.53.16,2.05-1.17,4.12-2.33,6.15-3.53.44-.26.75-.71,1.16-1.1-1.65-1.21-1.98-1.26-3.32-.42-1.42.9-2.8,1.85-4.2,2.79-.76.51-1.22,1.2-1.31,2.1Zm-14.48,26.39c-.75.83-1.56,1.6-2.38,2.36-.53.49-.71,1.05-.36,1.67.34.59.89.62,1.46.32,1.65-.87,3.32-1.71,4.95-2.63.33-.19.51-.63.87-1.09-.39-.54-.66-1.33-1.08-1.43-1.21-.28-2.48-.29-3.46.8Zm7.6-30.51c2.29-1.34,3.8-3.17,5.35-4.95-.07-.13-.14-.26-.22-.39-.37.07-.8.05-1.09.24-1.28.81-3.77,3.89-4.04,5.1Zm5.31,25.65c.21,0,.54-.33.59-.56.05-.21-.18-.65-.35-.69-.44-.1-.92-.04-1.41-.04-.12,1.01.45,1.28,1.18,1.29Zm-68.66,18.19c.03-.23.16-.46.3-.83-1.48.72-2.75,1.34-4.13,2.02-.35-1.43.76-1.94,1.24-2.9-1.46.94-2.93,1.88-4.52,2.89-.55-1.83,1.41-1.98,1.77-3.44-1.96.94-3.12,2.83-5.43,3.23.26-.56.35-.98.59-1.26,2.44-2.8,5.21-5.24,8.55-6.87,1.5-.73,3.07-1.74,4.92-1.08,1.05.38,2.11.75,3.11,1.24,1.11.55,1.41,1.82.66,2.86-.65.9-1.39,1.69-1.59,2.88-.12.72-.89,1.16-1.6,1.03-1.01-.19-1.67.08-2.21.9-.12.18-.41.28-.65.34-.71.19-1.12-.23-1.02-1.03Zm1.45-3.95c.65.42,1.51.51,2.26.81.68.27,1.32.5,1.78-.3.49-.86.37-1.8-.36-2.31-.6-.43-1.25-.86-1.95-1.08-1.26-.39-2.42-.15-3.45,1.08.59.64,1.06,1.37,1.72,1.8Zm-101.86-4.59c.6-.29,1.46-.31,2.12-.13,1.73.48,1.67.5,2.77-.87,1.68-2.09,3.31-4.24,5.19-6.13,2.16-2.17,4.84-3.71,7.6-5.05,2.01-.97,4.08-1.81,6.25-2.76-.74-1.54-1.08-1.74-2.48-1.05-2.51,1.25-5.01,2.53-7.41,3.98-1.48.89-2.66,2.3-4.17,3.14-2.96,1.64-5.13,3.91-6.56,6.93-.11.22-.19.51-.37.63-.22.15-.6.27-.8.17-.21-.1-.41-.48-.41-.73,0-.28.21-.57.38-.82,2-3.15,4.69-5.67,7.57-7.96,3.08-2.45,6.42-4.53,10.08-6.06.34-.14.6-.49.9-.74-.04-.14-.08-.27-.12-.41-.56.03-1.17-.06-1.68.12-1.57.56-3.09,1.23-4.65,1.84-2.91,1.13-5.23,3.23-7.84,4.85-.16.1-.28.25-.41.38-1.41,1.42-2.85,2.81-4.2,4.28-1.44,1.56-2.8,3.2-2.87,5.51,0,.23-.11.53-.27.67-1.18,1.04-.95,2.31-.72,3.69.89.18,1.71.84,2.77.03-.36-.44-.64-.81-.96-1.16-.86-.95-.82-1.83.31-2.38Zm10.01,5.57c1.41-.65,2.81-1.37,4.28-1.88,3.05-1.07,6.13-2.04,9.21-3.04.47-.15.97-.23,1.46-.32,1.2-.23,2.41-.45,3.63-.67-.48-1.27-1.04-2-2.03-2.38-1.88-.7-3.77-1.27-5.83-.67-1.8.52-3.64.88-5.45,1.36-2.96.78-5.85,1.69-7.59,4.47-1.86-.27-3.66.59-4.47,2.12.83.67,1.67.68,2.58.13,3.82-2.3,7.93-3.93,12.11-5.4,1.82-.64,3.71-1.09,5.58-1.56.46-.12,1.12-.32,1.37.58-6.37,1.22-12.42,3.13-18.01,7.03,1.9.81,1.97.79,3.16.25Zm-22.23-4.75c-1.82-1.19-3.63-2.38-5.73-3.75.17.71.27,1.16.48,2.07-.84-.48-1.39-.7-1.83-1.06-1.65-1.33-3.25-2.71-4.89-4.05-.33-.27-.72-.46-1.09-.67-.04-.04-.07-.09-.11-.13-.02-.01-.04-.03-.05-.04-.03-.22-.02-.46-.13-.61-.9-1.23-1.83-2.45-2.77-3.65-.07-.09-.29-.08-.45-.09,0-.02-.02-.04-.02-.05-.01-.02-.02-.03-.03-.05,0-1.01-.39-1.86-1.18-2.71-.03,1.2.62,1.94,1.18,2.71,0,.03,0,.06,0,.09,0,0,.03-.04.03-.04,0,0-.03.05-.03.04.02,0,.04,0,.06,0,.78,1.71,1.83,3.22,3.36,4.36,0,.03,0,.06,0,.09,0,0,.04-.05.04-.05l-.04.05s.1.05.15.08c1.29,1.65,2.59,3.3,3.94,5.02-.67.33-1.23.07-1.68-.35-1.08-1.03-2.13-2.09-3.15-3.17-2.34-2.49-3.9-5.47-5.25-8.56-.56-1.27-.36-1.73.81-2.47,1.17-.74,2.49-.74,3.81-.61.18.02.4.08.51.21,1.01,1.16,2.3,2.21,2.94,3.55,1.51,3.17,3.82,5.7,6.2,8.13,1.82,1.86,3.94,3.42,5.92,5.11.18.16.32.36.56.64-.6.42-1.08.25-1.55-.06Zm-8.73-7.26c-.29-.46-.54-.96-.88-1.39-1.7-2.18-3.9-4.04-4.35-7.02-.03-.21-.65-.34-1-.5-.13.31-.45.69-.37.92.31.8.67,1.62,1.16,2.32,1.19,1.67,2.45,3.29,3.73,4.89.36.45.88.77,1.33,1.15.13-.12.25-.24.38-.36Zm-21.71-14.41c.71.47,1.38,1.36,2.43.67-.22-2.34-.49-2.58-3.31-2.94-.54,1.19.15,1.79.88,2.27Zm180.5,21.88c-1.43.88-2.92,1.67-4.36,2.54-.74.45-1.4,1.01-1.51,2.09.39.07.72.23.95.14,1.04-.4,2.1-.79,3.07-1.33,4.28-2.36,8.64-4.49,13.41-5.69.52-.13,1.01-.39,1.48-.57-.53-3.11-2.72-4.38-5.5-3.29-1.91.75-3.75,1.68-5.69,2.37-1.21.43-2.46.71-3.5,1.53-.05.04-.21-.08-.4-.16.46-1.44,1.85-1.82,2.95-2.59-.42-.1-.81-.11-1.14.02-.69.26-1.33.71-2.04.85-2.58.5-5.16.91-7.79.29-.99-.23-2.04-.25-3.16.26,1.21,1.12,2.48,1.54,3.89,1.51,1.68-.03,3.36-.13,5.04-.15.37,0,.74.18,1.48.38-.67.55-1.01.86-1.39,1.14-1.56,1.14-3.13,2.27-4.69,3.4-.8.58-1.21,1.36-1.16,2.54,1.12-.21,1.95-.87,2.76-1.49,2.67-2.04,5.52-3.79,8.67-5.01,0-.01,0-.02,0-.04h0s.07,0,.1,0c1.59-.6,3.18-1.21,4.77-1.8,1.04-.39,2.1-.76,3.15-1.12.43-.14.88-.23,1.46-.03-.18.2-.34.5-.56.57-2.42.75-4.85,1.49-7.29,2.18-.49.14-1.01.14-1.53.19-.02,0-.05.02-.07.03-.01,0-.03.01-.04.02.01.92-.86.91-1.38,1.23Zm-67.36-3.9c-.08-.15-.15-.31-.22-.46-.43.09-.89.12-1.29.29-3.64,1.62-6.69,4.09-9.65,6.7-.75.66-1.51,1.31-2.3,1.92-.48.37-.51.32-1.56,0,.33-1.66,1.63-2.62,2.78-3.6,3.54-3.01,7.53-5.34,11.71-7.34.84-.41,1.73-.71,2.59-1.08.49-.21.96-.46,1.65-.79-.76-.52-1.26-.36-1.75-.13-2.36,1.13-4.81,2.13-7.06,3.46-2.25,1.32-4.3,2.97-6.44,4.48-.49.34-.97.7-1.74.82.09-.3.08-.71.27-.9,1.37-1.36,2.69-2.79,4.19-3.98,3.17-2.5,6.86-4.14,10.63-5.45,1.96-.68,4.17-.66,6.28-.9.33-.04.75.14,1.01.35.71.57,1.11,2.59.75,4.04-.45-.88-.82-1.56-1.16-2.26-.29-.6-.37-1.39-1.27-1.42-.66-.02-2.13,1.11-2.21,1.79-.09.73-.11,1.52.09,2.21.28,1,.03,1.28-.94,1.74-2.64,1.26-5.15,2.78-7.67,4.27-1.61.95-3.14,2.04-4.72,3.04-.28.18-.66.22-1.33.44,1.47-1.92,3.19-2.9,4.81-4.04,1.51-1.06,3.44-1.62,4.55-3.2Zm1.5-1.42q1.21.29,2.11-.37c-.81-.95-1.37-.45-2.11.37Zm-36.8-.21c1.47,1.78,2.98,3.53,4.33,5.4,1.84,2.53,3.56,5.13,5.32,7.72.5.74,1.05.98,1.92.37-.15-.38-.25-.73-.42-1.04-.66-1.21-1.41-2.37-2.02-3.6-1.62-3.28-3.99-6.03-6.28-8.82-.62-.76-1.45-1.38-2.26-1.95-1.91-1.37-4.73-.72-5.83,1.33-.19.35-.11.85-.16,1.46,1.45-.76,2.17-.69,3.03.17.22.22.41.48.59.73,2.22,3.02,4.44,6.05,6.66,9.06.44.6.9,1.2,1.42,1.73.2.2.6.2.93.29.06-.28.14-.43.1-.52-2.4-4.6-5.97-8.41-8.69-12.8.09-.11.18-.23.27-.34.37.27.81.47,1.09.81Zm22.62,1.37c.3-.86.92-1.76.01-2.55-.29-.25-1.05-.31-1.36-.1-.95.64-1.91,1.35-2.44,2.78.89.31,1.58.56,2.27.79.86.29,1.26-.17,1.52-.91Zm6.11-3.51c1.13-.51,2.32-.99,3.29-1.73.7-.54,1.37-.89,2.19-.86,2.31.09,3.56-2.01,5.54-2.59.2-.06.35-.36.46-.58.44-.92,1.06-1.81,1.22-2.79.21-1.28.33-2.54.87-3.77.26-.59.04-1.39.04-2.22-1.09.36-1.88.76-2.7.86-1.73.21-3.47.32-5.21.37-1.56.04-3.14-.16-4.35,1.18-.14.16-.49.13-.68.27-1.08.76-2.18,1.5-3.17,2.36-.31.27-.42.89-.45,1.37-.06,1.05-.02,2.11-.02,3.07-1.85,1.22-2.14,3.13-.74,4.49.33-.5.63-1.39.97-1.41,1.3-.06,1.25-.98,1.37-1.8q1.41.04,1.87-1.82c1.08.66,1.73.45,1.92-.67.12-.71.13-1.43.19-2.15.1,0,.2,0,.3,0,.16.55.32,1.1.5,1.72,2.05-.33,1.16-2.21,1.83-3.26.33.59.6,1.09.85,1.55,1.44-.32,1.22-1.62,1.64-2.18,1.02-.38,1.84-.69,2.65-.99,1.23,1.12-.65,1.07-.67,1.69.16.3.3.56.43.79-.8.76-2.18.26-2.86,1.48.49.2.88.35,1.31.53-.26.13-.41.26-.59.3-.67.16-1.34.29-2.01.43-1.7.37-1.77.45-1.77,2.17-1.18.43-2.86-.45-3.6,1.28.19.34.38.68.56,1.01-1.01.69-2.79-.42-3.05,1.53.98.55,1.19.66,1.87.35Zm-17.61,9.23c2.28-1.02,4.58-2,6.85-3.02.47-.21.87-.58,1.3-.87-.03-.15-.06-.3-.08-.45-.63-.11-1.28-.38-1.88-.29-2.63.43-4.98,1.59-7.19,3.04-.47.31-.92.74-.48,1.4.4.6.91.45,1.48.19Zm62.64-19.53c.01-.35-.32-.79-.63-1.04-.26-.21-.71-.19-1.07-.25-2.45-.45-4.92-.84-7.36-1.37-4-.87-7.93-.54-11.84.44-1.38.35-2.69.96-4.05,1.37-1.3.4-2.66.63-3.95,1.08-1.28.44-1.31.62-1.14,2.41.42-.09.85-.1,1.2-.28,1.81-.9,3.65-1.61,5.72-1.55.47.01.95-.25,1.44-.37,1.3-.33,2.61-.65,3.91-.98.04.14.08.27.12.41-3.79,1.22-7.73,2.12-11.01,4.6,3.05-.1,6.08-.33,9.01-1.36-.45.38-.94.6-1.44.81-1.78.75-3.57,1.49-5.34,2.26-.62.27-1.26.59-1.13,1.47.99.23.99.22,1.73-.12,1.19-.54,2.34-1.25,3.59-1.58,3.55-.94,7.07-2.08,10.8-2.17,1.13-.03,1.22-.19,1.21-1.35,0-.58.05-1.17.09-2.03.78.43,1.24.76,1.74.94.63.23,1.31.48,1.96.45.92-.04,1.82-.33,2.74-.49.97-.17,1.96-.26,2.91-.51.33-.09.78-.52.8-.81Zm-47.72,10.9c-.45.3-.79.77-1.17,1.17.15.18.3.36.45.54.56-.34,1.12-.68,1.96-1.2-.66-.29-1.09-.62-1.24-.52Zm19.04,2.75c-1.05-.64-1.55-.67-1.78-.05-.08.21.02.63.19.78.52.47.98.24,1.59-.73Zm25.29-5.4c.23-.06.5-.61.44-.88-.07-.35-.39-.74-.72-.91-.34-.18-.81-.13-.96-.14-.59-.88-1.03-1.53-1.48-2.19.02-.46,1.09-.7.33-1.33-.5-.42-.87-.17-1.26.26-.27.29-.7.45-1.22.77.44.47.75.77,1.03,1.09.89,1.04,1.73,2.13,2.67,3.12.23.24.81.31,1.17.22Zm-.17-6.22c-.78.59-1.19.91-1.65,1.26.51,1.01.86,1.92,2.38,1.74-.24-.96-.43-1.76-.73-3Zm-69.12,6.55c.13-.82.26-1.56.38-2.32-.9-.07-1.6-.09-2.29-.18-.72-.1-1.42-.37-2.14-.38-2.21-.02-4.3.63-6.35,1.36-.98.35-1.76,1-2.09,2.3,4.2-.56,8.19-1.81,12.5-.78Zm-8.92-18.22c-1.33.66-2.63,1.45-3.81,2.35-.75.57-1.41,1.37-1.45,2.47.78.52,1.33.21,1.9-.25,1.81-1.44,3.83-2.5,5.99-3.29-.62-1.88-.96-2.11-2.62-1.28Zm2.62,1.28s0,0,0,0c0,0,0,0,0,0,.01,0,.03-.02.04-.03-.02,0-.03.01-.05.02Zm19.8,22.69c-.46-.35-.77-.78-1.13-.84-2.14-.32-4.29-.57-6.44-.8-.46-.05-.94.06-1.89.13.93,1.33,1.58,2.3,2.28,3.23.85,1.14,1.07,1.19,2.34.67,1.32-.54,2.64-1.09,3.95-1.67.3-.13.53-.42.9-.72Zm-23.98-2.27c.47.74,1.83,1.01,2.27.4.64-.86,1.09-1.85,1.63-2.78-.09-.11-.17-.21-.26-.32-1.34.31-2.68.62-4.26.99.28.8.37,1.31.62,1.71Zm51.39,5.86c.1.31.62.77.83.71.57-.16,1.08-.56,1.87-1.01-.57-.48-.83-.87-1.16-.95-.61-.14-1.69.74-1.53,1.24Zm-52.52-22.57c-.33.26-.49.73-.73,1.11.1.1.21.21.31.31,1.41-.86,2.9-1.51,4.29-2.46,1.38-.95,3.03-1.5,4.91-2.4-1.41-.11-2.43-.19-3.45-.27-.76.51-1.53,1.01-2.28,1.53-1.02.71-2.06,1.41-3.04,2.18Zm35.32,4.59c-.42-.21-.67-.42-.96-.48-1.06-.23-1.56-.95-1.78-1.94-.07-.31-.15-.61-.25-.9-.36-1.01-2.7-2.22-3.7-1.89-.22.07-.46.24-.57.44-.75,1.26-1.47,2.54-2.23,3.87,1.53.48,2.93-.85,4.54.29-1.2.53-2.19.97-3.17,1.41-.74.34-1.43.24-2.15-.11-1.5-.73-1.51-.7-2.61.52-1.25,1.38-2.73,1.26-3.34-.43-.36-.99-.9-1.56-2.02-1.88.17-.66.24-1.28.49-1.81.72-1.52,1.71-2.93,2.23-4.51.89-2.73,2.72-4.71,4.56-6.77.92-1.04,1.63-2.27,2.52-3.53-1.02-.4-1.6-.39-2.15.4-.48.69-1.15,1.26-1.77,1.85-.49.47-1.09.84-1.54,1.34-2.74,3.11-4.18,6.92-5.43,10.76-.83,2.54-1.17,3.1-3.92,3.46-.87.12-1.74.19-2.6.35-.44.09-.86.33-1.22.48.27.89.48,1.57.72,2.36.22.09.5.25.8.31.49.1.98.16,1.48.21,2.09.21,2.73,1.06,2.32,3.11-.3,1.5.25,2.42,1.73,2.71.6.12,1.25.12,1.86.04.71-.1,1.2.06,1.59.67.18.29.51.49.86.81.66-.43,1.25-.81,1.82-1.17-1.53-3.29-1.53-3.84-.01-4.69.1.44.16.85.29,1.23.14.4.26.86.53,1.15,1.31,1.36,3.43,1.48,4.94.31.44-.34.81-.77,1.21-1.17,1-1.02,1.38-1.01,2.59.1-.98.82-1.92,1.69-2.94,2.44-1.04.75-2.17,1.38-3.36,2.12.15.2.28.5.5.64.95.63,1.81.22,2.57-.38,1.14-.89,2.33-1.65,3.74-2.06,2.04-.6,2.17-.73,2.1-2.88-.06-1.95.51-3.68,1.28-5.41.19-.43.3-.9.47-1.39Zm61.08-20.17c.46,1.01,1.02,1.97,1.6,2.91.1.17.52.13.78.19.52-.88.19-1.54-.19-2.2-.43-.75-.84-1.51-1.25-2.25-.32.46-1.34.49-.95,1.35Zm-1.05,4.13c-.3-.72-.6-1.4-.87-2.09-.27-.72-.69-.9-1.46-.67-.88.27-1.81.35-2.71.52-.79.15-1.62.19-2.35.48-5.59,2.24-10.32,5.77-14.65,9.89-.43.4-.8.8-.35,1.63.4-.08.89-.08,1.28-.28.49-.25.92-.63,1.34-1.01,3.81-3.4,8.14-5.98,12.7-8.2,1.58-.77,3.24-1.16,5.08-.88-.18.4-.42.74-.74.88-.62.26-1.33.33-1.94.63-2.74,1.33-5.55,2.57-8.17,4.13-2.02,1.2-3.79,2.82-5.64,4.29-.29.23-.43.65-.81,1.27.67-.06,1.06.01,1.3-.15.58-.36,1.1-.82,1.62-1.26,1.68-1.41,3.42-2.71,5.52-3.43h0c1.07-1.3,2.61-1.82,4.09-2.41.25-.1.71-.12.87.03.91.91,1.82.43,2.78.14,1.25-.39,2.53-.66,3.78-1.03.48-.14.93-.42,1.43-.65-.58-.95-1.14-.77-1.74-.45-.94.51-1.92.8-2.99.38.26-1.58,2.14-.58,2.59-1.75Zm2-5.5s-.02,0-.03-.01c0,0,0,.02.02.03,0,0,0,0,0,0,0,0,0,0,0-.01Zm30.04,24.41c-.26-.18-.74-.29-1-.17-.24.1-.4.55-.44.86-.09.72-.02,1.46-.13,2.16-.09.55-.44,1.18.22,1.46.47.2,1.09.04,1.77.04-.17-.93-.64-1.54.07-2.27.57-.59.23-1.6-.48-2.09Zm-27.79-24.42s0-.03.01-.05c-.02.01-.04.02-.07.03,0,0,.01.01.02.02.01,0,.02,0,.03,0Zm.04,2.1c.48,1.55.76,3.15.22,4.76-.33,1,.12,1.5,1.04,1.83,1.08-.89-.08-2.59,1.27-3.31,1.12-.6,2.23-1.24,3.3-1.83-.25-2.8-3.15-1.88-4.35-3.3-.23-.27-.88-.19-1.34-.26-.05,0-.11,0-.17.01-.31.7-.19,1.37.04,2.1Zm-.09-2.12c-1.2-1.45-1.39-1.44-2.2.03.74.39,1.47.33,2.2-.03Zm26.73,22.73c-.91-.09-.96-.57-.79-1.21.31-1.21.63-2.42.89-3.64.12-.57.14-1.17.2-1.76-.13-.04-.25-.08-.38-.12-.17.26-.48.51-.49.78-.13,2.31-1.1,4.32-2.04,6.38-.49,1.07-.48,2.36-.07,3.44.28.72.28,1.28-.16,1.69-1.27,1.18-2.63,2.27-3.98,3.36-.13.11-.58.07-.66-.05-.14-.21-.25-.63-.14-.8.3-.44.72-.79,1.1-1.17.03,0,.05,0,.08.02,0-.03,0-.06,0-.1.4-.34.83-.65,1.18-1.04.92-1,.93-1.25.16-2.75-.45.89-.91,1.68-1.24,2.53-.15.37-.09.83-.1,1.25-.02.02-.04.03-.06.05,0,0,.06.05.06.05,0,0-.05-.04-.05-.04,0,0-.02.02-.03.03-1.6-.31-1.59-.49-1.22-2.03.99-4.07,2.9-7.81,4.11-11.8.02-.06.04-.12.06-.18.42-.95.59-2.12,2.04-2.06,1.28.05,2.69.95,2.98,2.2.59,2.54.35,4.95-1.44,6.98Zm-3.48-1.73c-.41,1.24-1.3,2.34-1.15,3.83,1.92-.93,1.43-2.41,1.15-3.83Zm-50.72,9.14c1.65.18,3.31.35,4.96.52.07-.18.15-.37.22-.55-.45-.35-.87-.77-1.36-1.05-2.65-1.49-5.51-1.48-8.33-.79-2.48.61-4.86,1.59-7.31,2.3-1.8.52-2.62,1.7-2.93,3.47-.16.89-.49,1.8-.94,2.59-.43.75-.55,1.4-.02,2.06.48.59,1.27.51,2.18-.15.35-.26.67-.62,1.06-.74.26-.08.7.13.91.36.13.14.07.66-.09.81-.41.37-.92.62-1.38.94-.99.68-1.19,1.45-.5,2.35.18.23.73.29,1.08.23.24-.04.44-.41.61-.67,1.5-2.28,3.02-4.52,3.47-7.35.21-1.31.93-2.57,1.56-3.78.37-.71,1.03-1.23,2-1.1,1.61.21,3.22.38,4.83.55Zm-7.51,5.41c-.15.6.46,1.08,1.29,1.15.07-1.04.13-2.01.2-2.98.07-.96,1.6-1.32,1.04-2.72-.34.1-.55.1-.67.2-1.37,1.12-1.48,2.82-1.87,4.35Zm-6.87,9.31c-.27-.74-.46-1.25-.63-1.77-.52-1.55-1.04-1.78-2.66-1.41-.69.16-1.47.16-2.16.02-.64-.13-1.31-.42-1.65.27-.22.44-.04,1.07-.04,1.61-.47.17-1.07.4-1.68.62.03.21.07.42.1.63,2.85,1.15,5.71.49,8.72.04Zm63.74-13.18c1.49.58,2.29.22,2.9-1.39-1.6-.37-2.14-.09-2.9,1.39Zm-75.25,11.03c.17.2.58.44.75.36,1.09-.5,2.07-1.14,2.52-2.58-1.45.05-2.27.92-3.18,1.58-.13.1-.19.54-.09.65Zm54.97-18.53c-1.12.65-2.61,1.02-2.27,2.9-.31-.1-.48-.17-.65-.22-2-.57-2.83.21-2.41,2.22.04.18,0,.38,0,.81-.39-.37-.59-.51-.73-.7-.18-.25-.29-.56-.49-.8-.57-.68-1.18-.68-1.66.06-.25.39-.32.91-.45,1.38-.1.36-.15.72-.3,1.47-.29-1.23-.48-2.03-.68-2.86-1.95.41-2.15,1.85-2.44,3.16-.23,1.06.16,1.54,1.24,1.58.61.03,1.26-.03,1.84-.22,1.54-.5,3.08-1.01,4.55-1.67,2.27-1.01,4.21-2.39,5.12-4.9.22-.61.9-1.06,1.4-1.57-.54-.69-1.19-1.17-2.07-.66Zm-.77,8.66c-.77.02-1.62-.19-2.14.61.28.94.96.96,1.68.95,1.5-.03,3-.07,4.5-.05,3.5.05,6.96-.2,10.36-1.14,1.17-.33,1.87-1.02,2.11-2.13.37-1.74-1.3-4.03-3.09-4.17-1.49-.12-3,0-4.49-.06-.78-.03-1.61-.06-2.33-.32-1.26-.46-2.46-1.1-3.69-1.66.21,2.41.23,2.42,2.69,2.82.62.1,1.24.13,1.86.24.29.05.56.22.84.33-.03.15-.06.29-.09.44-1.47-.11-2.94-.19-4.4-.34-1.69-.17-2.21.19-2.72,2.17.53.12,1.05.32,1.58.36,1.81.11,3.62.16,5.43.23.87.04,1.75.02,2.61.14.32.04.59.43,1.12.85-.67.21-1,.41-1.34.42-3.49.12-6.98.22-10.47.32Zm2.84-8s0,0,0,0c.02,0,.03.02.05.02,0-.03,0-.05,0-.08-.02.02-.03.03-.05.05Zm30.79-22.51c1.38,1.37,2.82,1.27,3.71-.13.4-.62.88-1.21,1.4-1.74,1.04-1.05,2.14-2.04,3.21-3.05-1.41-1.64-1.88-1.71-3.2-.44-1.53,1.48-3.03,2.98-4.52,4.49-.25.25-.41.58-.6.86Zm-73.82-35.7s0-.01.01-.02c0,0-.01,0-.02,0,0,0,0,0,0,.01Zm-13.19-4.84c2.18,1.23,4.34,2.47,6.54,3.67.51.28,1.11.39,1.93.68,0-1.43.02-2.54,0-3.66-.03-1.56-.18-1.79-1.73-1.74-1.76.05-3.33-.39-4.81-1.28-.21-.13-.43-.26-.67-.33-.74-.21-1.79.4-2.09,1.21-.29.79.27,1.14.82,1.46Zm13.21,4.82s0,0,0,0c.58-.14,1.16-.29,1.73-.43.36-.83-1.39-1.36-.23-2.34.48.22,1,.45,1.85.83-.17-.95-.12-1.69-.44-2.2-.41-.66-1.24-1.06-1.66-1.71-.39-.6-.5-1.39-.73-2.1-.25.08-.41.08-.47.16-1.69,2.09-1.55,4.48-1.02,6.88.08.36.66.6.99.91Zm-13.44-1.58c-.15-.92-.38-1.44-1.1-1.25-.51.13-.88.49-.52,1.25h1.62Zm-15.63-5.99c-.63-.64-.62-1.32,0-1.98.44-.47.93-.64,1.49-.22.45.34.89.69,1.33,1.04,1.78,1.45,3.56,2.91,5.34,4.36.09-.1.18-.21.28-.31-.36-.33-.71-.66-1.08-.97-.38-.32-.79-.61-1.18-.92-.91-.76-1.82-1.52-2.72-2.29-.72-.62-1.07-1.37-.81-2.33,1.83-.57,4.92,1.13,5.84,3.29,2.03.07,3.35,1.43,4.96,2.98-.75.11-1.18.17-1.71.24.44.47.81.85,1.2,1.27-.73,1.24-1.58.53-2.56.03.9.95,1.57,1.68,2.26,2.38.26.26.55.52.88.66,1.93.87,3.87,1.72,5.83,2.53.58.24,1.19.69,2.09.14-.36-.3-.58-.57-.86-.7-.57-.26-1.17-.43-1.75-.65-1.95-.75-2.05-1.1-.87-3.22,2.24,1.03,4.49,2.07,6.75,3.09,1.87.85,2.84,2.36,3.2,4.56-.25.21-.65.53-1.31,1.08-.34-1.29-.63-2.27-.86-3.27-.29-1.21-.64-1.56-1.67-1.64-1.05-.08-1.41.65-1.71,1.43-.16.4-.25.84-.28,1.27-.11,1.6.39,2.31,2.03,2.88-1.14.47-2.19.45-3.31.2-5.39-1.18-9.93-3.95-14.16-7.34-.46-.37-.8-.9-1.3-1.47.43-.03.66-.05,1.2-.1-1.12-.97-2.11-1.77-3.04-2.64-1.19-1.1-2.34-2.24-3.48-3.4Zm10.5,8.21c3.04,2.04,6.2,3.83,9.62,5.09.29.11.66-.04,1.27-.1-1.09-1.38-1.09-1.36-2.09-1.62-.72-.19-1.45-.36-2.14-.64-2.23-.89-4.44-1.82-6.66-2.73Zm37.5,13.09c.37.06.74.14,1.11.16,2.39.13,4.48.99,6.37,2.44.79.61,1.67,1.1,2.54,1.59.35.2.78.26,1.32.43.15-1.73-.71-3.02-1.16-4.39-.08-.24-.62-.48-.95-.48-1.44-.02-2.46-.7-3.33-1.78-.42-.52-1.02-.9-1.66-1.45-1.39.64-2.5,1.66-4.11,1.33-.31-.06-1.02.69-1.18,1.19-.23.73.48.87,1.05.96Zm-7.73-1.34c-.45.09-1.12-.38-1.55-.76-1.13-.99-2.4-1.26-3.87-1.06.2.53.48.92.81,1.24,2.62,2.5,5.28,4.95,7.86,7.49,1.68,1.66,3.18,3.52,4.86,5.19,1.76,1.74,1.82,1.68.77,3.99,1.76-.16,2.54-1.36,1.85-2.8-.58-1.23-1.32-2.4-2.02-3.58-.93-1.54-1.84-3.09-2.86-4.57-.51-.75-1.14-1.56-1.91-1.94-.79-.39-1.24-.73-1.57-1.6-.35-.93-.92-1.91-2.37-1.61Zm-5.21-11.65c.44,1.43.61,3.09,2.67,3.47.08-.74.15-1.39.22-2.03.26.57.34,1.13.49,1.67.38,1.37.56,2.92,2.58,2.85.19,0,.38.44.61.62.26.2.57.33.9.51.47-2.18-.14-3.46-1.73-3.76-.18-.77-.31-1.58-.56-2.35-.44-1.33-1.41-1.82-2.63-1.4-.89-1.52-2.65-2.67-4.51-2.96-.47,2.42.21,3.62,1.96,3.38Zm-6.03,1.64c.26.48.6.97.66,1.48.12.99.68,1.44,1.56,1.56,1.23.18,2.46.34,3.7.41.39.02.8-.3,1.27-.49-1.72-1.79-1.72-1.78-3.86-1.91-.74-.05-1.55.1-2.27-.52,1-.87,2.37.51,3.11-.74-.85-1.21-.86-1.17-2.04-1.41-.73-.15-1.65.17-2.13-.73-.76.77-.45,1.55-.01,2.35Zm-47.68-.9c-.12.29-.02.66-.02,1.18,1.34-.59,1.44-1.84,2.05-2.7.61-.86,1.08-1.83,1.72-2.68.67-.89,1.42-1.74,2.22-2.53.73-.72.87-2,2.33-2.49-1.18,2.78-3.41,4.74-3.71,7.71,1.23-.03,1.59-.79,2.06-1.54,1.19-1.9,2.46-3.74,3.73-5.59.18-.26.56-.39,1.09-.75-.1.63-.07,1.01-.22,1.29-.52.92-1.12,1.79-1.68,2.69-.3.49-.64,1.03.05,1.45.59.36,1.09.03,1.45-.45.37-.5.66-1.06.99-1.59.93-1.53,1.86-3.06,2.8-4.58-.08-.17-.15-.35-.23-.52-.73,0-1.46.02-2.18,0-.75-.03-1.5-.05-2.24-.19-.37-.07-.92-.33-.99-.59-.07-.31.21-.91.5-1.06.81-.42,1.68-.82,2.57-.94.95-.13,1.8.26,2.34,1.21.24.41.8.84,1.21.29.21-.27.16-.99-.05-1.31-1.12-1.65-3.54-2.32-5.35-1.43-3.12,1.52-5.51,3.83-7.1,6.93-.14.28-.41.59-.37.85.25,1.73-1,2.88-1.6,4.28-.44,1.03-.95,2.03-1.37,3.07Zm-29.94.11c.94-2.22,1.32-2.74,2.49-3.44-.25,1.22-1.66,1.97-1.28,3.48,1.33-.22,2.18-.9,2.8-1.98.57-1,1.24-1.94,2.04-3.18-.07,1.23-.12,2.05-.18,3.19.83-.22,1.49-.22,1.91-.54,1.58-1.2,3.07-2.51,4.62-3.79-.25-.33-.43-.56-.52-.68.19-.71.63-1.43.44-1.9-.18-.45-.39-.6.03-1.01.46-.44.29-.95-.18-1.27-.58-.4-1.3-.71-1.86-.09-.21.24-.05.88.04,1.32.04.23.29.42.45.62-.01.13-.03.27-.04.4-3.22-.47-6.03.23-8.33,2.51-2.17,2.15-3.64,4.64-4.32,7.72,1.24.11,1.56-.61,1.89-1.38Zm6.37.36c-.51,1-1.18,1.82-2.06,2.54-.7.56-.75,1.39.13,2.2,1.68-1.75,3.24-3.58,5.03-5.15,1.84-1.61,3.69-3.28,5.85-4.48.11.1.22.21.34.31-.25.35-.45.75-.75,1.05-2.36,2.39-4.74,4.75-7.09,7.15-.47.49-.88,1.07-1.2,1.66-.17.32-.1.77-.18,1.56.73-.44,1.18-.61,1.51-.92,1.6-1.47,3.21-2.94,4.74-4.48,3.07-3.08,6.63-5.47,10.5-7.42.59-.3,1.13-.68,1.75-1.05-.29-.5-.49-.81-.66-1.13-.82-1.57-1.53-1.98-3.09-1.38-2.61,1.01-5.27,1.95-7.52,3.71-2.12,1.64-4.25,3.27-6.36,4.92-.34.27-.74.55-.93.91Zm-31.37,23.27c-.91-.84-1.7-1.57-2.6-2.4-.06-.64.6-.86,1.09-1.2,2.69-1.81,5.4-3.59,8.06-5.44,1.07-.74,2.05-1.63,3.04-2.48,3.43-2.94,7.25-5.28,11.27-7.31.54-.27,1.18-.55,1.49.05.39.74.98,1.09,1.59,1.55.58.44.84,1.29,1.26,1.95.54.85.49,1.28-.44,1.82-1.07.63-2.21,1.16-3.33,1.71-1.5.74-2.76,1.71-3.27,3.5-1.14-.1-1.94.43-2.79,1.14-2.3,1.91-4.71,3.7-7.13,5.45-2.01,1.46-4.11,2.81-6.19,4.18-.41.27-.9.52-1.37.57-.35.04-.99-.19-1.06-.44-.12-.39.09-.9.23-1.33.04-.13.31-.19.48-.27,4.01-1.71,7.39-4.37,10.7-7.14,1.2-1,2.34-2.06,3.51-3.09.23-.21.45-.48.72-.59,2.77-1.1,4.56-3.67,7.28-4.83.09-.04.12-.2.17-.31q-1.07-.6-1.62-2.16c-2.34.3-9.04,4.61-10.01,6.62.54-.21.95-.27,1.24-.49.9-.67,1.71-1.48,2.64-2.09,1.4-.91,2.87-1.73,4.35-2.5.7-.37,1.32-.06,1.8.71-.53.99-1.59,1.35-2.5,1.72-1.73.69-3.09,1.84-4.49,2.99-2.93,2.43-5.84,4.88-8.85,7.21-1.61,1.25-3.35,2.37-5.28,2.85Zm-.06-2.67c1.97.19,6.72-2.96,9.47-6.53-3.12,2.15-6.24,4.3-9.47,6.53Zm38.18-17c-.42.34-.81.7-.74,1.6.64-.45,1.15-.69,1.51-1.08,2.33-2.5,5.39-4.01,8.21-5.77,1.83-1.14,4.21-1.46,6.38-2,1.53-.38,2.91-3.11,2.15-4.56-.05-.09-.2-.13-.43-.27-.73.59-1.34,1.48-2.05,1.58-1.14.16-1.96.75-2.86,1.26-3.33,1.88-6.44,4.05-9.17,6.75-.92.91-1.99,1.66-2.99,2.49Zm31.02-11.12c-.35.51-.79,1.01-.96,1.59-.7,2.31-1.34,3.26,1.87,4.47.36-.48.7-.85.93-1.28.56-1.02,1.16-2.04,1.58-3.13.33-.85-.42-2.43-1.12-2.74-.76-.34-1.57.02-2.3,1.09Zm-16.85-.41c.51-.26.97-.72,1.31-1.2.12-.17-.09-.76-.32-.94-.21-.16-.75-.16-.97,0-.52.4-.94.94-1.39,1.4.28.74.8,1.02,1.36.74Zm13.12-9.44q-1.27.11-1.97,1.03c.96.38,1.43-.07,1.97-1.03Zm64.79,38.44c-.22.19-.13.75-.21,1.37,2.26-.27,4.3-.52,6.52-.79-.83-2.29-1.72-2.82-3.93-2.17-.88.26-1.65.97-2.38,1.59Zm-3.44,3.46c.98-.06,1.25-.83,1.48-1.87-.83-.35-1.64-.68-2.66-1.11-.04,1.8.49,3.02,1.18,2.98Zm17.46,47.48c.56-.24,1-.77,1.61-1.28-1-1.01-1.74-.76-2.46-.33-.49.29-.76.79-.37,1.22.26.29.92.52,1.23.39Zm3.12-1.09c-.14.05-.29.23-.31.38-.02.15.11.31.29.76.27-.61.35-.8.43-.98-.14-.06-.31-.2-.42-.16Zm13.07,3.1c2.72-.88,5.43-1.75,8.12-2.71.31-.11.72-.81.63-.96-.21-.35-.67-.63-1.09-.75-.32-.09-.75.04-1.08.19-2.1.92-4.2,1.84-6.27,2.83-.44.21-.76.68-1.35,1.22.59.11.85.24,1.04.18Zm-20.91,2.47c1.39-.53,3.37-.53,4.11-2.59-1.3-.08-1.72-.84-2.02-1.81-.47-1.53-1.02-1.93-2.34-1.89-1.26.05-2.39,1-2.7,2.18-.21.81-.53,1.59-.84,2.51,1.01.97,2.29,2.17,3.78,1.6Zm-140.45-47.76c-.73-.29-1.16-.46-1.87-.74.33,1.15.65,1.55,1.87.74Zm105.95,44.96c1.15.87,1.8.79,3.11-.46-1.82-.94-2.06-.89-3.11.46Zm21.96,4.93c2.29-.25,4.58-.5,6.87-.77.6-.07,1.18-.24,1.81-.36-.22-.93-.4-1.71-.61-2.62-.5-.25-.94-.48-1.39-.7-.79-.38-1.37-.33-1.79.61-.3.66-.84,1.21-1.28,1.81-.43.59-.94.71-1.63.42-.62-.26-1.29-.46-1.96-.53-1.12-.13-1.76.46-1.63,1.44.14,1.03.93.78,1.6.71Zm7.16-9.38c-3.42-.72-6.84-1.4-10.27-2.05-.77-.15-1.58-.11-2.37-.16-.02.13-.04.25-.07.38,3.99,1.12,7.98,2.24,11.95,3.35-.05.94-.66,1.04-1.21.94-3.06-.55-6.14-.9-9.06-2.19-1.53-.67-3.4-.56-5.12-.78-.16-.02-.4.09-.5.21-.83.99-1.91.71-2.96.66-.89-.04-1.84-.38-2.78.39,1.01.93,2.27-.33,3.23.59.08.92-.59,1.28-1.37,1.2-1.61-.17-3.21-.46-4.8-.76-.61-.12-.98-.53-.73-1.34.56.04,1.2.24,1.67.05.47-.18.78-.77,1.15-1.19.52-.58,1.1-.89,1.94-.91,1.93-.04,3.86-.23,5.8-.53-2.08-.9-4.32-.74-6.55-.86-.26-.6-.52-1.15-.74-1.71-.47-1.21.07-2.09,1.37-2.24.31-.04.63-.03.93.02,2.57.46,5.15.92,7.71,1.43.47.09.96.34,1.34.63,1.3,1.01,2.8,1.09,4.36,1.27,3.16.35,6.26,1.07,9.1,2.61.09.05.11.21.19.39-.51.99-1.32.79-2.22.6Zm-16.63-4.89c-2.76-.85-4.4-.64-5.18.58,1.65-.19,3.2-.36,5.18-.58Zm56.88-4.79c.92-.96,1.66-2.11,2.53-3.23-.67-.58-1.59-.62-1.3-1.74.17-.67-.58-.87-1.32-.49-1.75.88-2.85,2.27-3.38,4.25.36.31.76.66,1.15.99-.09,1.29-.75,2.06-1.88,2.55-.9.39-1.76.92-2.19,2.08,1.23.36,1.26.4,2.06-.33,1.48-1.33,2.97-2.66,4.34-4.09Zm-46.93-33.64c-.61.57-1.51.86-2.3,1.2-1.58.68-3.18,1.31-4.88,2,.63,1.19,1.48,1.78,2.53,2.06,3.56.97,7.12,1.25,10.7.02.82-.28,1.71-.36,2.52-.67.55-.21,1.28-.56,1.43-1.01.26-.78.77-1.03,1.39-1.35.78-.4,1.54-.89,1.33-2.03-1.01-.57-1.81.1-2.6.49-3.57,1.77-7.43,2.52-11.28,3.3-.58.12-1.21.22-1.54-.48.15-.19.21-.36.29-.38,4.2-.95,8.36-2.02,12.34-3.72.56-.24,1.23-.19,1.84-.31.94-.2,1.87-.44,3.03-.71-.33-.49-.37-.64-.47-.69-.21-.12-.45-.2-.68-.29-1.89-.7-3.83-.39-5.76-.3-2.91.14-5.66.75-7.9,2.85Zm.01-5.51c.44.25,1.08.22,1.62.2.14,0,.27-.44.46-.77-1.03-.27-1.92-.52-2.82-.72-.92-.21-1.77-.88-2.95-.42.97,1.37,2.55,1.07,3.69,1.71Zm4.13-2.51c-3.01-2.79-6.83-3.04-10.74-3.91.12,1.51.81,2.14,1.89,2.31,2.42.38,4.68,1.18,6.84,2.3.9.46,1.5.15,2.01-.7Zm50.51,46.59c.72-.41,1.3-1.06,2.21-1.83-1.47-.76-2.48-1.34-3.55-1.81-.73-.32-2.06.28-1.96.9.15.87.54,1.78,1.07,2.49.54.73,1.5.66,2.23.25Zm-41.42-42.07s.06-.1.09-.15c-.72-1.05-1.33-1.46-1.91-1.16-.19.1-.38.5-.33.71.17.7.98.9,2.15.59Zm43.78,36.64c-.8-.58-1.71-.33-2.58-.26-.05.13-.1.26-.15.39.71.41,1.4.88,2.15,1.19.29.12.73-.16,1.1-.25-.17-.37-.24-.86-.53-1.07Zm-8.07-21.69c.25-.28.4-.41.47-.57.18-.36.56-.92.44-1.07-.26-.34-.77-.63-1.2-.66-.45-.02-1.04.17-1.35.48-.8.78-1.54,1.64-2.21,2.53-.52.69-.24,1.33.7,2.23.62.6,1.2.61,1.79.03.79-.77,1.55-1.56,2.35-2.37-.37-.22-.63-.38-1-.6Zm-33.88-15.21c1.3.6,2.6,1.27,3.98,1.58,1.08.24,1.99.39,2.6,1.44.2.35.84.47,1.31.63,1.98.68,3.91,1.67,6.15,1.13.31,1.44,1.23,1.98,2.39,2.27.97.25,1.9.66,2.88.82,1.69.27,2.91.97,3.41,2.72.08.27.68.63.94.57.57-.15.69-.67.39-1.2-.1-.17-.24-.32-.53-.71,1.15.36,2,.58,2.81.88,1.18.45,2.58.24,3.58.71,1.34.62,1.96.22,2.7-.64,1.26-1.47,2.52-2.93,3.75-4.43.29-.35.42-.83.6-1.19-.97-.93-1.62-.03-2.43.16-.38-1.09-.98-1.84-2.25-1.87-.52-.02-1.02-.48-1.56-.61-1.44-.36-2.88-.77-4.35-.95-1.61-.19-3.19-.31-4.76-.81-3.36-1.08-6.88-1.14-10.37-1.25-2.2-.07-4.46.53-6.47-.9-.18-.13-.48-.1-.73-.1-1.25,0-2.5,0-3.74.05-.45.02-.89.18-1.76.38.68.64,1.01,1.13,1.46,1.34Zm52.6,50.76c1.45,1.17,2.9,2.33,4.44,3.57.46-.35.93-.71,1.79-1.37-2.26-1.04-3.84-2.53-6-2.6l-.22.39Zm-71.69,26.32c-.31.05-.84.64-.78.8.14.38.6.95.89.93,1.32-.08,2.62-.35,3.93-.55.05-.21.09-.42.14-.63-.35-.25-.7-.68-1.07-.7-1.04-.05-2.09,0-3.12.15Zm-4.99.42c-.81.07-1.61.29-2.61.48-.37,1.65-.17,1.86,1.34,1.48.43-.11.94.13,1.38.03.49-.11,1-.35,1.38-.68.14-.12.04-.83-.16-.96-.36-.25-.89-.39-1.33-.35Zm11.61-.41c.16.29.24.66.38.68.46.08.95.08,1.41,0,.76-.12,1.6-.14,2.15-1.15-1.46-.48-2.68-.36-3.94.46Zm6.77-1.06c1.17,1.02,1.42.99,2.34-.23-.8-.54-1.49-.35-2.34.23Zm3-.57c.02.14.04.29.06.43.37-.02.74-.04,1.11-.06-.02-.19-.05-.38-.07-.56-.36.06-.73.13-1.09.19Zm-43.45,3.15c-1.03-.21-2.07.08-2.35.66-.39.81.05,1.67.96,1.82.24.04.49,0,.69,0,.54-.07,1.06-.04,1.51-.22.28-.11.64-.53.62-.78-.06-.82-.61-1.31-1.43-1.48Zm7.66.2c-.26.07-.65-.13-.91-.3-.62-.39-1.28-.44-1.63.19-.26.47-.43,1.31-.18,1.66.25.35,1.26.58,1.6.36.77-.5,1.51-.6,2.33-.38.13-.28.28-.45.27-.61-.05-1.2-.24-1.29-1.48-.92Zm8.48-3.95c.29-.62.04-2.01-.44-2.48-.49-.47-1.09-.3-1.28.37-.07.24-.05.5-.1,1.02.06.22.09.74.32,1.16.34.63,1.2.56,1.5-.08Zm-150.88-28.28c.65-.54,1.14-.95,1.62-1.35-1.46-2.25-4.67-2.23-6.65-.03.71,1.96,2.08,2.4,4.37,1.36-.68.98-1.04,1.5-1.53,2.21.5.21.93.57,1.2.47,1.92-.68,3.79-1.46,5.54-2.74-1.59-1.37-2.9.51-4.54.08Zm235.4,1.97s0-.01,0-.02c0,0-.02,0-.03,0,0,.02,0,.03-.01.04.01-.01.03-.02.04-.03Zm-24.13,12.57c1.28,2.44,2.58,3.2,3.86,2.38-1.01-1.06-2.02-2.03-3.86-2.38Zm29.05-9.27c1.08.43,1.76.07,2.45-1.02-.54-.31-.99-.59-1.46-.83-1-.51-2.04-.93-3-1.5-1.02-.6-1.95-.65-2.9.05-.1.45-.2.89-.31,1.38,1.86.67,3.56,1.25,5.23,1.92Zm13.4-20.5c.59,1.24.13,2.44.1,3.66-.02.71-.18,1.25-.78,1.78-.98.86-.5,2.05-.29,3.18-.87.62-1.83,1.1-1.46,2.48.1.39-.58,1-.99,1.63-1.54-1.34-3.2-1.49-4.96-1.34-.77.07-1.91-.84-2.12-1.61-.07-.26-.02-.64.12-.87.69-1.1,1.76-3.86,1.91-5.13-.36-.04-.72-.1-1.08-.12-.43-.02-.86,0-1.17,0-1.08,1.14-.21,1.72.74,2.38-1.18.38-2.47.24-2.59,2.13-.04,0-.06.01,0,.03,0,0,0-.02,0-.03.08,0,.26.02.33.12.52.73.37,1.24-.48,1.24-1.08,0-1.6.5-2,1.43.57.38,1.14.76,1.86,1.23-.74.57-1.27.98-2.14,1.64,1.63.33,2.84.52,4.01.84,1.18.32,2.34.76,3.5,1.14-.51,1.57-.8,1.79-1.76,1.46-1.41-.49-2.87-.9-4.21-1.55-1.09-.53-2.18-1.05-3.28-1.56-3.46-1.58-7.13-2.23-10.81-2.89-.22-.04-.47.03-1.11.09.51.47.73.82,1.04.94,2.78,1.11,5.56,2.22,8.37,3.25.9.33,1.18.79.9,1.64-1.14.11-2.28.21-3.65.34,0,0-.05.32-.12.8-3.88-1.48-7.67-3.19-11.93-3.89.2,1.32,1.13,1.61,1.92,2.02,4.17,2.12,8.36,4.23,12.53,6.35.49.25.95.55,1.52.89-.92,1.3-2.19,1.71-3.47,1.39-1.18-.29-2.39-.88-3.31-1.67-2.37-2.04-4.92-3.75-7.76-5.03-.51-.23-1.13-.65-1.58.17,1.99,1.33,3.87,2.74,5.9,3.89,1.96,1.11,4.05,1.99,5.68,3.7-.73.71-1.33.28-1.82,0-1.74-.98-3.43-2.03-5.15-3.06-.05-.03-.09-.09-.15-.11-3.13-1.52-6.27-3.03-9.41-4.54-.08-.04-.23.05-.45.1-.17.77.43,1,.93,1.33,1.1.71,2.2,1.42,3.29,2.16.51.34.49.37.71,1.49-2.24-.42-3.76-2.05-5.57-3.09-.54.74-.04,1.06.33,1.33,2.38,1.82,4.78,3.6,7.17,5.41.89.67,1.76,1.36,2.65,2.05-1.67,1.67-2.1,1.65-3.6.26-3.06-2.84-6.15-5.65-9.9-7.62-.82-.43-1.61-.76-2.43.1,1.85,1.52,3.93,2.84,5.51,4.6,1.61,1.8,4.05,2.56,5.51,4.61-.86.73-1.55.45-2.19.05-.53-.33-1.04-.71-1.47-1.15-2.47-2.45-5.64-3.78-8.65-5.37-.08-.04-.23.04-.63.13,1.47,1.71,3.52,2.54,4.98,4-.06.12-.12.24-.17.36-.38-.04-.82.02-1.12-.15-1.29-.75-2.55-1.57-3.8-2.38-.99-.65-1.98-1.31-2.93-2.02-.74-.54-1.46-.62-2.41-.14,1.24.95,2.47,1.76,3.53,2.76,1.03.97,1.71,2.41,2.86,3.14,1.16.73,2.27,1.46,3.22,2.43.24.25.41.58.74,1.07-.66.24-1.16.41-1.65.61-.44.18-.94.31-1.27.62-.73.67-1.37.46-2-.05-.38-.31-.72-.69-1.05-1.07-1.23-1.42-2.4-2.86-4.03-3.93-1.55-1.02-2.85-2.41-4.29-3.61-.38-.32-.87-.51-1.31-.76-.1.13-.21.26-.31.39,1.46,1.71,3.22,3.25,4.28,5.18,1.1,1.99,3.46,2.93,4.07,5.24-1.26,1.2-2.76.74-4.12.71-.81-.02-1.85-2.48-1.64-3.47.06-.29.17-.57.26-.9-1.6-.86-3.13-.96-4.91-.22.83,1.42,1.63,2.72,2.37,4.07.25.46.33,1,.49,1.51-.51.12-1.02.35-1.52.33-.73-.02-1.36-.19-2.03.46-.62.6-1.43.21-1.91-.76-.5-1-.84-2.08-1.42-3.03-1.1-1.82-1.15-1.79-3.48-1.05.32.66.63,1.3.95,1.94.36.72.74,1.44,1.1,2.16.34.68.46,1.33-.39,1.73-.86.41-2.33-.03-2.58-.82-.19-.58-.23-1.21-.35-1.84.41-.24.76-.46,1.25-.75-.6-.72-1.1-1.4-1.7-2.01-.63-.64-1.35-.31-2.26-.08.81,1.43,1.53,2.72,2.26,4.01.3.53.85,1.06.16,1.64-.5.42-1.22-.02-1.69-.94-.82-1.59-1.66-3.18-2.53-4.82-.75.19-1.27.33-2.08.53.56,1.38,1.06,2.63,1.56,3.87.8,1.97.43,2.64-1.61,2.37-.94-.12-1.35.36-2.02.93-1.69-1.33-1.33-3.3-2.04-5.08.86,0,1.44.11,1.93-.03.49-.14.89-.55,1.47-.93-1.29-1.08-2.27-.31-3.29-.05-1.08.27-2.19.47-3.36.71.42.91.87,1.75,1.2,2.63.34.91.56,1.86.82,2.78-1.05.35-1.84.73-2.67.86-.45.07-1.25-.17-1.4-.49-.6-1.29-1.04-2.67-1.48-4.03-.08-.26.06-.59.09-.85.86-.48,2.05,1.09,2.63-.65-1.67-1.15-2.07-3.1-2.84-4.83-.3-.66-.42-1.45-1.56-1.41,0,2.27,2.06,3.88,2.06,6.06-.13.08-.27.16-.4.24-.33-.3-.74-.55-.97-.92-.9-1.42-1.75-2.88-2.61-4.33-.34-.58-.6-1.26-1.47-.98.42,1.74.98,3.4,1.18,5.11.26,2.18,1.44,3.96,2.14,5.95.43,1.23.27,1.52-1.06,1.67-1.85.21-2.15-.04-2.4-1.89-.16-1.21-.03-2.63-.63-3.57-1.09-1.71-1.43-3.56-1.88-5.43-.14-.6-.31-1.19-.48-1.86h-2.5c.5,2.27,1.7,4.33,1.58,6.69-.51.29-.98.57-1.36.79.56.86,1.21,1.6,1.55,2.46.33.83.35,1.79.5,2.61-1.63,1.23-2.54.08-3.54-.71h0s0,0,0,0c.04-.69.12-1.37.1-2.06-.07-3.06-.4-6.07-1.63-8.92-.22-.52-.37-1.1-1.28-.75.14.47.26.93.4,1.37,1.08,3.38,2.17,6.77,2.4,10.35-.03.22-.06.44-.09.66-.09.02-.18.04-.28.05-.78-1.96-1.57-3.92-2.34-5.89-.78-2.01-1.52-4.03-2.28-6.05-.16.05-.31.09-.47.14.28,1.37.7,2.72.78,4.09.09,1.33,1.36,2.65.21,4.04-.92-.21-.72-.99-.97-1.51-.95-1.98-1.76-3.98-2.07-6.18-.13-.98-.24-.96-1.39-.69.62,2.44,1.24,4.88,1.91,7.53-1.33-.27-2.11-.76-2.51-1.87-.5-1.39-1.09-2.74-1.64-4.12-.16.04-.32.07-.48.11.21,2.71.43,5.43.66,8.36,1.07-.11,1.93-.14,2.76-.3,2.03-.39,2.47,1.05,2.29,2.61-.08.71-.98,1.05-1.6.67-.36-.22-.64-.57-.98-.88-.44.07-.97,0-1.28.23-1.22.92-2.77.35-4.03.98-2.3-.67-4.51.14-6.76.32-1.38.11-2.77-.22-4.15.4-.46.21-1.17-.19-1.77-.22-3.11-.12-6.23.3-9.32-.32-.4-.08-.84.09-1.26.13-.3.02-.65.11-.89,0-1.75-.79-3.56-.87-5.41-.58-.24.04-.48-.01-.73-.02-1.68-.06-3.35-.13-5.03-.19-.56-.02-1.13.03-1.67-.07-3.18-.57-6.35-1.21-9.53-1.73-.82-.13-1.69.08-2.7.14-.39-.31-.94-.76-1.46-1.18-.62.46-1.09.81-1.7,1.28-.25-.6-.44-1.03-.67-1.58-.45-.07-.99-.15-1.54-.23-.15.19-.31.31-.36.47-.16.53-.41.92-1.04.83-.59-.09-.51-.52-.58-.97-.05-.34-.5-.61-.84-.98-.49.75-.82,1.25-1.23,1.88-.33-.36-.57-.61-.88-.95-.56.05-1.27,0-1.9.19-1.01.31-1.84.45-2.73-.42-.67-.65-1.5-.26-2.06.29-.7-.35-1.35-.96-1.94-.91-2.44.23-4.71-.73-7.06-.84-2.53-.11-4.86-.87-7.28-1.35-3.03-.61-6.13-.86-9.19-1.35-1.65-.26-3.28-.69-4.91-1.09-5.27-1.27-10.57-2.43-15.79-3.87-5.11-1.41-10.16-3.07-15.21-4.72-1.64-.54-3.33-1.12-4.46-2.62-.16-.21-.55-.23-.83-.35-.67-.3-1.33-.61-2.13-.98.26-.4.36-.72.59-.87,1.65-1.13,3.31-2.24,4.98-3.32,1.15-.74,1.74-.63,3.08.61-1.26.9-2.48,1.77-3.78,2.7,2.18,1.23,2.2,1.25,3.9-.12,2.53-2.04,5.06-4.08,7.54-6.18.77-.65,1.74-1.25,1.74-2.79-.6.17-1.1.18-1.45.42-1.38.96-2.71,1.99-4.06,3-.8.6-1.55,1.26-2.39,1.79-1.03.65-1.52.47-2.51-.75,1.17-1.57,2.99-2.33,4.51-3.48.6-.45,1.23-.86,1.79-1.36.17-.15.26-.62.15-.8-.12-.19-.57-.35-.78-.27-.46.16-.86.49-1.29.74-2.04,1.21-4.06,2.46-6.13,3.61-.7.39-1.54,1.01-2.47-.18,2.82-1.87,5.62-3.72,8.56-5.67-.93-.7-1.54-.37-2.12-.07-2.54,1.33-5.07,2.67-7.61,4.01-.78.41-1.57.8-2.61.37.05-.5.1-1,.17-1.6-1.63.32-3.24.65-4.49-1.07.46-.37.87-.71,1.3-1.05-.01-.08,0-.21-.06-.29-1.29-1.68-2.94-.89-4.47-.56-1.46.31-2.89.77-4.33,1.18-.78.22-1.47-.02-1.79-.66-.64-1.27-1.6-2.19-2.7-3.03-.18-.14-.28-.4-.65-.94.4-.2.83-.42,1.29-.66-.55-1.09-.46-2.3-1.85-2.73-.71-.22-.76-1.08-.28-1.73.11-.15.3-.23.42-.38,1.11-1.33.84-2.06-.9-2.46-.11-.03-.21-.12-.31-.19-.35-2.02-.31-2.08,2.05-2.72.17-.73.56-1.54.49-2.3-.16-1.79.92-2.69,2.21-3.43.58-.34,1.15-.59.95-1.36-.24-.91.36-1.17.96-1.56.82-.52,1.81-1.02,2.27-1.8.54-.92,1.22-1.53,2.07-2.07,2.66-1.71,5.09-3.84,8.32-4.51.23-.05.46-.21.66-.35,3.88-2.91,8.54-3.99,12.95-5.71,3.78-1.48,7.77-1.73,11.69-2.4,2.04-.35,2.72.2,2.69,2.24-.03,1.95.52,3.64,1.71,5.18-.94,1.3-1.87,2.59-2.86,3.97-.3-.46-.56-.87-.9-1.4-.11.26-.24.42-.21.54.39,1.51.77,3.02,1.21,4.51.21.72.23,1.35-.39,1.88-.54.46-1.11.4-1.32-.28-.68-2.27-1.37-4.54-1.87-6.85-.25-1.13.3-2.15,1.27-2.9.34-.26.53-.72.75-1.11.27-.47.43-1.01.76-1.43.37-.46.79-.85.38-1.47-.38-.58-.96-.89-1.61-.68-1.29.42-2.58.86-3.8,1.45-1.28.61-2.44,1.56-3.98.71-.23-.13-.62-.06-.91.02-1.91.53-3.95.67-5.51,2.15-.34.32-1.03.29-1.56.41-.63.14-1.26.27-1.89.4-.02.14-.05.28-.08.42,1.56,1.1,3.11,2.2,4.76,3.37.52-.27,1.06-.54,1.86-.96-.91-.52-1.61-.89-2.26-1.32-.79-.51-.82-1.06-.11-1.64.92-.75,1.89-1.21,3.05-.43.34.23.77.33,1.34.56-.27-.66-.46-1.12-.69-1.66,1.57.32,2.16.92,2.24,2.17.09,1.47.18,2.93.27,4.42-1,.37-1.93.66-2.05,1.92.35.16.72.36,1.1.51.38.16.78.27,1.3.45-.78,1.85-2.21,2.75-3.99,3.63-1-1.31-1.97-2.61-3.06-4.04-1.35.97-2.57,1.72-3.63,2.66-.46.41-.64,1.17-.86,1.8-.36,1.03-.74,1.99-2.24,2.06,1.22.59,1.13,1.53,1.07,2.47-.12,2.11.55,4.03,1.33,5.97,1.48,3.7,4.05,6.6,6.81,9.28,1.48,1.44,3.52,2.33,5.33,3.42,1.27.77,2.33,1.85,3.87,2.2,2.31.53,4.59,1.19,6.86,1.86.62.18,1.18.6,1.78.88.26.12.55.2.84.24,1.53.22,3.13.21,4.59.65,6.41,1.94,12.87,3.62,19.47,4.74,3.08.52,6.2.76,9.3,1.18,2.17.3,4.34.6,6.48,1.07,3.74.81,7.51,1.01,11.32,1.13,2.47.08,4.92.47,7.38.66.92.07,1.86-.1,2.79-.05,3.93.2,7.86.49,11.79.66,2.37.11,4.74.06,7.11.09.19,0,.41-.06.56.02,2.01,1.17,4.2.23,6.3.54,2.07.3,4.23.06,6.35,0,1.26-.04,2.5-.1,3.22.51,1.32-.28,2.3-.61,3.29-.67,3.43-.21,6.86-.46,10.29-.45,4.18.02,8.35-.21,12.46-.82,4.4-.66,8.83-.63,13.25-.99,1.98-.16,3.93-.83,5.95-.32.11.03.25.02.37-.02,3.6-1.22,7.43-.86,11.1-1.55,1.4-.27,2.76-.74,4.16-1.05,3.24-.72,6.44-1.51,9.41-3.05.5-.26,1.04-.45,1.58-.59,2.14-.53,3.98-1.67,5.91-2.67,2.32-1.21,4.71-2.26,7.07-3.38.17-.08.38-.1.51-.21,2.12-1.89,4.59-3.41,6.27-5.75.67-.93,1.04-2.1,1.38-3.22.31-1.01.44-2.07.6-3.12.2-1.31-.01-1.68-1.31-2.03-5.46-1.46-9.21-5.34-13.02-9.15-.16-.16-.22-.43-.41-.81,1.44-1.53,2.91-3.04,4.68-4.2.48-.31,1.33-.06,2.14-.06-.25-1.67.89-2.59,2.27-3.49,1.41-.92,2.62-2.12,3.99-3.1,1.7-1.22,2.6-1.06,4.25.6-.69,1.45-2.13,2.17-3.43,2.68-1.26.5-2.05,1.86-3.57,1.79-.12,0-.29.23-.38.39-1.06,2.01-2.87,3.25-4.61,4.58-.36.27-.6.7-.93,1.09.96.57,1.47-.05,2.01-.4,1.37-.88,2.69-1.82,4.05-2.71.38-.24.83-.37,1.44-.63.08,1.47-.74,2.05-1.53,2.61-.97.68-1.99,1.29-2.99,1.93-.21.14-.43.26-.62.42-.52.41-1.03.95-.54,1.55.2.25,1.08.2,1.49-.01,1.71-.91,3.35-1.94,5.03-2.9.98-.56,1.97-1.1,2.99-1.56.46-.21,1.01-.2,1.52-.29.07.11.13.23.2.34-.21.33-.35.79-.65.97-1.01.61-2.06,1.13-3.12,1.65-.77.38-1.68.58-1.69,1.73.79.52,1.47.15,2.12-.2,1.71-.91,3.4-1.84,5.1-2.78.96-.53,1.91-.96,2.89-.07-.01.97-.78,1.07-1.39,1.34-2.06.9-4.13,1.77-6.19,2.68-1.03.45-1.06.53-1.22,1.99.52-.15.98-.24,1.4-.41,2.84-1.14,5.65-2.34,8.51-3.43.84-.32,1.79-.34,2.81-.52.49-1.17,1.76-1.6,2.99-2.02,1.18-.4,2.4-.68,3.6-.99.72-.19,2,.71,2.19,1.57.2.93-.49,1.26-1.17,1.39-2.12.4-4.13,1.35-6.35,1.19-.18-.01-.4,0-.54.1-2.28,1.56-5.01,1.81-7.54,2.64-.63.21-1.27.41-1.88.82.98.52,1.97.37,2.95.14,1.87-.44,3.73-.96,5.61-1.34.9-.18,1.84-.14,2.34-.17,1.12-.45,1.87-.83,2.67-1.04,1.45-.38,2.92-.68,4.39-.99,1.08-.23,2.12-.31,2.73,1.1-.36.23-.68.52-1.06.64-1.73.55-3.46,1.43-5.2,1.47-2.4.06-4.48,1.2-6.8,1.43-1.99.19-3.95.59-5.92.95-1.25.23-1.33.33-1.89,1.5.48.71,1.17.52,1.83.39,2.38-.49,4.75-1.09,7.16-1.45,1.61-.24,3.36-.78,4.78.86,1.22-1.93,3.2-1.74,4.89-2.19,1.25-.33,2.57-.39,3.9-.57.62.77,1.1,1.45.39,2.5-.26.38-.22,1.17,0,1.62Zm-254.65,4.36c-.41-2.82-2.56-3.47-5.88-1.76.05.71.11,1.48.18,2.41,2.03-.23,3.87-.44,5.71-.65Zm.41,3.21c-.15-.54-.26-.93-.39-1.43-1.16.28-2.21.54-3.5.86.21-.67.35-1.09.49-1.54-2.29.05-2.61.81-1.48,3.42,1.53-.41,3.07-.83,4.88-1.32Zm4.05-18.85c-.37-.47-.58-.74-.67-.85.21-1.02.39-1.88.6-2.91-.75-.12-1.24-.19-2.01-.32.23.88.93,1.49.16,2.09-.67.52-1.29.63-2.05.2-1.02-.58-1.55.09-2.19.92.44.19.75.26.97.44.26.21.44.51.66.77-.31.26-.59.62-.94.74-.32.12-.73-.04-1.1-.04-.37,0-.74.05-1.52.11.81.6,1.27.93,1.89,1.39-.51.61-.88,1.18-1.38,1.6-.49.41-1.11.67-1.69,1,.11.85.12,1.74.38,2.55.31.98.81,1.03,1.67.41.83-.6,1.46-1.33,1.66-2.47-.32-.27-.68-.58-1.12-.95.47-1.11.92-1.95,2-2.3.27-.09.6-.5.62-.79.07-1.03.79-1.15,1.55-1.26.78-.12,1.57-.22,2.53-.35Zm4.97-8.38c1.42,1.48,1.42,1.45,3.26,1.23.45-.05.94.19,1.42.3.41.1.82.21,1.3.33-.99-1.29-1.84-2.4-2.85-3.71-.88,1.11-2.59.43-3.12,1.85Zm2.31,6.33c.59-.55,1.08-1,1.59-1.47-1-.59-2.19-.88-2.5-1.57-.6-1.33-1.71-1.68-2.75-2.35-.91.66-1.76,1.28-2.87,2.1,2.27,1.15,4.37,2.2,6.53,3.29Zm9.01,36.29c1.54-1.12,2.79-2.66,4.07-4.1.8-.89,1.82-1.69,2.09-3.11-1.01-.44-1.58.2-2.21.66-2.45,1.82-4.91,3.63-7.36,5.46-.67.5-1.32,1.05-2.06,1.65,2.2,1.44,3.99.52,5.47-.55Zm2.82,1.75c.65-.58,1.31-1.15,1.93-1.77,1.19-1.19,2.35-2.41,3.51-3.63.53-.56.83-1.15-.1-1.71-2.78,2.4-5.58,4.81-8.44,7.28,1.82.89,1.93.88,3.11-.17Zm2.41,2.24c2.53-2.52,4.93-4.92,7.53-7.5-1.31-.57-2.1-.6-2.79.21-.23.27-.61.42-.9.65-2.13,1.7-4.1,3.57-5.98,5.81.83.32,1.5.58,2.15.83Zm19.65.55c1.43-2.32,2.1-3.58,1.86-4.88-.28.23-.54.38-.72.61-1.11,1.43-2.2,2.88-3.3,4.31-.51.66-.97,1.42-2.36,1.19,1.47-2.26,2.81-4.31,4.14-6.36-.83-.62-1.46-.66-2-.04-1.26,1.46-2.6,2.88-3.7,4.46-1.16,1.67-2.09,1.96-4.21.63.79-1.04,1.59-2.05,2.34-3.09.79-1.09,1.54-2.21,2.29-3.31-.75-.68-1.27-.41-1.74.08-.69.72-1.35,1.47-2.04,2.2-.69.72-1.37,1.45-2.12,2.11-.26.23-.7.25-1.4.48,1.02-2.48,3.58-3.24,4.29-5.47-.71-.53-1.23-.39-1.83.17-1.99,1.89-4.03,3.72-6.04,5.58-.44.41-.83.88-1.24,1.31,1.62,1.77,2.58-.62,3.97-.44.06.45.12.85.21,1.46,1.08,0,2.13-.1,3.15.03.82.11,1.7.35,2.39.79,1.06.68,1.99,1.26,3.13.21.13-.12.43-.06.82-.09-.17.73-.29,1.29-.44,1.92.54.18,1,.34,1.4.47,1.46-1.24,2.24-2.8,3.17-4.31Zm10.02-2.9c-1.15-.69-1.7,0-2.2.6-1.04,1.24-2.03,2.53-3.04,3.8-.42.53-.85,1.05-1.87.83.85-2.36,2.63-3.99,3.81-5.97-1.89-.97-2.04-.98-3.16.5-.56.74-.99,1.59-1.46,2.39-.35.59-.53,1.38-1.03,1.76-1.26.97-1.46,2.45-2.24,3.69,1.12.61,1.88.5,2.49-.53.36-.61.84-1.21,1.95-1.02-.33.84-.6,1.54-.96,2.44.87.1,1.57.18,1.91.22,2.63-2.72,3.37-6.19,5.78-8.72Zm-1.12,8.83c1.64-2.58,3.08-5.26,4.36-8.23-1.51-.33-1.57-.31-2.17.69-1.03,1.7-2.07,3.4-3.08,5.12-.51.88-.96,1.79-1.48,2.75.93.32,1.71.72,2.38-.33Zm7.29-7.67c-1.33-.07-1.37-.1-1.87.72-.91,1.48-1.8,2.99-2.63,4.52-.57,1.05-1.05,2.15-1.65,3.41h1.91c1.43-2.91,2.79-5.68,4.24-8.64Zm2.4,10.28c1.19-3.29,2.29-6.31,3.38-9.34-.69-.44-1.19-.45-1.56.15-.33.53-.64,1.07-.9,1.63-.67,1.46-1.28,2.96-1.97,4.41-.26.54-.67,1.02-1,1.53.24-1.51.7-2.85,1.1-4.22.39-1.31,1.47-2.46.99-4.32-1.81,1.66-1.91,4.03-3.24,5.68-.68.85-1.28,1.98-1.12,3.45,1.39.33,2.76.65,4.33,1.02Zm3.98.27c1.2-3.11,2.35-6.13,2.98-9.31-.9-.24-.89.38-1.09.8-.97,2.05-1.45,4.34-3.21,5.99-.6.56-.71,1.41-.32,2.34.53.06,1.07.11,1.65.18Zm16.54-6.56c-.42.2-.66.23-.73.35-.96,1.74-1.88,3.5-2.84,5.25-.33.61-.48,1.48-1.62,1.23,0-.44-.09-.88.02-1.26.48-1.68,1.01-3.33,1.53-5,.05-.18.13-.35.18-.53.14-.54.07-1.09-.54-1.19-.32-.05-.9.21-1.02.48-.8,1.82-1.52,3.68-2.23,5.54-.19.51-.18,1.13-.94,1.17-.7-1.44-.3-2.78.26-4.13.46-1.11.97-2.23.76-3.83-1.24,1.7-2.14,3.22-2.83,4.87-.31.74-.71,1.46-1.15,2.13-.17.26-.58.35-.89.52-.17-.36-.55-.77-.47-1.07.28-1.15.64-2.28,1.09-3.37.47-1.16.64-2.34.74-3.59-1.29-.26-1.46.68-1.74,1.38-.76,1.92-1.47,3.85-2.17,5.79-.23.63-.36,1.3-.51,1.87.91.86,1.61.36,2.48.25.88.18,1.75.39,2.63.53.61.1,1.28-.05,1.83.16,1.12.43,2.15.39,2.78-.04,1.28.56,2.26.99,3.39,1.49,1.21-2.99,1.51-5.9,1.97-8.99Zm5.34,7.09c-1.12-.11-2.08-.21-3.25-.32,0-2.16.72-4.11,1.62-6.17-.65-.16-1.09-.28-1.71-.44-.43,1.54-.95,2.95-1.17,4.39-.21,1.38-1.58,2.61-.56,4.35.69-.35,1.31-.68,1.98-1.02.53,1.07,1.37,1.17,2.42.85.19-.45.39-.94.68-1.64Zm2.53,1.57c-.54-.51-1.01-.82-1.64.37.74.08,1.29.54,1.64-.37Zm4.19.67c-.83-.21-1.64-.87-2.92.23,1.2.14,2.02.24,2.84.34.02-.19.05-.38.07-.57Zm2.9,0h-2.09c.7.9,1.21,1.13,1.83.81.16-.08.17-.48.27-.81Zm5.36,1.79c-.08-.67-.14-1.12-.21-1.67-.76-.05-1.42-.08-2.09-.13-1.02-.07-1.26.45-1.09,1.53,1.1.09,2.17.17,3.39.27Zm6.05-1.45c-1.11-.06-2.2-.13-3.3-.16-1.23-.03-1.25.01-1.2,1.69,1.15,0,2.3-.04,3.46.01,1.13.05,1.18-.57,1.04-1.54Zm17.09-7.81c.05,2.11.27,4.1.86,6.05.27-1.71.44-3.41.61-5.11.09-.94-.34-1.26-1.47-.94Zm-4.64,2.61c.75-.91.68-1.87.48-2.82-.03-.13-.48-.18-.85-.31-.16,1.14-.44,2.13.37,3.13Zm6.33,7.67c-.34-1.2-.42-1.34-.79-1.14-1.2.66-1.49-.12-1.61-.99-.28-2.03-.47-4.07-.69-6.12-.08-.76.22-1.6-.49-2.21-.88.22-.64.89-.71,1.39-.29,2.35-.54,4.7-.85,7.05-.04.32-.36.61-.56.91-.33-.83-.32-1.54-.33-2.25-.01-.7.38-1.48-.62-2.27-.29,1.64-.54,3.08-.8,4.53-.18.02-.37.04-.55.06-.3-.63-.59-1.26-.95-2.03-.83.64-1.56,1.18-2.25,1.76-.54.45-1.06.48-1.41-.14-.96-1.72-2.52-1.37-4.1-1.46-.1.78-.18,1.36-.25,1.94,3.5.36,6.81.8,10.14,1.02,2.24.14,4.51-.03,6.83-.06Zm4.33-.44c-.25-1.03-.5-1.97-.71-2.93-.47-2.11-.91-4.23-1.37-6.34-.13-.59-.49-.84-1.34-.58-.09,3.32.94,6.62-.14,9.95,1.25.65,2.4.24,3.57-.1Zm5.7-.25c-.69-1.7-1.38-3.14-1.87-4.65-.5-1.54-.79-3.14-1.17-4.72-.13.02-.26.04-.39.05-.04.21-.12.42-.1.62.09.98.19,1.97.32,2.95.16,1.16.34,2.33.56,3.48.1.55.38,1.1-.21,1.52-.12.09-.47.09-.5.02-.21-.43-.36-.88-.52-1.33-.02-.05-.02-.13,0-.19.36-1.26-.12-2.42-.42-3.6-.3-1.17-.53-2.36-.79-3.55-.17.02-.34.04-.51.06.14,3.16,1.49,6.2,1.16,9.59,1.52.12,2.99.06,4.44-.26Zm1.54-9c-.06-.76-.72-.95-1.45-.45.32,1.46.7,2.91.93,4.38.23,1.45.32,2.93.5,4.75.03.02.43.26.95.58.15-.44.29-.7.32-.98.35-2.87-1.03-5.49-1.26-8.28Zm50,1.85c-.81-.92-.74-.98-2.21-.18,1.22,1.34,2.41,2.63,3.59,3.93.1-1.57-.47-2.72-1.38-3.75Zm13.1-3.5c.23,1.36,1.7,1.03,2.24,1.85-.38-1.57-.49-1.66-2.24-1.85Zm-4.01-4.12c-.09.17-.17.35-.26.52.44.2.87.39,1.31.59.06-.12.12-.24.18-.36-.41-.25-.82-.5-1.23-.75Zm45.7-27.27c-.99.23-1.86.43-2.8.66.15.91.26,1.62.37,2.29,2.46.76,2.92.25,2.43-2.94Zm-24.41,25.38c.71.43,1.2.73,1.7,1.03.1-.14.2-.27.3-.4-.39-.56-.75-1.19-2-.62Zm-93.95,23.91c-.16.63.14,1.17.84,1.12.3-.02.56-.49,1.03-.93-.5-.48-.85-.82-1.19-1.15-.24.32-.6.61-.68.97Zm117.71-34.02c.7.34,1.54.58,2.18-.25-1-1.05-3.22-1.81-5.5-1.76.77,1.56,2.25,1.5,3.32,2.02Zm-21.27,11.81c-.11.34-.08.96.14,1.12.74.54,1.56,1.01,2.41,1.34.34.13.85-.15,1.28-.24.02-.2.05-.41.07-.61-.98-.61-1.94-1.25-2.96-1.79-.24-.13-.9.03-.95.18Zm-78.42-4.53c-1.11-.43-2.16-.22-3.37.76,1.24-.11,2.33-.21,3.42-.3-.02-.15-.04-.31-.05-.46Zm5.35,25.33c-.28.07-.52.32-.83.51-.45-.28-.75-.53-1.09-.64-.68-.23-1.42-.29-1.83.42-.21.38-.33,1.16-.12,1.34.4.35,1.06.54,1.62.56.85.03,1.71-.18,2.57-.21.74-.02,1.01-.41.98-1.05-.03-.67-.64-1.1-1.3-.93Zm-84.51-4.55s.3.32.36.29c.23-.12.42-.32.75-.59-.33-.2-.51-.32-.7-.43-.14.24-.31.47-.41.73Zm22.01,1.75c-.24-.03-.75.44-.77.7-.01.38.32.77.69,1.56.45-.75.83-1.11.84-1.49,0-.26-.46-.72-.77-.76Zm-11.03-.79c-.44.11-.86.64-1.06,1.09-.1.21.27.91.52.96,1.03.24,2.08.73,3.4.19-.32-.61-.52-1.05-.77-1.46-.49-.8-1.31-.99-2.09-.78Zm8.1.57c-.38-.07-.91.16-1.23.42-.49.41-.87.97-1.54,1.74,1.07.11,1.9.31,2.71.23.34-.03.8-.58.91-.97.18-.65-.17-1.29-.85-1.42Zm-15.37-1.74c-.73.07-1.11.49-1.23,1.18-.12.71.29,1.05.9,1.17.94.19,1.9.33,3.11.54-.49-2.12-1.48-3.02-2.78-2.89Zm-7.75-1.04c-.89.71-1.59.48-2.36-.07-.48-.34-.92-.44-1.22.55.11.06.31.22.55.29,1.06.32,2.12.69,3.21.89.39.07.93-.2,1.25-.49.19-.17.17-.95.09-.98-.5-.15-1.23-.42-1.52-.19Zm-55.29-24.47c-1.61.95-3.2,1.93-4.79,2.92-.12.08-.14.32-.21.49.4.79,1.11.95,1.75.6,1.95-1.07,3.85-2.23,5.98-3.49-1.09-1.02-1.91-1.01-2.73-.52Zm45.73,22.65c1.73,1.51,2.59,1.66,3.8.56-1.29-.73-2.45-.78-3.8-.56Zm68,7.11c-.69.66-.74,1.37-.4,2.06.13.25.56.46.87.48.18.01.51-.35.57-.59.22-.85.08-1.58-1.04-1.95Zm-6.03-.26c-.63-.1-.89.53-.87,1.15.02.66.19,1.35.98,1.25.39-.05.71-.62,1.27-1.15-.59-.56-.94-1.18-1.38-1.25Zm2.94.27c-.79.02-.89.82-.79,1.41.06.37.54.67.83,1,.31-.37.63-.74,1.08-1.26-.47-.5-.81-1.16-1.13-1.15Zm6.14.29c-.62.02-1.07.24-1.08.95-.01.85.68,1.69,1.38,1.68.63-.01,1.05-.62,1.02-1.49-.03-.83-.44-1.17-1.31-1.15Zm-13.31.63c.04.69.42,1.05,1.05,1.02.79-.04.96-.65.95-1.66-.23-.16-.61-.64-1-.65-.7,0-1.03.55-.99,1.28Zm-4.32-1.31c-.68-.07-1.37-.11-2.05-.08-.76.03-1.07.52-.88,1.27.23.88.73,1.15,2.42,1.2,0,0,.19.01.38,0,.69-.05,1.43-.03,1.5-.99.06-.82-.39-1.29-1.37-1.39Zm-10.5-1.21c-.92.68-.64,1.34-.06,2.38.71-1.01.91-1.66.06-2.38Zm4.43.8c-.78-.05-1.61-.21-2.01.87-.15.4-.78.61-1.46,1.1,1.3.25,2.32.48,3.36.63.73.11,1.18-.22,1.23-1.02.07-1.01-.22-1.51-1.12-1.58Zm-8.39-1.16c-.48.15-.95.72-1.17,1.21-.29.65.1,1.19.76,1.46.68.27,1.38.6,2.25-.06-.21-.58-.44-1.08-.56-1.6-.17-.72-.64-1.21-1.28-1.01Zm49.89-49.43c-.8-1.78-1.75-3.45-3.15-4.79-.78.33-1.02.81-.65,1.27,1.08,1.33,2.24,2.6,3.37,3.89.14-.13.29-.25.43-.38Zm24.74,5.91c-.99-.16-2.02-.07-2.74.77-.45.52-.15,2.18.45,2.99.61.84,1.61.73,2.02-.24.13-.31.16-.66.28-1.13,1.23,2.13,1.29,2.16,3.13,1.53-.23-.64-.54-1.15-.59-1.68-.14-1.6-1.28-2.03-2.55-2.23Zm9.94-2.7c.96.7,2,.71,3.35.43-1.89-1.96-2.63-2.02-3.35-.43Zm-11.2,11.68c.77.15,1.59.03,2.51.03.21.18.53.62.95.75.32.1,1.04-.13,1.1-.34.32-1.13,1-2.27.24-3.81-.67.43-1.17.75-1.66,1.08q-.99-.85-2.42.19c-.39-.41-.74-1.11-1.14-1.13-1.13-.07-1.41.97-1.84,1.67.37,1.23,1.37,1.4,2.25,1.57Zm5.61-5.23c.32.21.87.33,1.18.2.22-.09.34-.71.3-1.07-.12-1.01-.34-2-.53-3,.79.93,1.19,1.97,1.75,2.92.18.3.8.34,1.22.5.14-.37.39-.74.39-1.12,0-.58-.15-1.16-.24-1.75.14-.03.27-.05.41-.08q.71,1.54,1.89,2.28c.4-.57.81-1.14,1.21-1.7,1.58.81,1.78.74,2.51-.88-1.27-1.1-2.92-1.26-4.39-1.1-1.33.15-2.49.34-3.62-.52-.13-.1-.4-.14-.53-.07-1.03.51-2.31.68-2.77,1.98-.23.67.53,2.95,1.21,3.4Zm-1.04-16.98c-.22.07-.48.08-.64.22-.18.14-.27.4-.4.6.07.06.14.12.22.18.33-.22.66-.44.99-.65-.05-.12-.11-.23-.17-.35Zm24.66,10.43c-1,.56-1.21,2.32-.47,3.85,1.31-.84,1.45-1.96.47-3.85Zm-7.39-11.83c.69-.55.73-1.13.22-1.77-.52-.65-1.1-1.21-2.07-.81-.98.4-1.42,1.16-1.31,2.2.46,4.23,3.36,6.4,6.96,8.35.41-.83.87-1.5,1.07-2.23.53-1.92,1.03-3.85,1.39-5.8.2-1.09-.43-1.73-1.55-1.95-.82-.15-1.62-.19-1.77.79.53,1.24,2.33,1.38,2.11,3.15-1.17-.44-2.16-1.08-3.17-1.11-.99-.03-1.99.58-2.99.91-.08-.12-.16-.24-.24-.36.45-.46.86-.97,1.36-1.37Zm3.81-3.23c.52.11,1.12.02,1.65-.11.37-.09.91-.35.96-.62.06-.32-.22-.89-.52-1.06-1.55-.86-3.16-1.63-4.74-2.43-.12.11-.25.22-.38.34.47,1.05.85,2.16,1.46,3.11.27.43,1,.66,1.56.77Zm-10.94,4.54c-1.07.15-2.21.33-3.07,1.08.02.19.01.33.06.44.07.17.16.36.29.47,3.61,2.97,7.18,6.01,11.7,7.59.23.08.55.11.68.27.21.26.29.62.42.94-.32.12-.66.4-.95.34-.4-.08-.77-.38-1.14-.61-2-1.23-4-2.48-6.1-3.77-.35,1.01-.15,1.65.37,2.27.32.39.54.85.8,1.29.03.01.06.03.09.04l-.04.04s.04-.04.04-.04c.01.01.03.03.04.04.16-.01.33-.04.45.02,1.46.72,2.91,1.47,4.3,2.34-2.05.15-3.38-1.14-4.75-2.36-.03,0-.06,0-.08,0-.01-.03-.03-.05-.05-.08-.79-.35-1.58-.69-2.36-1.04-.1.12-.2.24-.3.36.31.4.56.86.93,1.2,1.83,1.72,4.11,2.73,6.28,3.9,1.4.76,2.39.35,2.9-1.16.45-1.33,1.02-2.54,2.05-3.51.16-.15.21-.43.38-.79-.92-.46-1.9-.77-2.65-1.37-2.93-2.32-5.78-4.75-8.68-7.1-.46-.38-1.11-.86-1.6-.79Zm-5.46,1.61c-.2.23-.34.67-.26.96.35,1.31,1.41,1.63,3.15.82-.73-.67-1.36-1.29-2.05-1.83-.18-.14-.7-.1-.83.05Zm25.3-11.28c-.61-.59-1.01-1.22-1.58-1.46-2.46-1.05-4.97-1.99-7.46-2.98-1.26-.5-2.5-1.08-3.78-1.52-.65-.22-1.37-.22-2.06-.31-.06.14-.12.28-.18.42.31.34.56.76.93,1,1.46.96,2.94,1.88,4.43,2.79,3.57,2.17,7.65,3.28,11.18,5.54.37.23,1.15.37,1.36.17.32-.32.46-.98.43-1.47-.17-2.21-1.24-2.88-3.26-2.16Zm-55.73,46.17c-.04-.64-.53-.78-1.07-.78-.19,0-.37.06-.56.07-3.92.15-7.85.35-11.77.41-.95.01-1.94-.37-2.84-.74-1.24-.5-1.3-.53-2.11,1.23.67.22,1.17.51,1.69.55,2.61.19,5.23.38,7.84.44,1.3.03,2.6-.28,3.9-.34,1.31-.06,2.62,0,3.93,0,.56,0,1.02-.2.99-.85Zm56.66-41.61c-1.41-.68-2.83-.84-4.34-.64.64.22,1.28.44,1.91.68,1.43.53,2.72,1.25,3.57,2.59.94,1.47.74,2.12-.91,2.55-.68.18-1.12.43-1.31,1.13-.49,1.81-1.02,3.6-1.51,5.41-.15.57-.11,1.22.55,1.42.74.22.95-.41,1.09-.97.37-1.45.71-2.91,1.09-4.36.13-.48.01-1.17,1.03-1.26,0,.66.09,1.27-.02,1.84-.25,1.35-.6,2.68-.89,4.03-.18.84-.38,1.71.82,2.45.29-.65.6-1.17.75-1.72.34-1.27.6-2.56.89-3.84.23-1.04.54-2.06.68-3.11.41-2.95-.76-4.91-3.42-6.19Zm-15.27-5.2c-1.4-1.58-1.85-1.8-3.28-1.59,1.35,2.02,1.88,2.27,3.28,1.59Zm-3.13-4.05c-.49.76.46,1.32,1.05,1.7,1.94,1.23,3.91,2.43,5.92,3.56,1.29.73,2.64,1.36,4.01,1.93.79.33,1.67.43,2.53-.47-.47-.32-.84-.61-1.25-.83-3.44-1.86-6.89-3.71-10.35-5.54-.6-.31-1.33-1.25-1.9-.35Zm14.05,8.61s.01,0,.02,0c0,0-.01,0-.02,0,0,0,0,0,0,0Zm4.78,16.88c-.72-.32-1.27.05-1.81.48.12-.35.38-.72.33-1.03-.07-.43-.33-1.1-.6-1.16-.44-.08-1.19.13-1.38.46-.26.45-.32,1.26-.07,1.67.39.64,1.13.64,1.73.07-.47,1.47-1.7,2.76-1.09,4.5,1.38-.29,2.92-2.96,2.89-4.99Zm-6.12-13.87c.07.55.22,1.1.25,1.65.03.48.13,1.12-.12,1.41-1.5,1.7-1.82,3.93-2.77,5.87-.17.36-.21.79-.37,1.41.81.07,1.46.13,2.16.19.49.59.32,1.99,1.92,1.57.89-2.83,1.79-5.73,2.71-8.62.28-.87.15-1.75-.6-2.17-1.58-.87-1.78-2.23-1.73-3.78,0-.18-.09-.35-.12-.52,0,0,0,0,0,0-1.11.71-1.48,1.75-1.33,3.01Zm-50.59,8.58c.29.28.78.35,1.18.52.04-.67-.1-1.08-.37-1.38-2.44-2.67-4.85-5.37-7.4-7.94-.69-.7-1.79-.99-3.05-1.65.03,1.54.67,2.12,1.4,2.59,2.12,1.37,3.9,3.09,5.52,5.01.84,1,1.76,1.94,2.71,2.84Zm-35.58-22.49c-1.49.49-2.5,1.26-3.12,2.65q2.14,1.15,4.06.2c.39-.19.78-.45,1.19-.53,2.28-.49,4.03-1.71,5.12-3.75.77-1.44,1.87-1.79,3.25-1.22.96.39,1.71.16,2.41-.42,1.84-1.5,3.65-3.02,5.46-4.55.22-.19.33-.51.57-.91-.98-.8-1.82-.82-2.71-.23-1.19.8-2.44,1.52-3.59,2.38-3.84,2.87-8.12,4.9-12.64,6.39Zm15.18-9.14c.46-.36.92-.71,1.38-1.07-.11-.15-.22-.29-.33-.44-.89-.09-1.21.43-1.05,1.5Zm-13.42,7.49c1.52-.57,3-1.24,4.48-1.9.2-.09.32-.35.7-.79-1.89-.44-3.55-.88-5.16.08-.53.31-.96.98-1.16,1.58-.29.84.29,1.35,1.14,1.03Zm-12-5.89c-.89-.26-1.64.09-2.46.45-.74.33-1.59.41-2.56.65-1.68,2.36-2.17,4.26-1.53,6.34,3.71-.97,6.69-4.32,6.54-7.44Zm19.38-3.87c-.12-.76-.64-1.36-1.46-1.02-1.49.61-3.14.87-4.36,2.07-1.82,1.79-4.1,2.83-6.43,3.74-.79.31-1.72.51-2.55.41-1.74-.21-2.79.58-3.4,2.03-.62,1.5-1.7,2.29-3.15,2.97-2.29,1.07-4.66,2.1-6.05,4.48-.73,1.24-.73,1.91.44,2.86.34.28.68.55,1.01.83,1.02.88,1.47,1.05,2.43.2,1-.89,1.75-2.08,2.55-3.17.17-.24.1-.66.14-.96-.8-.49-1.91.46-2.39-.75.15-.16.25-.35.4-.41,1.71-.72,3.52-1.21,4.61-2.99.42-.68,1.19-.41,1.69.37-.49.66-.94,1.28-1.4,1.9,1.74,1.34,3.68.98,4.62-.79.23-.44.33-.94.51-1.41.63-1.59,1.46-3.05,2.98-3.97,1.46-.89,2.9-1.48,4.76-1.15,2.26.4,3.47-.58,4.31-2.83.04-.1.19-.15.36-.29.87,1,.9,2.29,1.04,3.8,1.01-.75,1.78-1.32,2.87-2.14-2.13-.78-3.26-1.9-3.55-3.77Zm18.23,4.31c-1.74-1.3-3.56-2.51-5.25-3.88-1.48-1.21-3.26-1.46-4.99-1.9-.29-.07-.68.27-1.03.43.21.27.37.65.64.78.72.35,1.55.5,2.24.89,2.65,1.5,5.26,3.06,7.51,5.15.52.48,1.05,1.13,2.08.72-.18-1.33-.24-1.47-1.21-2.2Zm-.31,24.84c.26.52.9.99,1.95.54-1.74-1.77-3.46-3.29-5.35-4.61-.29-.2-.77-.14-1.16-.19-.27,1.04.49,1.17.98,1.47,1.31.79,2.81,1.26,3.58,2.8Zm25.18-5.48c-1.33.82-2.4,1.98-3.67,2.9-1.64,1.19-2.98,2.81-4.42,4.28-.3.31-.47.74-.91,1.45,1.4-.06,2.01-.31,2.59-1.04,1-1.25,2.21-2.35,3.36-3.47,1.95-1.89,4.39-3.04,6.7-4.38.56-.33,1.28-.52,1.35-1.6-.68.09-1.31.04-1.83.26-1.09.46-2.15.99-3.16,1.61Zm-66.59-29.21c-.33-.18-1.04-.06-1.33.21-.35.33-.59.95-.6,1.45-.01.57.28,1.15.49,1.93,1.02-.59,1.38-1.47,1.66-2.31.13-.38.02-1.14-.23-1.27Zm-7.12,1.6c-1.17,1.52-1.81,3.18-1.88,5.11-.55.54-1.49,1.04-1.69,1.75-.73,2.62-2.19,5.05-2.21,7.86,0,1.13.11,2.26.17,3.51,1.29.07,1.79-.45,1.91-1.5.12-.98.23-2,.56-2.92.48-1.33,1.1-2.62,1.76-3.87,1.02-1.91,1.34-3.99,1.66-6.09.32-2.08,1.09-3.83,3.49-4.26.45-.08.92-.41,1.26-.75.21-.21.18-.66.28-1.08-2.22.15-4.02.56-5.32,2.24Zm-10.51,36.76c.33.11.47.22.55.18,2.59-1.3,4.83-3.27,7.7-4.05.21-.06.37-.3.56-.46-.67-1.58-1.87-1.38-3.07-.91.08-.55.13-.95.2-1.41-1.27.11-2.4.21-3.53.32-.18.02-.35.13-.51.23-1.88,1.17-3.47,2.64-4.6,4.56-.15.25-.08.62-.16,1.34,1.34-.92,2.33-1.63,3.37-2.3,1.02-.66,1.97-1.48,3.21-1.73-1.3,1.37-3.48,1.92-3.72,4.23Zm1.67,5.51c.37.02.78-.44,1.17-.67-.04-.14-.08-.27-.12-.41-.24-.05-.5-.19-.7-.12-1.58.51-2.59-.22-3.46-1.44-.28-.4-.76-.66-1.19-1.02-.76.89-.64,1.49-.09,2.16,1.16,1.42,2.81,1.41,4.39,1.5Zm57-6.93c-1.84.22-3.72-.05-5.21,1.77-1.86,2.27-2.49,2.17-4.87.64q-1.49.72-1.78,1.94c2.31,0,4.58.05,6.85-.04.57-.02,1.17-.42,1.68-.76,1.38-.95,2.72-1.96,4.17-3.02-.27-.18-.58-.56-.85-.53Zm-27.39-35.89c-.72.91-1.6,1.49-2.75,1.8-2.14.58-4.27,1.17-6.53.97-.39-.03-.91.16-1.19.43-1.18,1.16-2.01,2.57-3.14,4.18,2.79.34,3.38-2.48,5.59-2.81.25.21.53.44.81.68,2.44,2.16,5.67,2.06,7.78.05.99-.94,2.19-1.64,3.29-2.45.43-.32.85-.66,1.55-1.21-1.68-.87-3.08-1.59-4.54-2.34-.31.24-.66.42-.88.69Zm56.24,39.38c-1.04.82-.87,1.55.37,2.02.11.04.24.07.36.09,1.27.21,2.14.76,2.46,2.17.23,1.02.97,1.27,1.87.74.59-.35,1.04-.94,1.82-1.68-.92-.38-1.48-.58-2-.85-.49-.25-1.02-.5-1.38-.89-.38-.41-.58-.99-.09-1.52.54-.58,1.01-.26,1.44.16,1.49,1.46,3.12,1.28,4.81.43.45-.23.93-.42,1.61-.72-.09,1.99-1.8,2.02-2.73,2.98,1.44,1.32,2.09,1.31,2.61-.1.43-1.16,1.2-1.49,2.27-1.52.25,0,.55.13.74.03.41-.22.9-.47,1.08-.85.12-.27-.12-.86-.39-1.11-.79-.77-1.83-1.2-2.9-1.07-1.51.19-2.32-.44-2.91-1.74-.47-1.04-.89-1.15-1.94-.68-1.31.58-2.63,1.16-3.87,1.88-1.13.65-2.2,1.43-3.23,2.24Zm-69.93-36.91c-.91,1.48-1.68,3.04-2.52,4.57-.3.54-.62,1.06-.91,1.59-.44.81-1.04,1.58-1.25,2.45-.51,2.05-.87,4.14-1.22,6.23-.08.47.13,1,.23,1.6,1.59-.67,1.45-2.02,1.56-3,.36-3.26,1.62-6.13,3.34-8.85.95-1.52,1.92-3.03,2.87-4.53-1-1.13-1.4-1.18-2.09-.07Zm-4.05,4.44c.1-.28.01-.63.01-1.21-1.7,1.2-2.89,2.43-3.4,4.17-.61,2.08-1.11,4.2-1.66,6.3-.17.64-.2,1.21.86,1.77.48-1.22.93-2.28,1.33-3.37.54-1.45,1.03-2.92,1.57-4.37.41-1.1.88-2.19,1.27-3.29Zm105.84,38.78c-.08.47-.15.95-.23,1.42.15.02.3.05.45.07.08-.47.15-.94.23-1.42-.15-.02-.3-.05-.45-.07Zm-141.92,10.46c-1.09-1.09-.82-2.39-.64-3.72-.3-.2-.53-.43-.81-.53-3-1.04-5.97-2.19-9.03-3.02-2.03-.55-4.19-.66-6.29-.93-.57-.07-1.2-.02-1.28.74-.08.72.3,1.2,1.03,1.32.49.08.99.13,1.49.16,3.9.23,7.67.99,11.21,2.69.87.42,1.91.63,2.17,2.1-.52-.13-.95-.13-1.25-.33-3.38-2.12-7.14-2.87-11.04-3.12-.37-.02-.75.18-1.12.28,0,.15-.01.29-.02.44.42.12.84.31,1.27.34,4.63.36,8.88,1.82,12.79,4.3.39.25.85.4,1.56.71,0-.68.17-1.25-.03-1.45Zm-.84,5.06c-2.71-3.35-7.33-4.91-9.74-3.13.35.22.65.42.96.61,1.38.83,2.82,1.59,4.14,2.51,1.54,1.08,2.98.84,4.64,0Zm106.92-37.4c-1.9-1.31-3.77-2.68-5.78-3.8-1.57-.87-3.3-1.49-5.01-2.06-1.16-.38-2.36-.53-3.46-1.18-.95-.56-2.32-.81-3.21-.05-1.62,1.37-2.95,2.98-2.68,5.4.17,1.58.06,1.6,1.78,2.19-.06-.76-.22-1.53-.14-2.26.11-.98.51-1.94.62-2.92.1-.88.54-1.36,1.3-1.64.51-.19,1.04-.33,1.72-.54.2.55.44.99.5,1.45.24,1.73.21,1.78,1.94,2.13,2.49.5,4.76,1.47,6.91,2.8,1.49.92,3,1.81,4.54,2.63,1.11.59,1.38.45,2.24-.84-.4-.43-.76-.96-1.26-1.3Zm-80.13,24.81c-1.42-.44-2.51.11-3.49.66-1.84,1.04-3.54,2.35-5.39,3.36-3.31,1.81-5.82,4.48-8.2,7.31-.41.49-.68,1.09-1.01,1.64.13.12.25.24.37.37.6-.35,1.23-.65,1.78-1.08.49-.38.91-.86,1.3-1.35,3.24-4.03,7.25-7.01,12-9.03.92-.39,1.94-.8,2.64-1.88Zm-23.46,4.53c.03.29.17.57.32,1.05,1.28-1.07,1.38-1.37.76-2.24-.28-.4-.65-.77-1.06-1.04-1.76-1.15-3.52-2.29-5.33-3.36-.94-.55-1.81-1.38-3.08-1.09-.19.04-.49-.14-.65-.3-1.02-1.08-2.42-1.37-3.74-1.52-2.36-.28-4.75-.18-6.89,1.06-.34.2-.48.76-.71,1.16.38.15.75.38,1.14.43,2.41.26,4.83.43,7.23.74,1.17.15,2.29.65,3.46.79,2.17.25,3.97,1.38,5.85,2.32.31.16.67.46.95.41,1.33-.24,1.63.54,1.74,1.6Zm-33.05-15.66c.68-.39,1.36-.78,2.19-1.26-.29-1.22-.56-2.39-.9-3.83-1.98,1.91-2.32,3.46-1.29,5.09Zm1.7,16.8c-.42-.88-.81-1.78-1.29-2.63-.16-.28-.54-.65-.8-.64-1.2.04-2.45-.05-3.95.6,2.01,1.28,3.97,1.99,5.77,3.02.09-.12.18-.23.26-.35Zm-3.43-8.33c.49.51,1.04.41,1.46-.11,1.11-1.4,2.49-2.43,4.1-3.19.64-.3.91-.79.7-1.53-.27-.96-.43-1.95-.73-2.89-.11-.36-.48-.63-.86-1.1-.83.68-1.61,1.2-2.24,1.86-.85.89-.8,1.39-.02,2.44.77,1.04.67,1.43-.48,1.97-.61.29-1.28.51-1.82.91-.57.43-.64,1.08-.11,1.63Zm-1.25,1.52c-.17.55-.42,1.02-.42,1.48,0,.28.4.78.62.78.95-.02,1.97.3,2.88-.29q-.84-1.67-3.08-1.97Zm12.34-13.74c-.41,1.15-1.16,1.62-2.33,1.83-1.38.25-2.15,1.29-2.24,2.96.64-.25,1.28-.33,1.67-.68,1.09-1.02,2.39-1.55,3.77-1.96,1.17-.35,2.34-.69,3.57-1.05-.44-.96-.82-1.79-1.24-2.69-1.4.09-2.7.2-3.2,1.61Zm90.18,31.83c1.72-1.22,3.49-2.38,5.31-3.43,1.73-1,3.68-1.65,5.34-2.88-.92-1-.92-1.01-1.38-.77-.99.51-2.02.95-2.94,1.57-3.56,2.39-7.09,4.83-10.6,7.3-.43.31-.65.92-.97,1.38.17.17.34.33.51.5,1.57-1.23,3.11-2.51,4.73-3.67Zm.84,3.12c.46-.31.65-.72.02-1.39-.51.37-1.04.75-1.6,1.15.59.74,1.1.57,1.58.24Zm-51.98-1.17c3.43-1.48,6.86-2.98,10.6-3.55.86-.13,1.73-.24,2.58-.4,1-.19,1.14-.8.75-1.65-.58.12-1.16.43-1.62.3-1.79-.47-3.29.3-4.85.93-.63.26-1.26.71-1.9.72-3.17.05-5.85,1.56-8.64,2.75-.32.13-.58.41-1.13.81,1.62.87,2.89.66,4.21.09Zm41.48,3.46c-.88-1.1-1.85-2.01-2.82-2.92-.08-.08-.23-.1-.35-.13-1.35-.35-4.05,1.08-4.93,2.9,2.84.06,5.41.44,8.09.15Zm15.88.9c1.49.33,3.1.24,4.65.2,2.03-.05,4.05-.23,6.08-.37.61-.04,1.21-.14,1.82-.21.01-.11.02-.22.03-.33-1.36,0-2.72.02-4.08,0-2.36-.03-4.73-.1-7.09-.12-1.18-.01-2.38.16-3.54,0-1.89-.27-3.75-.76-5.63-1.15-.8-.17-1.33.07-1.44,1.21.67.11,1.3.27,1.94.3,2.41.12,4.83-.07,7.24.47Zm-36.49-2.18c-.68-1.57-1.54-2.43-3.14-2.57-1.53-.14-3.07-.92-4.55-.79-2.59.23-5.15.91-7.7,1.45-.41.09-.76.44-1.14.67,2.76,1.01,5.47,1.01,8.18,1.07,2.74.06,5.49.53,8.35.17Zm11.81-3.04c1.69-.77,3.37-1.57,5.03-2.43,1.02-.52,1.63-1.41,1.97-2.55-1.78.11-7.76,2.57-8.74,3.6-.18.19-.32.6-.24.8.12.3.43.66.72.73.39.09.89.02,1.26-.15Zm-9.67,3.21c.09.09.34.01,1,.01-2.13-3.75-4.23-7.12-6.73-10.22-.27-.33-.7-.54-1.06-.8-.12.11-.24.22-.37.33,1.7,3.56,4.44,6.47,6.47,9.82.19.31.41.61.67.86Zm-23.61-12.15c.41-.08.83-.14,1.23-.25,1.44-.4,2.86-.86,4.31-1.22,1.91-.48,2.14-1.09.92-2.88-2.74.45-4.8,2.04-6.68,3.92.07.14.14.29.21.43Zm69.49-56.29c.02.59.19.99.48,1.24,1.53,1.28,3.03,2.6,4.66,3.75.4.29,1.1.16,1.71.16-.05,0-.11,0-.14-.03-1.83-1.5-3.64-3.02-5.48-4.5-.35-.28-.82-.41-1.23-.61Zm9.03,12.27c-.67,2.07.04,2.81,2.51,2.77-.53-1.18-1.28-2.07-2.51-2.77Zm-11.29-13.36s0,.39,0,.6h1.01c0-.21,0-.42,0-.63-.33,0-.67-.01-1,.03Zm-23.47-4.58c-.82,2.18-.75,3.36,1.52,3.85.49-.67.55-1.43.38-2.25-.12-.59.11-.99.74-1.05.64-.06.81.35.92.91.19.96.29,2.02.77,2.83.68,1.17.9,2.32.76,3.62-.04.4.15.81.24,1.26,1.25.14,1.64-.67,1.89-1.5.32-1.07.5-2.18.75-3.28.35-1.51,1.09-2.18,2.63-2.42.51-.08,1.1-.02,1.47-.73-3.01-1.52-5.84-3.19-9.07-4.08-1.03,1.05-1.15,2.97-3,2.84Zm32.77,10.81s.02,0,.03,0h0s-.02,0-.03,0Zm-40.75-14.69c-1.63,1.33-3.22,2.72-4.86,4.05-.57.46-1.21.84-1.84,1.2-1.27.72-2.57,1.39-3.31,2.95.48-.12,1.02-.15,1.43-.39,3.08-1.88,6.18-3.73,8.71-6.36.41-.42.97-.8.71-1.68-.31.08-.64.07-.83.23Zm41.28,16.89c1.29,1.43,2.59,2.87,3.83,4.34.89,1.04,1.68,2.16,2.54,3.22.37.45.74,1.04,1.58.65-.05-.29,0-.58-.13-.74-1.83-2.28-3.65-4.57-5.54-6.81-.86-1.01-1.85-1.91-2.79-2.86-.4.86-.08,1.55.51,2.2Zm-.51-2.2h0s0,0,0,0h0Zm-92.57,5.76c-.26.29-.52.48-.64.73-.32.69.58,3.87,1.24,4.33.21.15.61.2.83.1.23-.11.53-.5.48-.69-.34-1.29-.73-2.57-1.17-3.83-.08-.23-.43-.38-.74-.63Zm-14.42,6.75c1.39-.69,2.86-1.23,4.21-1.99,1.23-.69,2.34-1.59,3.51-2.4.45-.31.89-.64,1.35-.94.37-.23.79-.37,1.13-.63,1.36-1.05,2.62-2.26,4.07-3.16,1.14-.71,1.33-1.59,1.33-3.18-5.5,5.01-11.43,8.75-17.67,12.39.92.71,1.45.22,2.05-.08Zm-3.72,4.11c-1.77.79-1.57,2.8-2.71,3.83q.95,2.9,2.5,3.08c-.08-.32-.14-.6-.23-.87-.28-.82-.62-1.62-.83-2.46-.08-.29.04-.82.25-.95.23-.14.76-.07,1,.12.92.72,1.77,1.52,2.73,2.37-.34.44-.64.82-.95,1.21-.31.39-.68.75-.91,1.18-.69,1.31-.34,2.03,1.09,2.24,1.05.15,2.12.24,3.08-.69-.13-.8-.26-1.63-.4-2.45,1.45-.35,1.65-.31,1.83.97.17,1.26.83,1.88,2,2.14.34.08.67.23,1,.36-.02.17-.04.34-.06.52-.58.04-1.16.09-1.74.12-.71.04-1.2.27-1.23,1.09-.04,1.12.51,2.52,1.1,2.59.22.03.54-.03.69-.18.85-.82,1.75-1.61,2.48-2.53,1.26-1.59,1.19-1.58,3.01-.8.5.21,1.22.2,1.72,0,.24-.1.2-.88.28-1.29.85.78,1.79,1.65,2.67,2.46-.25,1.25-1.05,1.79-2.01,1.87-.88.07-1.81-.14-2.69-.35-.88-.21-1.42-.08-1.6,1.07,1.24.25,2.38.51,3.54.7.34.06.82.04,1.07-.16,1-.79,1.92-1.67,2.83-2.48-.92-2.16-.89-2.33.83-3.77.99-.83,2-1.64,2.89-2.37-1.36-2.81-2.64-5.49-3.95-8.16-.19-.39-.38-.82-.68-1.1-.21-.2-.62-.19-1.31-.37.3.98.43,1.7.74,2.34.9,1.85,1.88,3.65,2.79,5.5.12.25-.05.64-.09.96-.31-.14-.68-.22-.91-.44-.2-.2-.2-.59-.35-.85-.51-.85-1.05-1.67-1.58-2.5-.1.05-.2.09-.3.14.09.57.19,1.14.28,1.72-1.07-2.28-2.69-4.29-3.15-6.84.55-.11.95-.18,1.59-.31-.42-1.41-.78-2.71-1.2-3.98-.07-.21-.46-.32-.7-.48-.18.28-.45.54-.5.84-.06.33.07.7.12,1.05-2.29.43-3.33,2.13-2.49,3.93.87,1.88,1.23,3.86,1.2,5.78-.79.13-1.47.28-2.16.33-.85.07-1.7.09-2.55.09-.85,0-1.7-.05-2.55-.14-.38-.04-1.04-.18-1.06-.33-.04-.42.11-.91.32-1.3.13-.23.53-.29.8-.45,1.41-.81,3.28-2.56,4.03-3.95-2.98.97-5.18,2.78-7.77,4.45.08-1.65,1.28-1.97,1.92-2.73.65-.77,1.96-1.07,1.9-2.86-1.75,1.45-3.21,2.67-4.7,3.91-.33-.27-.64-.54-.94-.79Zm20.89-15.06c-1.47,1.75-1.63,3.55-.57,5.6.71.07,1.01-.27.98-.98-.06-1.25-.09-2.49-.16-3.74-.02-.27-.15-.53-.26-.89Zm-13.54,17.78c2.03,1.01,2.45.56,3.53-2.35-1.39-.12-2.54.68-3.53,2.35Zm41.32-32.53c-.99.54-1.93.7-3.03.59-.52-.05-1.14.08-1.59.34-2.12,1.23-4.01,2.7-4.76,5.2,1.08.86,1.28.91,2.1.02,1.01-1.1,2.19-1.66,3.68-1.92,2.32-.41,4.47-1.36,6.47-2.53-.63-2.41-1.04-2.68-2.88-1.69Zm15.75-4.13c-2.19,1.4-4.3,2.96-6.57,4.19-4.16,2.26-8.45,4.24-13.02,5.55-.61.17-1.34.4-1.15,1.2.19.79.94.65,1.57.55.12-.02.24-.06.36-.1,2.04-.64,4.01-1.44,5.69-2.78.99-.79,2.05-1.08,3.29-1.12.79-.02,1.65-.13,2.35-.48,2-.99,4-2.02,5.88-3.23,1.5-.96,2.76-2.25,3.39-3.99-.76-.61-1.28-.14-1.79.19Zm-14.18,2.08c1.7.19,1.84,1.9,2.99,3.19.64-1.67,1.15-3.02,1.71-4.48-2.03-.67-3.52-.25-4.7,1.29Zm16.9-1.86c-.38.27-.67.69-.93,1.1-1.32,2.03-2.8,3.93-4.92,5.19-1.22.72-2.46,1.41-3.68,2.11.03.14.06.27.1.41.22.04.49.18.65.1,3.3-1.64,6.54-3.39,9.24-5.96.44-.42.79-.97,1.12-1.5.3-.49.5-1.02-.04-1.52-.54-.51-1.09-.23-1.53.08Z"/>
  </g>
  <path class="cls-1" d="m318.91,151.78s-2.22,8.6-4.32,15.22c-.44,1.39-1.12,3.57-1.9,6.17l-2.32-1.57c-2.45.94-4.48,2.23-6.15,3.72-2.14.33-5.72,1-9.87,2.44-.38-.86-1.64-2.77-4.96-2.03,0,0-.31.32-.8.9-2.15.33-5.7,1-9.83,2.44-.39-.86-1.64-2.77-4.96-2.03,0,0-.34.36-.88,1-1.61.69-5.86,2.55-10.99,5.27,1.23-4.21,2.52-8.41,3.75-12.12l5.41-.16s.74,2.71,1.48,2.16c.74-.56,6.18-4.88,6.46-5.01.28-.12-2.76-2.24-5.19-1.93-2.43.3-3.02,2.53-3.02,2.53l-4.28-.13c1.11-3.21,2.14-5.91,2.99-7.71,5.01.63,9.25,1.79,9.25,1.79,0,0,4.28-3.59,4.12-5.46-.16-1.87-2.88-4.02-3.96-4.03l-2.39,4.26s-8.08-.51-12.86-.12c-27.07,2.26-27.24,18.12-27.24,18.12,0,0,4.72,6.94,10.85,6.43,6.14-.51,5.61-10.38,5.61-10.38l7.65-.22c-1.33,4.37-3.07,9.9-4.94,15.54-9.75,5.89-20.05,14.04-21.25,22.67-.97,6.02,10.12,7.97,11.84,7.43,1.72-.54,7.55-1.84,11.01-16.17.86-3.56,2.03-8,3.33-12.66,3.42-2.62,6.89-5.03,9.85-6.65-1.98,3.15-4.03,7.64-3.63,12.38.56,6.69,7.06,7.04,7.06,7.04,0,0,6.71-1.85,5.83-12.42-.24-2.84-.47-4.82-.69-6.2,1.26-.68,4.09-2.09,7.7-3.13-2.16,3.15-4.76,8.13-4.32,13.42.56,6.69,7.06,7.04,7.06,7.04,0,0,6.71-1.85,5.83-12.42-.24-2.84-.47-4.82-.69-6.2,1.2-.65,3.8-1.94,7.15-2.97-4.57,5.88-5.19,13.19-5,15.44.27,3.25,4.04,3.72,5.4,3.61.72-.06,3.25-3.42,5.48-6.57-1.5,5.24-2.69,9.63-2.94,11.12-.65,3.92,2.93,5.7,4.81,5.94,1.88.24,3.91-1.32,5.54-2.94,1.63-1.62-.43-7.49-.75-5.48-.32,2.01-3.84,6.86-3.84,6.86-3.27-3.89,14.13-45.65,14.26-50.02.12-4.37-5.74-4.18-5.74-4.18Zm-75.13,63.13c-3.8.32-1.75-9.17,1.46-13.1,1.22-1.5,4.19-4.38,7.88-7.58-3.81,10.95-7.65,20.54-9.34,20.68Zm6.2-46.78s-.47,1.43-1.41,5.47c-.94,4.04-4.81,5.85-4.91,4.57-1.03-12.29,10.45-16.92,17.86-17.54.95-.08,1.94-.1,2.94-.09-.68.55-1.19,1.24-1.39,2.14-.16.73-.76,2.84-1.64,5.8l-11.44-.35Zm23.74,29.02c-1.56.13-.89-6,.42-9.02.58-1.34,1.59-3.2,2.53-4.85.35,1.02.71,2.51.88,4.57.39,4.69-2.27,9.17-3.83,9.3Zm15.58-1.3c-1.56.13-.89-6,.42-9.02.59-1.34,1.59-3.2,2.53-4.85.35,1.02.71,2.51.88,4.57.39,4.69-2.27,9.17-3.83,9.3Zm19.95-11.15c-2.75,3.43-5.07,5.75-5.93,5.82.94-7.44,5.52-12.12,8.49-14.44-.81,2.71-1.7,5.68-2.56,8.62Zm-91.2-5.85c-1.27-.85-2.33-2.16-3.95-2.23-2.72-.38-10.2,16.83-10.91,16.94-.71.1,1.55-7.94,1.49-9.34-.06-1.4-4.06-3.37-5.39-3.62-.62-.12-.65.11-.57,1.04.08.94-.51,3.91-.97,6.96-.11.74-.28,1.75-.48,2.9-1.98,3.34-6.82,11.41-7.8,12.01-1.24.77,1.87-9.47,2.3-11.26.43-1.79-3.19-3.16-4.47-3.5,0,0-7.2,10.45-10.1,13.8.75-3.93,2.65-11.66,6.02-12.86,4.26-1.52,5.4-2.63,5.4-2.63l-.02-.23c-.06-.7-3.06-4.14-5.16-4.23-1.91-.08-8.18.59-11.48,14.52-2.75,3.83-6.05,8.23-6.54,7.97-.87-.46,4.42-15.44,4.92-17.67.5-2.23-6.38-3.91-6.38-3.91-.49,1.42-1,3.1-1.5,4.9-2.65,4.62-7.59,12.94-10.06,17,.19-1.73.42-3.48.71-5.05.62-3.36,3.09-12.71,5.52-20.19,3.86-2.21,7.31-5.34,6.98-9.32-.36-4.28-3.52-6.27-5.76-6.36-1.9-.08-5.24,5.01-8.23,16.55-2.08.32-3.74.24-3.74.24,0,0-3.35.35-1.55,1.53,0,0,1.52,1.46,2.61,1.27.21-.04.97-.23,2.06-.59-.31,1.33-.62,2.73-.92,4.2-.85,4.2-1.54,7.71-2.07,10.65-2.27,3.76-5.33,8.67-6.08,9.14-1.24.77,1.87-9.47,2.3-11.26.42-1.79-3.19-3.16-4.47-3.5,0,0-7.2,10.44-10.1,13.79.75-3.93,2.66-11.66,6.02-12.86,4.26-1.52,5.4-2.63,5.4-2.63l-.02-.23c-.06-.7-3.06-4.14-5.16-4.23-2.1-.08-9.45.72-12.36,19-.05.31-.05.62-.03.92-2.06,3.03-5.2,7.54-5.78,7.64-.88.14-.39-2.33-.16-3.95.15-1.04,4.07-14.98,6.86-24.81,3.89-.09,8.15-.07,10.47-.2,4.32-.23,4.29-2.39,4.17-4.55-.13-2.16-4.35-4.6-4.25-3.96.11.64.69,2.65-.4,2.72-.59.04-4.36.22-8.41.42.71-2.51,1.17-4.11,1.17-4.11,0,0,1.1-4.11-2.74-6.36-3.84-2.25-4.87-.8-4.87-.8.07.78,2.41.7,2.5,1.81.03.36-1.17,4.36-2.8,9.8-.96.05-1.81.1-2.48.14-4.42.27-5.66,2.29-5.45,4.75.2,2.45,1.25,4.29,1.93,4.31.84.04.62-2.45,3.42-3.33.24-.07.54-.14.9-.2-3.22,10.89-6.94,24.06-6.67,27.34.48,5.72,2.41,7.55,4.87,7.65,1.69.07,5.89-7.58,8.35-12.38,1.28,2.21,4.15,3.64,5.31,4.03.29.1.47.08.56-.02,0,0,0,.01,0,.01,0,0,4.98-8.13,7.88-12.94-.73,2.65-2.24,8.42-2.22,10.63.04,2.91,3.05,3.44,4.58,3.5.86.04,4.2-5.56,6.95-10.45-.78,5.1-.85,7.6-.39,8.66.78,1.82,4.36,2.97,4.64,2.98.02,0,.04-.05.06-.15.62-1.41,5.66-12.91,9.57-20.99-1.36,5.63-2.41,11.21-2.49,13.28-.09,2.37,4.04,4.2,6,4.28.98.04,3.85-4.66,6.44-9.33-.27,3.64,4.37,6.05,5.94,6.56.29.1.47.08.56-.02,0,0,0,.01,0,.01,0,0,4.98-8.13,7.89-12.94-.73,2.65-2.24,8.42-2.22,10.63.04,2.91,3.06,3.44,4.58,3.5,1.06.04,5.93-8.54,8.77-13.74-.38,2.54-.69,5.09-.69,6.79,0,3.6,3.08,3.93,4.72,4.26,1.64.33,1.2-2.15,1.32-3.55.12-1.39.36-3.59,1.03-5.62.67-2.04,6.16-8.67,6.97-10.43.81-1.77-.25,2.72-1.43,7.27-1.18,4.56-2.01,13.19-1.66,17.33.35,4.15,4.7,5.46,5.9,5.5,1.2.05,1.01-.76.96-1.43-.22-2.61,1.86-6.39,3.26-9,1.4-2.61,4.03-4.7,3.74-8.18-.29-3.48-1.62-4.4-2.54-4.64-.92-.24-.75.37-.45,3.88.29,3.51-2.77,8.32-3.96,10.67-1.18,2.35-1.18.88-1.24.21-.85-10.23,6.49-27.53,6.86-28.12.37-.59-.04-1.2-1.31-2.05Zm-54.67-9.04c1.61.33-.78,4.1-3.58,6.96,1.48-4.16,2.82-7.12,3.58-6.96Zm-63.83,44.52c-.02.13-.04.25-.06.37,1.38-.4,2.65-.74,3.68-.95,1.34-.21,3.25,4.82,2.75,5.97-.49,1.15-1.3,1.16-3.41,1.55-2.11.39-10.3,2.49-10.26,2.97-.93.57.28,2.27-.52,2.19-.74-.08-1.39.16-2.76-2.33-1.38-2.48-1.87-3.76-1.94-4.55-.04-.44,3.39-1.86,7.31-3.21-.51-.61-.89-1.41-.98-2.47-.33-3.92,10.15-37.47,10.56-39.13-4.35,1.12-8.03,2.29-7.95,3.22.18,2.22,1.25,2.83,1.31,3.61.06.78-.52,1.19-.52,1.19-.62-.02-5.6-4.56-5.94-8.7-.35-4.14,20.58-9.1,23.08-9,.7.03,4.17,5.16,3.74,6.1-.19.41-4.38,1.34-9.03,2.43.42.38.74.73.89,1,.74,1.33-.08,4.68-1.73,10.08-1.65,5.4-7.79,27.07-8.23,29.65Zm65.79-37.39c5.64-4.55,3.38-6.57,4.54-6.35,1.15.22,5.34,3.3,5.34,3.3,0,0-3.16,8.02-4.6,8.3-1.44.28-5.63-4.97-5.28-5.25Z"/>
  <g>
    <g>
      <path class="cls-1" d="m169.1,227.57l-4.21,8.59-1.71-.83,4.2-8.59-3.2-1.56.75-1.53,8.12,3.97-.75,1.53-3.21-1.57Z"/>
      <path class="cls-1" d="m180.67,242.18l1.42-4.45-5.69-1.81-1.42,4.45-1.81-.58,3.42-10.74,1.81.58-1.49,4.67,5.69,1.81,1.49-4.66,1.81.58-3.42,10.74-1.81-.58Z"/>
      <path class="cls-1" d="m192.64,235.1l-.46,3.01,5.45.84-.26,1.69-5.44-.83-.47,3.07,6.27.96-.26,1.69-8.15-1.25,1.71-11.14,7.96,1.22-.26,1.69-6.08-.93Z"/>
      <path class="cls-1" d="m215.01,234.48c2.33-.16,3.85.8,3.97,2.55.09,1.27-.6,2.27-1.8,2.64,1.53.15,2.5,1.17,2.6,2.68.13,1.93-1.35,3.19-3.89,3.36l-5,.34-.77-11.25,4.88-.33Zm-2.67,4.87l2.89-.2c1.21-.08,1.89-.7,1.83-1.64-.07-.95-.82-1.41-2.03-1.33l-2.89.2.2,2.97Zm.33,4.9l2.89-.2c1.48-.1,2.32-.74,2.25-1.8-.07-1-.99-1.53-2.47-1.43l-2.89.2.22,3.23Z"/>
      <path class="cls-1" d="m226,234.71l.66,2.97,5.38-1.19.37,1.66-5.38,1.19.67,3.03,6.19-1.37.37,1.67-8.05,1.78-2.44-11,7.86-1.74.37,1.67-6.01,1.33Z"/>
      <path class="cls-1" d="m243.74,228.65l-.16,1.85c-1.41-.27-2.66-.14-3.46.16-1.04.39-1.58,1.03-1.31,1.74.85,2.31,6.11-1.04,7.5,2.78.7,1.89-.53,3.67-2.86,4.53-1.66.61-3.48.51-4.94-.08l.2-1.83c1.46.6,3.02.64,4.15.22,1.24-.46,1.81-1.2,1.51-2.02-.87-2.36-6.1,1.06-7.49-2.7-.67-1.81.47-3.52,2.77-4.37,1.38-.51,2.88-.57,4.1-.28Z"/>
      <path class="cls-1" d="m252.15,225.15l4.51,8.44-1.67.9-4.52-8.44-3.14,1.68-.81-1.51,7.97-4.26.81,1.5-3.15,1.69Z"/>
    </g>
    <g>
      <path class="cls-1" d="m119.2,100.09c1.19-2.37,3.05-3.15,5.1-2.12,2.13,1.07,2.69,3.05,1.5,5.43l-1.09,2.17,2.84,1.43-.8,1.59-9.44-4.74,1.89-3.76Zm4.08,4.76l1.06-2.1c.73-1.46.52-2.59-.76-3.23-1.24-.62-2.25-.1-2.98,1.36l-1.06,2.1,3.74,1.88Z"/>
      <path class="cls-1" d="m125.92,91.59l2.36,1.6,2.9-4.27,1.33.9-2.9,4.27,2.41,1.63,3.34-4.92,1.33.9-4.34,6.4-8.75-5.93,4.24-6.25,1.32.9-3.24,4.77Z"/>
      <path class="cls-1" d="m144,83.19l-9.39-.92,5.61,5.09-1.2,1.32-7.82-7.1,1.18-1.29,9.42.91-5.62-5.1,1.18-1.3,7.82,7.1-1.18,1.3Z"/>
      <path class="cls-1" d="m154.16,74.18l-9.14-2.34,4.77,5.88-1.38,1.12-6.65-8.21,1.36-1.1,9.17,2.33-4.78-5.9,1.36-1.1,6.65,8.21-1.36,1.1Z"/>
      <path class="cls-1" d="m156.17,61.97l1.46,2.45,4.43-2.65.82,1.37-4.43,2.65,1.5,2.5,5.1-3.05.82,1.37-6.63,3.97-5.42-9.06,6.47-3.87.82,1.37-4.95,2.96Z"/>
      <path class="cls-1" d="m175.73,59.57l-.17,2.58-1.75.61.94-11.5,1.72-.6,7.82,8.46-1.8.62-1.74-1.92-5.03,1.75Zm.45-6.8l-.34,5.09,3.76-1.31-3.42-3.78Z"/>
      <path class="cls-1" d="m193.26,55.56l.33,1.58-6.22,1.31-2.18-10.34,1.74-.37,1.84,8.75,4.47-.94Z"/>
      <path class="cls-1" d="m207.34,45.45c2.66-.04,4.2,1.26,4.23,3.55.03,2.38-1.47,3.79-4.13,3.83l-2.43.03.04,3.18-1.78.02-.14-10.56,4.21-.06Zm-2.35,5.81l2.35-.03c1.63-.02,2.54-.73,2.52-2.16-.02-1.39-.95-2.04-2.58-2.02l-2.35.03.06,4.18Z"/>
      <path class="cls-1" d="m226.27,52.3c-.4,2.99-3.14,4.99-6.26,4.57-3.13-.42-5.24-3.06-4.84-6.05.4-3.01,3.13-4.95,6.26-4.54,3.13.42,5.24,3.03,4.84,6.02Zm-9.3-1.25c-.28,2.08,1.22,3.95,3.27,4.23,2.05.27,3.94-1.15,4.22-3.23.28-2.08-1.18-3.92-3.23-4.19-2.06-.28-3.99,1.11-4.26,3.19Z"/>
      <path class="cls-1" d="m238.23,61.11l2.3-7.55-5.18,5.52-1.11-.34-1.2-7.47-2.32,7.55-1.6-.49,3.1-10.1,2.02.62,1.27,7.73,5.38-5.69,2.01.61-3.1,10.1-1.57-.48Z"/>
      <path class="cls-1" d="m255.54,63.2c-1.35,2.7-4.58,3.7-7.4,2.3-2.82-1.41-3.97-4.59-2.62-7.29,1.35-2.71,4.56-3.68,7.38-2.27,2.82,1.41,3.98,4.56,2.63,7.26Zm-8.4-4.18c-.94,1.88-.12,4.13,1.73,5.06,1.85.92,4.1.19,5.04-1.69.94-1.88.15-4.09-1.7-5.01-1.86-.93-4.13-.24-5.06,1.64Z"/>
      <path class="cls-1" d="m265.94,63.77c2.59,1.83,3.18,4.97,1.41,7.47-1.76,2.49-4.93,2.98-7.55,1.13l-3.5-2.47,6.1-8.62,3.54,2.5Zm-7.26,5.85l2.12,1.5c1.67,1.18,3.84.85,5.07-.9,1.25-1.76.82-3.95-.88-5.15l-2.06-1.45-4.25,6.01Z"/>
      <path class="cls-1" d="m278.25,81.39c-2.1,2.17-5.49,2.14-7.75-.05-2.26-2.2-2.39-5.58-.29-7.75,2.11-2.18,5.47-2.12,7.73.08,2.26,2.2,2.41,5.56.31,7.72Zm-6.74-6.54c-1.46,1.51-1.37,3.91.11,5.35,1.48,1.44,3.85,1.43,5.32-.08,1.46-1.51,1.38-3.85-.1-5.29-1.5-1.45-3.86-1.48-5.33.03Z"/>
      <path class="cls-1" d="m282.35,89.87c-.1-.11-.2-.24-.3-.38l-1.52-1.99-2.53,1.93-1.08-1.42,8.41-6.4,2.59,3.41c1.64,2.15,1.53,4.18-.29,5.57-1.34,1.02-2.77,1.12-4.05.33l-1.38,4.02-1.22-1.61,1.38-3.47Zm.97-1.34c.99,1.3,2.1,1.62,3.25.75,1.1-.84,1.07-1.99.08-3.29l-1.52-1.99-3.33,2.53,1.52,1.99Z"/>
      <path class="cls-1" d="m293.88,104.67c-2.65,1.45-5.87.44-7.39-2.33-1.52-2.76-.64-6.03,2-7.48,2.66-1.46,5.84-.42,7.36,2.34,1.52,2.76.67,6.02-1.97,7.47Zm-4.52-8.22c-1.84,1.01-2.46,3.33-1.46,5.14.99,1.81,3.26,2.49,5.1,1.48,1.84-1.01,2.45-3.28,1.46-5.09-1-1.82-3.26-2.55-5.1-1.54Z"/>
    </g>
  </g>
</svg>